SplineFontDB: 3.2
FontName: OldStandard-BoldItalic
FullName: Old Standard Bold Italic
FamilyName: Old Standard
Weight: Bold
Copyright: Copyright (c) 2006-2011 Alexey Kryukov <amkryukov@gmail.com>,\nwithout Reserved Font Names.\n\nCopyright (c) 2019-2021, Robert Alessi (<alessi@robertalessi.net>),\nwithout Reserved Font Names.\n\nThis Font Software is licensed under the SIL Open Font License, Version 1.1.\nThis license is copied below, and is also available with a FAQ at:\nhttp://scripts.sil.org/OFL
Version: 2.7-dev
ItalicAngle: -15.2
UnderlinePosition: -158
UnderlineWidth: 40
Ascent: 762
Descent: 238
InvalidEm: 0
sfntRevision: 0x0002b333
LayerCount: 2
Layer: 0 0 "Arri+AOgA-re" 1
Layer: 1 0 "Avant" 0
XUID: [1021 391 1454071143 9857421]
StyleMap: 0x0021
FSType: 0
OS2Version: 4
OS2_WeightWidthSlopeOnly: 0
OS2_UseTypoMetrics: 1
CreationTime: 1300612368
ModificationTime: 1646831301
PfmFamily: 17
TTFWeight: 700
TTFWidth: 5
LineGap: 236
VLineGap: 0
Panose: 2 4 8 3 5 5 5 9 3 3
OS2TypoAscent: 762
OS2TypoAOffset: 0
OS2TypoDescent: -238
OS2TypoDOffset: 0
OS2TypoLinegap: 236
OS2WinAscent: 975
OS2WinAOffset: 0
OS2WinDescent: 309
OS2WinDOffset: 0
HheadAscent: 975
HheadAOffset: 0
HheadDescent: -309
HheadDOffset: 0
OS2SubXSize: 600
OS2SubYSize: 640
OS2SubXOff: 0
OS2SubYOff: 480
OS2SupXSize: 600
OS2SupYSize: 640
OS2SupXOff: 0
OS2SupYOff: 0
OS2StrikeYSize: 40
OS2StrikeYPos: 212
OS2CapHeight: 712
OS2XHeight: 444
OS2FamilyClass: 768
OS2Vendor: 'PfEd'
OS2CodePages: 200000bf.00000000
OS2UnicodeRanges: e0000aff.5a0020ff.02000000.00000000
Lookup: 1 0 0 "'smcp' Bas-de-casse vers petites capitales lookup 0" { "'smcp' Bas-de-casse vers petites capitales lookup 0 subtable"  } ['smcp' ('cyrl' <'dflt' > 'grek' <'dflt' > 'latn' <'dflt' > ) ]
Lookup: 1 0 0 "'c2sc' Capitales vers petites capitales lookup 1" { "'c2sc' Capitales vers petites capitales lookup 1 subtable"  } ['c2sc' ('cyrl' <'dflt' > 'grek' <'dflt' > 'latn' <'dflt' > ) ]

StartChar: .notdef
Encoding: 1573 -1 0
Width: 456
Flags: W
HStem: -15 62<100.215 379.889> 667 62<112.382 393.203>
VStem: 36 64<48.7915 403.667> 44 68<310.333 666.993> 381 68<47.7927 378.231> 394 63<335.769 666.553>
LayerCount: 2
Fore
SplineSet
100 77 m 2xe0
 100 76 100 75 100 74 c 0
 100 44 119 53 125 47 c 1
 344 47 l 2
 345 47 346 47 348 47 c 0
 361 47 381 48 381 81 c 1xe8
 394 633 l 2
 394 634 394 634 394 635 c 0
 394 666 376 667 364 667 c 0
 363 667 362 667 361 667 c 2
 141 667 l 2
 139 667 137 667 135 667 c 0
 123 667 112 665 112 637 c 2xd4
 100 77 l 2xe0
36 0 m 1
 44 714 l 1
 44 729 l 1
 59 729 l 1
 444 729 l 1
 458 729 l 1
 457 714 l 1xd4
 449 0 l 1
 449 -15 l 1
 434 -15 l 1
 49 -15 l 1
 36 -15 l 1
 36 0 l 1
EndSplineSet
Validated: 5
EndChar

StartChar: exclam
Encoding: 1 33 2
Width: 270
GlyphClass: 2
Flags: W
HStem: -27 154<62.3051 169.695>
VStem: 39 154<-3.69491 103.695> 187 152<537.159 676.942>
LayerCount: 2
Fore
SplineSet
39 50 m 0xc0
 39 94 72 127 116 127 c 0
 160 127 193 94 193 50 c 0
 193 6 160 -27 116 -27 c 0
 72 -27 39 6 39 50 c 0xc0
113 161 m 1
 149 364 l 2
 157 407 164 456 168 495 c 0
 173 540 179 584 187 627 c 0
 200 689 238 709 272 709 c 0
 318 709 339 670 339 624 c 0xa0
 339 582 310 516 280 448 c 0
 264 411 248 374 236 341 c 2
 166 153 l 1
 163 143 l 1
 152 143 l 1
 128 143 l 1
 110 143 l 1
 113 161 l 1
EndSplineSet
Validated: 1
EndChar

StartChar: quotedbl
Encoding: 2 34 3
Width: 354
GlyphClass: 2
Flags: W
HStem: 505 240<198.088 207 352.088 361>
VStem: 178 104<635.125 725.292> 332 104<635.125 725.292>
LayerCount: 2
Fore
SplineSet
312 522 m 1
 332 668 l 2
 333 680 341 745 397 745 c 0
 418 745 436 729 436 704 c 0
 436 689 430 674 427 666 c 2
 364 514 l 1
 361 505 l 1
 351 505 l 1
 327 505 l 1
 309 505 l 1
 312 522 l 1
158 522 m 1
 178 668 l 2
 179 680 187 745 243 745 c 0
 264 745 282 729 282 704 c 0
 282 689 276 674 273 666 c 2
 210 514 l 1
 207 505 l 1
 197 505 l 1
 173 505 l 1
 155 505 l 1
 158 522 l 1
EndSplineSet
Validated: 1
EndChar

StartChar: numbersign
Encoding: 3 35 4
Width: 638
GlyphClass: 2
Flags: W
HStem: -15 21G<67 143 241 314> 181 70<57 151 248 321 421 563> 435 70<126 257 354 428 525 635> 679 20G<361 434 532 607>
LayerCount: 2
Fore
SplineSet
43 200 m 1
 54 240 l 1
 57 251 l 1
 68 251 l 1
 179 251 l 1
 257 435 l 1
 126 435 l 1
 107 435 l 1
 112 454 l 1
 123 494 l 1
 126 505 l 1
 137 505 l 1
 286 505 l 1
 361 690 l 1
 365 699 l 1
 374 699 l 1
 413 699 l 1
 434 699 l 1
 425 678 l 1
 354 505 l 1
 456 505 l 1
 532 690 l 1
 536 699 l 1
 545 699 l 1
 584 699 l 1
 607 699 l 1
 598 678 l 1
 525 505 l 1
 634 505 l 1
 654 505 l 1
 649 486 l 1
 638 446 l 1
 635 435 l 1
 623 435 l 1
 497 435 l 1
 421 251 l 1
 562 251 l 1
 582 251 l 1
 577 232 l 1
 566 192 l 1
 563 181 l 1
 551 181 l 1
 390 181 l 1
 314 -6 l 1
 310 -15 l 1
 301 -15 l 1
 262 -15 l 1
 241 -15 l 1
 250 6 l 1
 321 181 l 1
 220 181 l 1
 143 -6 l 1
 139 -15 l 1
 130 -15 l 1
 89 -15 l 1
 67 -15 l 1
 76 6 l 1
 151 181 l 1
 57 181 l 1
 38 181 l 1
 43 200 l 1
248 251 m 1
 352 251 l 1
 428 435 l 1
 326 435 l 1
 248 251 l 1
EndSplineSet
Validated: 1
EndChar

StartChar: dollar
Encoding: 4 36 5
Width: 625
GlyphClass: 2
Flags: W
HStem: 138 125<131.016 199.48> 426 123<499.454 570.722>
VStem: 49 78<70.0507 175> 159 93<469.225 566.408> 459 108<127.519 244.282> 577 74<509 614.135>
LayerCount: 2
Fore
SplineSet
160 -4 m 1
 85 24 49 90 49 147 c 0
 49 203 86 263 144 263 c 0
 178 263 217 245 217 201 c 0
 217 170 192 138 143 138 c 0
 135 138 135 136 132 131 c 2
 131 130 l 2
 130 128 127 120 127 112 c 0
 127 85 145 61 178 45 c 1
 265 336 l 1
 247 345 l 2
 201 368 159 402 159 485 c 0
 159 604 275 672 373 693 c 1
 390 751 l 1
 393 762 l 1
 406 762 l 1
 440 762 l 1
 459 762 l 1
 454 743 l 1
 441 700 l 1
 451 700 459 699 467 699 c 1
 483 751 l 1
 486 762 l 1
 499 762 l 1
 534 762 l 1
 553 762 l 1
 548 743 l 1
 533 688 l 1
 606 662 651 603 651 546 c 0
 651 472 608 426 548 426 c 0
 526 426 480 438 480 482 c 0
 480 518 508 543 543 549 c 0
 563 553 565 554 571 558 c 0
 574 560 577 565 577 576 c 0
 577 593 558 622 514 640 c 1
 437 379 l 1
 462 366 l 2
 515 339 567 303 567 206 c 0
 567 103 465 13 319 -10 c 1
 301 -69 l 1
 298 -80 l 1
 285 -80 l 1
 250 -80 l 1
 229 -80 l 1
 235 -61 l 1
 248 -16 l 1
 242 -16 l 2
 236 -16 230 -16 224 -15 c 1
 208 -69 l 1
 205 -80 l 1
 192 -80 l 1
 158 -80 l 1
 139 -80 l 1
 144 -61 l 1
 160 -4 l 1
352 637 m 1
 298 618 252 583 252 529 c 0
 252 489 269 468 288 458 c 2
 298 453 l 1
 352 637 l 1
324 324 m 1
 242 46 l 1
 252 46 l 1
 266 46 l 1
 345 312 l 1
 324 324 l 1
423 638 m 1
 355 406 l 1
 378 394 l 1
 450 638 l 1
 434 638 l 1
 423 638 l 1
404 266 m 1
 338 42 l 1
 416 64 459 111 459 174 c 0
 459 240 433 251 410 263 c 2
 404 266 l 1
EndSplineSet
Validated: 1
EndChar

StartChar: percent
Encoding: 5 37 6
Width: 851
GlyphClass: 2
Flags: W
HStem: -16 70<553 669.685> 305 54<648.236 730.991> 325 70<205.5 316.852> 539 39<446.692 595.074> 661 39<305.527 351.935>
VStem: 128 102<402.205 550.804> 480 98<60.7812 204.698> 740 58<137.557 298.441>
LayerCount: 2
Fore
SplineSet
700 305 m 0xdf
 638 305 581 221 578 117 c 2
 578 113 l 2
 578 67 601 54 616 54 c 0
 683 54 740 138 740 242 c 0
 740 292 714 305 700 305 c 0xdf
585 -16 m 0
 521 -16 480 39 480 111 c 2
 480 116 l 2
 483 212 562 359 689 359 c 0
 754 359 798 301 798 227 c 0
 798 131 720 -16 585 -16 c 0
238 325 m 0xbf
 173 325 128 383 128 457 c 0
 128 553 207 700 342 700 c 0
 396 700 434 658 444 600 c 1
 452 589 490 578 511 578 c 0
 519 578 527 579 536 580 c 0
 599 589 668 632 707 678 c 0
 710 682 728 706 736 718 c 2
 746 732 l 1
 757 720 l 1
 778 697 l 1
 786 687 l 1
 778 677 l 1
 205 -18 l 1
 195 -31 l 1
 185 -20 l 1
 164 3 l 1
 155 13 l 1
 163 23 l 1
 599 559 l 1
 578 550 558 545 538 541 c 0
 529 540 519 539 510 539 c 0
 485 539 463 544 444 550 c 1
 429 452 353 325 238 325 c 0xbf
353 661 m 1
 289 659 230 571 230 462 c 2
 230 461 l 2
 230 409 253 395 268 395 c 0
 329 395 384 477 391 581 c 1
 365 603 352 627 352 650 c 2
 352 652 l 2
 352 655 353 661 353 661 c 1
EndSplineSet
Validated: 1
EndChar

StartChar: ampersand
Encoding: 6 38 7
Width: 689
GlyphClass: 2
Flags: W
HStem: -33 60<179.045 270.561 423.739 485.809> 417 56<609.859 676> 657 60<484.037 551.004>
VStem: 41 125<40.5738 225.352> 323 93<99.3757 135 214 385> 330 93<214 385> 554 60<545.051 656.292> 644 84<358.979 416.067>
LayerCount: 2
Fore
SplineSet
41 129 m 0xfb
 41 302 226 402 290 425 c 2
 335 443 l 1
 351 567 418 717 530 717 c 0
 600 717 614 650 614 615 c 2
 614 612 l 2
 611 502 511 457 468 441 c 2
 423 423 l 1xf7
 417 214 l 1
 497 326 l 1
 556 410 l 2
 568 427 600 473 649 473 c 0
 703 473 728 432 728 390 c 0
 728 371 718 322 667 322 c 0
 653 322 620 330 620 367 c 0
 620 384 628 397 638 407 c 0
 641 410 644 414 644 415 c 0
 644 416 643 417 639 417 c 0
 629 417 618 407 596 379 c 2
 522 278 l 1
 416 135 l 1
 416 113 l 2
 416 64 422 27 448 27 c 0
 493 27 585 165 608 209 c 2
 615 223 l 1
 629 215 l 1
 647 205 l 1
 659 198 l 1
 653 185 l 2
 630 139 543 -33 438 -33 c 0
 377 -33 349 5 337 43 c 1
 305 8 257 -33 194 -33 c 0
 115 -33 41 22 41 129 c 0xfb
425 478 m 1
 451 488 l 2
 491 502 552 536 554 611 c 2
 554 613 l 2
 554 632 548 657 527 657 c 0
 498 657 435 619 425 478 c 1
166 124 m 2
 166 115 l 2
 166 50 186 27 215 27 c 0
 260 27 296 64 325 99 c 1
 324 107 323 116 323 125 c 2
 323 131 l 1xfb
 330 385 l 1
 316 379 l 2
 223 342 167 243 166 124 c 2
EndSplineSet
Validated: 1
EndChar

StartChar: quotesingle
Encoding: 7 39 8
Width: 225
GlyphClass: 2
Flags: W
HStem: 505 240<198.088 207>
VStem: 178 104<635.125 725.292>
LayerCount: 2
Fore
SplineSet
158 522 m 1
 178 668 l 2
 179 680 187 745 243 745 c 0
 264 745 282 729 282 704 c 0
 282 689 276 674 273 666 c 2
 210 514 l 1
 207 505 l 1
 197 505 l 1
 173 505 l 1
 155 505 l 1
 158 522 l 1
EndSplineSet
Validated: 1
EndChar

StartChar: parenleft
Encoding: 8 40 9
Width: 361
GlyphClass: 2
Flags: W
VStem: 67 72<-41.6077 248.207>
LayerCount: 2
Fore
SplineSet
67 92 m 0
 67 353 229 601 419 742 c 1
 429 750 l 1
 439 741 l 1
 463 717 l 1
 474 705 l 1
 461 694 l 1
 170 456 139 197 139 92 c 0
 139 -3 172 -96 226 -165 c 2
 235 -177 l 1
 223 -186 l 1
 191 -210 l 1
 180 -218 l 1
 171 -208 l 2
 113 -140 67 -24 67 92 c 0
EndSplineSet
Validated: 1
Substitution2: "'sups' Exposant lookup 19 subtable" uni207D
Substitution2: "'subs' Indice lookup 18 subtable" uni208D
EndChar

StartChar: parenright
Encoding: 9 41 10
Width: 355
GlyphClass: 2
Flags: W
VStem: 255 72<283.793 573.608>
LayerCount: 2
Fore
SplineSet
-68 -162 m 1
 224 76 255 335 255 440 c 0
 255 535 222 628 168 697 c 2
 159 709 l 1
 171 718 l 1
 203 742 l 1
 214 750 l 1
 223 740 l 2
 281 672 327 556 327 440 c 0
 327 179 165 -69 -25 -210 c 2
 -36 -218 l 1
 -45 -209 l 1
 -69 -185 l 1
 -81 -173 l 1
 -68 -162 l 1
EndSplineSet
Validated: 1
Substitution2: "'sups' Exposant lookup 19 subtable" uni207E
Substitution2: "'subs' Indice lookup 18 subtable" uni208E
EndChar

StartChar: asterisk
Encoding: 10 42 11
Width: 544
GlyphClass: 2
Flags: W
HStem: 359 114<168.146 244.312 423.96 503.854> 517 114<168.146 247.435 427.688 503.854> 695 20G<335 349>
VStem: 284 95<292.519 412.825> 293 95<577.175 697.481> 310 49<357.362 449 541 623.297>
LayerCount: 2
Fore
SplineSet
148 411 m 0xe4
 148 448 182 467 228 473 c 0
 249 475 268 483 288 495 c 1
 267 508 250 514 228 517 c 0
 182 523 148 542 148 579 c 0
 148 592 153 604 162 614 c 0
 173 626 186 631 200 631 c 0
 226 631 248 613 268 586 c 0
 279 571 294 555 313 541 c 1
 313 549 l 2
 312 570 309 591 303 608 c 0
 297 627 293 643 293 655 c 2
 293 657 l 2
 293 672 297 687 306 698 c 0
 315 709 328 715 342 715 c 0
 356 715 368 709 377 698 c 0
 385 687 388 674 388 660 c 2
 388 657 l 2xe8
 388 644 383 628 375 608 c 0
 368 591 364 570 362 549 c 2
 362 541 l 1
 382 556 397 570 409 586 c 0
 427 613 448 631 472 631 c 0
 487 631 500 624 509 614 c 0
 521 603 524 591 524 579 c 0
 524 542 490 523 444 517 c 0
 423 515 404 507 384 495 c 1
 405 482 422 476 444 473 c 0
 490 467 524 448 524 411 c 0
 524 398 519 386 509 376 c 0
 499 364 486 359 472 359 c 0
 446 359 423 377 404 404 c 0
 393 419 377 435 359 449 c 1
 359 441 l 2xe4
 360 420 363 399 369 382 c 0
 375 363 379 347 379 335 c 2
 379 333 l 2
 379 318 375 303 366 292 c 0
 357 281 344 275 330 275 c 0
 316 275 304 281 295 292 c 0
 287 303 284 316 284 330 c 2
 284 333 l 2xf0
 284 346 289 362 297 382 c 0
 304 399 308 420 310 441 c 2
 310 449 l 1
 290 434 275 420 263 404 c 0
 245 377 224 359 200 359 c 0
 185 359 171 366 162 376 c 0
 151 387 148 399 148 411 c 0xe4
EndSplineSet
Validated: 1
EndChar

StartChar: plus
Encoding: 11 43 12
Width: 865
GlyphClass: 2
Flags: W
HStem: 229 70<45 415 484 854> 679 20G<427 494>
VStem: 404 67<-171 89> 427 67<453 699>
LayerCount: 2
Fore
SplineSet
45 244 m 1xe0
 45 284 l 1
 45 299 l 1
 60 299 l 1
 417 299 l 1
 427 684 l 1
 428 699 l 1
 441 699 l 1
 481 699 l 1
 494 699 l 1
 494 684 l 1xd0
 484 299 l 1
 839 299 l 1
 854 299 l 1
 854 284 l 1
 854 244 l 1
 854 229 l 1
 839 229 l 1
 482 229 l 1
 471 -156 l 1
 471 -171 l 1
 457 -171 l 1
 418 -171 l 1
 404 -171 l 1
 405 -156 l 1
 415 229 l 1
 60 229 l 1
 45 229 l 1
 45 244 l 1xe0
EndSplineSet
Validated: 1
Substitution2: "'sups' Exposant lookup 19 subtable" uni207A
Substitution2: "'subs' Indice lookup 18 subtable" uni208A
EndChar

StartChar: comma
Encoding: 12 44 13
Width: 271
GlyphClass: 2
Flags: W
HStem: 10 145<65.0006 123.903>
VStem: 128 71<-46.6902 76.5>
LayerCount: 2
Fore
SplineSet
13 -139 m 2
 64 -113 128 -64 128 -5 c 0
 128 3 128 3 124 7 c 0
 122 8 116 10 105 10 c 0
 64 10 43 46 43 77 c 0
 43 124 75 155 119 155 c 0
 177 155 199 94 199 59 c 0
 199 -95 81 -163 34 -182 c 2
 21 -187 l 1
 15 -175 l 1
 7 -159 l 1
 0 -145 l 1
 13 -139 l 2
EndSplineSet
Validated: 1
EndChar

StartChar: hyphen
Encoding: 13 45 14
Width: 361
GlyphClass: 2
Flags: W
HStem: 209 86<91.3783 314.21>
VStem: 43 48<181 207.279> 315 48<296.721 323>
LayerCount: 2
Fore
SplineSet
43 196 m 2
 43 244 70 295 126 295 c 2
 302 295 l 2
 315 295 315 295 315 308 c 2
 315 323 l 1
 330 323 l 1
 348 323 l 1
 363 323 l 1
 363 308 l 2
 363 260 335 209 280 209 c 2
 104 209 l 2
 90 209 91 209 91 196 c 2
 91 181 l 1
 76 181 l 1
 58 181 l 1
 43 181 l 1
 43 196 l 2
EndSplineSet
Validated: 1
EndChar

StartChar: period
Encoding: 14 46 15
Width: 270
GlyphClass: 2
Flags: W
HStem: -27 154<65.3051 172.695>
VStem: 42 154<-3.69491 103.695>
LayerCount: 2
Fore
SplineSet
42 50 m 0
 42 94 75 127 119 127 c 0
 163 127 196 94 196 50 c 0
 196 6 163 -27 119 -27 c 0
 75 -27 42 6 42 50 c 0
EndSplineSet
Validated: 1
EndChar

StartChar: slash
Encoding: 15 47 16
Width: 418
GlyphClass: 2
Flags: W
LayerCount: 2
Fore
SplineSet
43 -193 m 1
 341 735 l 1
 345 745 l 1
 355 745 l 1
 395 745 l 1
 416 745 l 1
 410 725 l 1
 112 -203 l 1
 108 -213 l 1
 97 -213 l 1
 57 -213 l 1
 37 -213 l 1
 43 -193 l 1
EndSplineSet
Validated: 1
Substitution2: "'frac' Fractions lookup 26 subtable" uni2215.frac
EndChar

StartChar: zero
Encoding: 16 48 17
Width: 598
GlyphClass: 2
Flags: W
HStem: -16 62<196.882 297.517> 638 62<366.899 466.634>
VStem: 74 106<100.188 277.51> 484 106<406.49 583.252>
LayerCount: 2
Fore
SplineSet
252 436 m 0
 215 337 182 226 180 153 c 2
 180 142 l 2
 180 83 195 46 235 46 c 0
 318 46 368 132 412 248 c 0
 449 347 482 460 484 530 c 2
 484 541 l 2
 484 600 469 638 429 638 c 0
 350 638 295 552 252 436 c 0
235 -16 m 0
 116 -16 74 108 74 259 c 0
 74 455 211 700 428 700 c 0
 547 700 590 576 590 425 c 0
 590 229 453 -16 235 -16 c 0
EndSplineSet
Validated: 1
Substitution2: "'sups' Exposant lookup 19 subtable" zerosuperior
Substitution2: "'subs' Indice lookup 18 subtable" zeroinferior
AlternateSubs2: "'aalt' Activer toutes les variantes lookup 2 subtable" zerosuperior zeroinferior
EndChar

StartChar: one
Encoding: 17 49 18
Width: 619
GlyphClass: 2
Flags: W
HStem: -30 62<64 191.999 329.094 445> 487 48<210.111 282.605> 664 20G<451 513>
LayerCount: 2
Fore
SplineSet
48 -30 m 1
 53 -11 l 1
 61 21 l 1
 64 32 l 1
 76 32 l 1
 169 32 l 2
 186 32 189 34 192 47 c 2
 340 519 l 1
 305 506 267 497 231 487 c 2
 214 482 l 1
 209 496 l 1
 201 516 l 1
 195 531 l 1
 212 535 l 2
 289 555 398 588 451 677 c 2
 455 684 l 1
 464 684 l 1
 495 684 l 1
 513 684 l 1
 508 665 l 1
 331 39 l 2
 330 36 329 34 329 33 c 0
 331 32 333 32 336 32 c 2
 441 32 l 1
 460 32 l 1
 456 13 l 1
 448 -19 l 1
 445 -30 l 1
 433 -30 l 1
 68 -30 l 1
 48 -30 l 1
EndSplineSet
Validated: 1
Substitution2: "'sups' Exposant lookup 19 subtable" onesuperior
Substitution2: "'subs' Indice lookup 18 subtable" oneinferior
AlternateSubs2: "'aalt' Activer toutes les variantes lookup 2 subtable" onesuperior oneinferior
EndChar

StartChar: two
Encoding: 18 50 19
Width: 601
GlyphClass: 2
Flags: W
HStem: -17 134<243.015 395.444> -8 21G<66.5 98.5> 638 62<306.647 445.486>
VStem: 31 72<19.5078 113.137> 155 75<463.5 573.901> 476 125<461.775 602.575>
LayerCount: 2
Fore
SplineSet
82 -8 m 0x7c
 51 -8 31 13 31 39 c 0
 31 124 81 202 183 251 c 1
 320 327 l 2
 393 368 474 451 476 530 c 2
 476 535 l 2
 476 586 456 638 379 638 c 0
 327 638 266 597 241 560 c 0
 234 549 230 539 230 532 c 0
 230 525 232 516 233 515 c 0
 234 515 236 516 242 518 c 1
 242 519 l 1
 243 519 l 1
 254 524 264 527 276 527 c 0
 315 527 333 498 333 471 c 2
 333 469 l 2
 332 430 297 395 249 395 c 0
 204 395 155 433 155 494 c 0
 155 530 166 562 184 590 c 0
 228 658 314 700 389 700 c 0
 517 700 601 624 601 516 c 0
 601 378 433 309 353 273 c 2
 239 223 l 2
 222 216 208 209 197 202 c 0
 174 189 159 176 151 168 c 1
 176 164 196 157 218 147 c 0
 255 132 297 117 341 117 c 0
 386 117 431 136 448 176 c 2
 469 222 l 1
 473 231 l 1
 484 231 l 1
 503 231 l 1
 521 231 l 1
 518 213 l 2
 501 126 447 -17 314 -17 c 0xbc
 246 -17 209 30 184 67 c 0
 163 97 145 114 128 114 c 2
 127 114 l 2
 107 114 103 114 103 85 c 0
 103 82 104 79 104 79 c 1
 105 78 l 2
 115 69 127 57 127 38 c 0
 127 20 115 -8 82 -8 c 0x7c
EndSplineSet
Validated: 1
Substitution2: "'sups' Exposant lookup 19 subtable" twosuperior
Substitution2: "'subs' Indice lookup 18 subtable" twoinferior
AlternateSubs2: "'aalt' Activer toutes les variantes lookup 2 subtable" twosuperior twoinferior
EndChar

StartChar: three
Encoding: 19 51 20
Width: 601
GlyphClass: 2
Flags: W
HStem: -16 62<143.627 293.258> 111 124<123.493 187.798> 313 93<213.317 304.174> 351 55<297.236 378.668> 462 111<271.42 324.358> 638 62<309.757 462.299>
VStem: 51 72<67.184 164.5> 186 85<570 603.107> 393 130<179.677 314.677> 479 114<474.31 610.458>
LayerCount: 2
Fore
SplineSet
222 -16 m 0xdf80
 151 -16 51 30 51 126 c 0
 51 203 114 235 161 235 c 0
 212 235 229 196 229 168 c 2
 229 166 l 2
 228 130 201 101 163 101 c 0
 152 101 143 104 136 108 c 0
 132 110 131 111 126 111 c 0
 124 111 123 112 123 106 c 0
 123 62 180 46 227 46 c 0
 266 46 304 66 335 107 c 0
 373 158 391 240 393 281 c 2
 393 290 l 2
 393 308 391 328 379 339 c 0
 372 345 360 351 338 351 c 0xdf80
 325 351 320 349 309 339 c 0
 297 328 278 313 253 313 c 0
 225 313 202 328 202 354 c 0
 202 377 222 406 260 406 c 2xef80
 342 406 l 1
 362 406 l 2
 373 406 384 409 395 414 c 0
 417 425 440 446 455 469 c 0
 474 498 478 533 479 565 c 2
 479 568 l 2
 479 608 459 638 396 638 c 0
 332 638 271 604 271 573 c 2
 271 570 l 1
 280 572 287 573 293 573 c 0
 327 573 342 552 342 527 c 2
 342 525 l 2
 341 494 317 462 270 462 c 0
 219 462 186 500 186 543 c 0
 186 645 306 700 404 700 c 0
 514 700 593 626 593 526 c 0xdf40
 593 440 511 387 448 368 c 1
 486 345 523 301 523 231 c 0
 523 154 478 84 417 43 c 0
 365 8 295 -16 222 -16 c 0xdf80
EndSplineSet
Validated: 1
Substitution2: "'sups' Exposant lookup 19 subtable" threesuperior
Substitution2: "'subs' Indice lookup 18 subtable" threeinferior
AlternateSubs2: "'aalt' Activer toutes les variantes lookup 2 subtable" threesuperior threeinferior
EndChar

StartChar: four
Encoding: 20 52 21
Width: 615
GlyphClass: 2
Flags: W
HStem: -15 62<133 255.781 389.094 497> 193 66<173 292 450 590> 674 20G<483 596>
VStem: 483 109<636.521 694>
LayerCount: 2
Fore
SplineSet
363 408 m 2
 408 437 444 476 467 512 c 1
 462 508 457 504 452 499 c 2
 243 319 l 1
 173 259 l 1
 311 259 l 1
 356 400 l 1
 358 405 l 1
 363 408 l 2
592 676 m 2
 582 634 556 593 507 540 c 1
 514 540 l 1
 533 540 l 1
 528 522 l 1
 450 259 l 1
 588 259 l 1
 608 259 l 1
 603 240 l 1
 593 204 l 1
 590 193 l 1
 578 193 l 1
 431 193 l 1
 390 54 l 2
 390 51 389 49 389 48 c 0
 391 47 393 47 397 47 c 2
 495 47 l 1
 515 47 l 1
 510 28 l 1
 501 -4 l 1
 497 -15 l 1
 486 -15 l 1
 135 -15 l 1
 116 -15 l 1
 121 4 l 1
 130 36 l 1
 133 47 l 1
 144 47 l 1
 233 47 l 2
 247 47 250 49 254 62 c 2
 292 193 l 1
 83 193 l 1
 63 193 l 1
 68 211 l 1
 78 246 l 1
 79 250 l 1
 83 253 l 1
 202 356 l 1
 304 441 l 1
 377 510 468 628 483 683 c 2
 486 694 l 1
 498 694 l 1
 579 694 l 1
 596 694 l 1
 592 676 l 2
EndSplineSet
Validated: 1
Substitution2: "'sups' Exposant lookup 19 subtable" foursuperior
Substitution2: "'subs' Indice lookup 18 subtable" fourinferior
AlternateSubs2: "'aalt' Activer toutes les variantes lookup 2 subtable" foursuperior fourinferior
EndChar

StartChar: five
Encoding: 21 53 22
Width: 607
GlyphClass: 2
Flags: W
HStem: -16 62<141.274 304.422> 88 134<133.361 211.013> 403 64<280.702 396.535> 546 80<376.806 509.206>
VStem: 59 74<59.1503 149> 418 129<202.618 379.795>
LayerCount: 2
Fore
SplineSet
126 10 m 0
 84 33 59 73 59 120 c 0
 59 178 101 222 152 222 c 0
 199 222 229 195 232 150 c 0
 231 117 205 87 161 87 c 0
 155 87 150 88 146 88 c 0
 142 88 138 87 136 87 c 0
 133 85 133 85 133 84 c 0
 133 74 140 66 156 58 c 0
 173 51 200 46 230 46 c 0
 286 46 335 77 372 144 c 0
 398 190 417 266 418 316 c 2
 418 320 l 2
 418 371 398 403 333 403 c 0
 323 403 311 401 299 396 c 0
 273 386 243 362 226 313 c 0
 220 294 205 271 178 271 c 0
 167 271 134 275 134 310 c 0
 134 340 153 360 169 377 c 0
 182 391 196 406 202 425 c 2
 257 580 l 2
 268 611 272 629 272 646 c 0
 272 652 271 659 269 666 c 2
 266 676 l 1
 275 681 l 1
 302 697 l 1
 314 705 l 1
 324 695 l 2
 345 671 391 626 436 626 c 0
 492 626 533 644 571 694 c 2
 581 708 l 1
 594 696 l 1
 609 682 l 1
 617 674 l 1
 611 665 l 2
 581 620 528 546 415 546 c 0
 375 546 344 561 323 576 c 1
 280 449 l 1
 304 460 330 467 351 467 c 0
 473 467 547 400 547 290 c 0
 547 224 517 133 450 70 c 0
 393 18 315 -16 235 -16 c 0
 193 -16 155 -7 126 10 c 0
EndSplineSet
Validated: 1
Substitution2: "'sups' Exposant lookup 19 subtable" fivesuperior
Substitution2: "'subs' Indice lookup 18 subtable" fiveinferior
AlternateSubs2: "'aalt' Activer toutes les variantes lookup 2 subtable" fivesuperior fiveinferior
EndChar

StartChar: six
Encoding: 22 54 23
Width: 601
GlyphClass: 2
Flags: W
HStem: -16 62<222.312 328.173> 375 66<297.604 404.529> 472 128<455.292 503.876> 638 62<388.866 505.537>
VStem: 89 114<92.5042 252.453> 423 119<175.648 356.738> 506 75<597.224 633.375>
LayerCount: 2
Fore
SplineSet
230 264 m 0xfc
 211 227 204 173 203 131 c 0
 203 130 203 128 203 127 c 0
 203 77 229 46 268 46 c 0
 311 46 349 76 376 120 c 0
 404 167 421 229 423 288 c 0
 423 290 423 291 423 293 c 0
 423 343 401 375 359 375 c 0
 316 375 272 348 230 264 c 0xfc
258 -16 m 0
 164 -16 89 58 89 217 c 0
 89 307 122 436 190 540 c 1
 272 654 376 700 458 700 c 0
 493 700 524 686 543 667 c 0
 573 642 581 609 581 580 c 0
 581 518 543 472 495 472 c 0
 465 472 436 493 436 528 c 0
 436 529 436 529 436 530 c 0
 438 581 478 596 494 600 c 0
 502 602 505 605 506 610 c 0
 506 612 506 613 506 615 c 0xfa
 506 618 505 621 496 628 c 0
 490 633 480 638 454 638 c 0
 399 638 332 583 288 503 c 0
 266 463 251 421 242 385 c 1
 281 422 328 441 374 441 c 0
 483 441 542 362 542 267 c 0
 542 193 506 116 457 64 c 0
 427 36 357 -16 258 -16 c 0
EndSplineSet
Validated: 1
Substitution2: "'sups' Exposant lookup 19 subtable" sixsuperior
Substitution2: "'subs' Indice lookup 18 subtable" sixinferior
AlternateSubs2: "'aalt' Activer toutes les variantes lookup 2 subtable" sixsuperior sixinferior
EndChar

StartChar: seven
Encoding: 23 55 24
Width: 616
GlyphClass: 2
Flags: W
HStem: -17 21G<197.5 245> 454 21G<144 196> 508 72<496 549> 587 105<278.039 406> 682 20G<217 272>
VStem: 142 163<12.7624 140.272> 574 68<580.402 646.497>
LayerCount: 2
Fore
SplineSet
221 -17 m 0xf6
 174 -17 142 13 142 66 c 0
 142 152 258 273 329 340 c 2
 499 508 l 2
 500 508 497 508 496 508 c 0
 443 508 408 534 378 556 c 0
 353 574 333 587 309 587 c 0
 271 587 249 561 217 502 c 2
 196 462 l 1
 192 454 l 1
 183 454 l 1
 164 454 l 1
 144 454 l 1
 149 473 l 1
 217 692 l 1xf6
 221 702 l 1
 232 702 l 1
 251 702 l 1
 272 702 l 1xee
 266 683 l 2
 263 674 261 666 261 658 c 0
 261 654 262 649 263 648 c 0
 293 671 330 692 380 692 c 0
 432 692 467 657 489 627 c 0
 511 597 529 580 549 580 c 0
 568 580 572 586 573 588 c 0
 574 589 574 590 574 591 c 0
 574 595 574 595 570 597 c 2
 569 597 l 1
 568 598 l 2
 560 604 548 615 548 636 c 0
 548 667 572 681 590 681 c 0
 634 681 642 641 642 621 c 0
 642 601 634 583 623 564 c 0
 607 539 584 513 558 485 c 0
 554 480 550 476 547 472 c 0
 418 338 373 288 337 213 c 0
 308 153 305 115 305 73 c 0
 303 20 269 -17 221 -17 c 0xf6
EndSplineSet
Validated: 5
Substitution2: "'sups' Exposant lookup 19 subtable" sevensuperior
Substitution2: "'subs' Indice lookup 18 subtable" seveninferior
AlternateSubs2: "'aalt' Activer toutes les variantes lookup 2 subtable" sevensuperior seveninferior
EndChar

StartChar: eight
Encoding: 24 56 25
Width: 601
GlyphClass: 2
Flags: W
HStem: -16 62<185.853 351.164> 638 62<341.714 484.912>
VStem: 66 74<93.2933 254.705> 182 108<447.707 579.511> 411 109<104.912 240.305> 528 84<444.684 595.075>
LayerCount: 2
Fore
SplineSet
409 638 m 0
 369 638 292 612 290 511 c 0
 290 509 290 507 290 505 c 0
 290 470 299 457 319 439 c 2
 401 364 l 1
 479 379 528 446 528 507 c 0
 528 592 492 638 409 638 c 0
255 -16 m 0
 171 -16 66 42 66 168 c 0
 66 244 112 303 160 331 c 0
 184 346 207 355 237 362 c 1
 207 392 182 437 182 491 c 0
 182 548 206 596 242 633 c 0
 293 683 367 700 415 700 c 0
 528 700 612 642 612 536 c 0
 612 481 588 419 541 384 c 0
 516 366 481 349 450 340 c 1
 497 298 520 255 520 198 c 0
 520 131 495 81 445 42 c 0
 398 6 331 -16 255 -16 c 0
190 291 m 0
 164 267 140 225 140 177 c 0
 140 94 178 46 269 46 c 0
 346 46 411 98 411 157 c 0
 411 195 402 231 379 252 c 2
 283 335 l 1
 249 327 222 319 190 291 c 0
EndSplineSet
Validated: 1
Substitution2: "'sups' Exposant lookup 19 subtable" eightsuperior
Substitution2: "'subs' Indice lookup 18 subtable" eightinferior
AlternateSubs2: "'aalt' Activer toutes les variantes lookup 2 subtable" eightsuperior eightinferior
EndChar

StartChar: nine
Encoding: 25 57 26
Width: 607
GlyphClass: 2
Flags: W
HStem: -16 62<170.828 287.512> 84 128<165.124 220.16> 243 66<266.225 375.59> 638 62<342.119 451.369>
VStem: 88 77<56.3706 86.0645> 127 120<327.262 510.156> 472 116<431.547 591.496>
LayerCount: 2
Fore
SplineSet
294 564 m 0xf6
 265 517 248 455 247 396 c 0
 247 395 247 394 247 393 c 0
 247 342 269 309 313 309 c 0
 357 309 403 336 445 420 c 0
 464 457 472 511 472 553 c 0
 472 554 472 555 472 556 c 0
 472 607 444 638 405 638 c 0
 360 638 320 608 294 564 c 0xf6
126 17 m 0
 96 42 88 75 88 104 c 0
 88 166 126 212 174 212 c 0
 206 212 240 190 240 154 c 0
 239 103 196 88 179 84 c 0
 170 82 166 79 166 74 c 0
 166 72 165 71 165 70 c 0xfa
 165 66 167 64 176 56 c 0
 184 51 195 46 222 46 c 0
 278 46 345 101 389 181 c 0
 410 221 425 263 435 299 c 1
 394 262 346 243 298 243 c 0
 186 243 127 322 127 417 c 0
 127 491 163 568 212 620 c 0
 242 648 312 700 414 700 c 0
 512 700 588 626 588 467 c 0
 588 377 554 248 486 144 c 1
 404 30 300 -16 218 -16 c 0
 182 -16 148 -2 126 17 c 0
EndSplineSet
Validated: 1
Substitution2: "'sups' Exposant lookup 19 subtable" ninesuperior
Substitution2: "'subs' Indice lookup 18 subtable" nineinferior
AlternateSubs2: "'aalt' Activer toutes les variantes lookup 2 subtable" ninesuperior nineinferior
EndChar

StartChar: colon
Encoding: 26 58 27
Width: 270
GlyphClass: 2
Flags: W
HStem: -27 154<65.3051 172.695> 317 154<157.305 264.695>
VStem: 42 154<-3.69491 103.695> 134 154<340.305 447.695>
LayerCount: 2
Fore
SplineSet
134 394 m 0xd0
 134 438 167 471 211 471 c 0
 255 471 288 438 288 394 c 0
 288 350 255 317 211 317 c 0
 167 317 134 350 134 394 c 0xd0
42 50 m 0xe0
 42 94 75 127 119 127 c 0
 163 127 196 94 196 50 c 0
 196 6 163 -27 119 -27 c 0
 75 -27 42 6 42 50 c 0xe0
EndSplineSet
Validated: 1
EndChar

StartChar: semicolon
Encoding: 27 894 28
AltUni2: 00003b.ffffffff.0
Width: 271
GlyphClass: 2
Flags: W
HStem: 10 145<65.0006 123.903> 317 154<157.305 264.695>
VStem: 128 71<-46.6902 76.5> 134 154<340.305 447.695>
LayerCount: 2
Fore
SplineSet
134 394 m 0xd0
 134 438 167 471 211 471 c 0
 255 471 288 438 288 394 c 0
 288 350 255 317 211 317 c 0
 167 317 134 350 134 394 c 0xd0
13 -139 m 2
 64 -113 128 -64 128 -5 c 0
 128 3 128 3 124 7 c 0
 122 8 116 10 105 10 c 0
 64 10 43 46 43 77 c 0
 43 124 75 155 119 155 c 0
 177 155 199 94 199 59 c 0xe0
 199 -95 81 -163 34 -182 c 2
 21 -187 l 1
 15 -175 l 1
 7 -159 l 1
 0 -145 l 1
 13 -139 l 2
EndSplineSet
Validated: 1
EndChar

StartChar: less
Encoding: 28 60 29
Width: 869
GlyphClass: 2
Flags: W
LayerCount: 2
Fore
SplineSet
70 250 m 1
 70 278 l 1
 70 287 l 1
 78 291 l 1
 781 697 l 1
 792 704 l 1
 799 691 l 1
 816 655 l 1
 822 642 l 1
 810 635 l 1
 179 264 l 1
 800 -107 l 1
 813 -114 l 1
 806 -127 l 1
 786 -163 l 1
 779 -176 l 1
 766 -169 l 1
 78 237 l 1
 70 241 l 1
 70 250 l 1
EndSplineSet
Validated: 1
EndChar

StartChar: equal
Encoding: 29 61 30
Width: 863
GlyphClass: 2
Flags: W
HStem: 133 70<48 851> 323 70<48 851>
LayerCount: 2
Fore
SplineSet
48 338 m 1
 48 378 l 1
 48 393 l 1
 63 393 l 1
 836 393 l 1
 851 393 l 1
 851 378 l 1
 851 338 l 1
 851 323 l 1
 836 323 l 1
 63 323 l 1
 48 323 l 1
 48 338 l 1
48 148 m 1
 48 188 l 1
 48 203 l 1
 63 203 l 1
 836 203 l 1
 851 203 l 1
 851 188 l 1
 851 148 l 1
 851 133 l 1
 836 133 l 1
 63 133 l 1
 48 133 l 1
 48 148 l 1
EndSplineSet
Validated: 1
Substitution2: "'sups' Exposant lookup 19 subtable" uni207C
Substitution2: "'subs' Indice lookup 18 subtable" uni208C
EndChar

StartChar: greater
Encoding: 30 62 31
Width: 858
GlyphClass: 2
Flags: W
LayerCount: 2
Fore
SplineSet
75 -107 m 1
 706 264 l 1
 84 635 l 1
 71 642 l 1
 78 655 l 1
 98 691 l 1
 106 704 l 1
 119 697 l 1
 807 291 l 1
 814 287 l 1
 814 278 l 1
 814 250 l 1
 814 241 l 1
 807 237 l 1
 104 -169 l 1
 92 -176 l 1
 86 -163 l 1
 69 -127 l 1
 62 -114 l 1
 75 -107 l 1
EndSplineSet
Validated: 1
EndChar

StartChar: question
Encoding: 31 63 32
Width: 428
GlyphClass: 2
Flags: W
HStem: -27 154<123.305 230.332> 139 60<198.529 283.407> 649 60<242.791 378.265>
VStem: 100 154<-3.69491 103.695> 124 72<201.278 278.849> 126 78<527.5 610.286> 297 50<211.45 295.925> 407 102<489.043 621.281>
LayerCount: 2
Fore
SplineSet
100 50 m 0xf3
 100 94 133 127 177 127 c 0
 221 127 254 94 254 50 c 0
 253 6 221 -27 177 -27 c 0
 133 -27 100 6 100 50 c 0xf3
124 242 m 0xeb
 124 300 165 348 213 377 c 2
 337 451 l 2
 379 474 407 504 407 544 c 1
 407 608 379 649 326 649 c 0
 285 649 257 640 238 629 c 0
 211 613 204 591 204 581 c 0
 204 570 207 570 208 570 c 0
 217 566 226 562 233 555 c 2
 234 554 l 1
 244 543 248 530 248 515 c 1
 248 493 230 463 194 463 c 0
 177 463 160 468 148 482 c 0
 134 496 126 514 126 541 c 0xe7
 126 603 175 654 232 682 c 0
 265 699 302 709 336 709 c 0
 453 709 509 629 509 534 c 0
 509 464 453 405 390 374 c 2
 258 311 l 2
 217 287 196 259 196 236 c 1
 196 208 212 199 232 199 c 0
 282 199 297 231 297 262 c 1
 297 266 293 278 291 281 c 2
 280 293 l 1
 293 303 l 1
 305 312 l 1
 315 320 l 1
 325 311 l 2
 335 300 347 280 347 254 c 0
 347 189 294 139 229 139 c 0
 174 139 124 179 124 242 c 0xeb
EndSplineSet
Validated: 5
EndChar

StartChar: at
Encoding: 32 64 33
Width: 769
GlyphClass: 2
Flags: W
HStem: -33 58<324.675 536.549> 116 54<329.811 402.05 530.116 635.585> 540 54<419.85 495.14> 687 58<351.259 558.663>
VStem: 84 78<208.383 464.274> 234 87<174.988 364.833> 712 78<271.75 517.09>
LayerCount: 2
Fore
SplineSet
84 355 m 0
 84 557 236 725 421 743 c 0
 432 744 443 745 454 745 c 0
 672 745 790 579 790 377 c 0
 790 294 744 179 639 134 c 0
 612 123 583 116 552 116 c 0
 509 116 472 139 458 178 c 1
 437 152 399 116 349 116 c 0
 293 116 234 161 234 254 c 2
 234 254 234 255 234 255 c 2
 236 335 258 431 304 491 c 0
 362 565 424 594 476 594 c 0
 503 594 525 575 537 558 c 1
 540 571 l 1
 543 582 l 1
 555 582 l 1
 627 582 l 1
 646 582 l 1
 641 563 l 1
 557 253 l 2
 553 238 551 225 551 214 c 0
 551 211 550 209 550 206 c 0
 550 177 563 170 568 170 c 0
 587 170 603 174 617 181 c 0
 689 213 712 319 712 397 c 0
 712 399 712 401 712 403 c 0
 712 584 605 687 444 687 c 0
 438 687 431 687 425 686 c 0
 286 674 162 529 162 335 c 0
 162 333 162 330 162 328 c 0
 162 140 263 25 441 25 c 0
 512 25 567 60 597 81 c 2
 609 89 l 1
 617 77 l 1
 633 54 l 1
 641 41 l 1
 630 33 l 2
 599 11 530 -33 431 -33 c 0
 214 -33 84 127 84 355 c 0
321 223 m 1
 324 184 344 170 354 170 c 0
 409 170 454 250 478 339 c 2
 501 424 l 2
 504 434 505 445 506 457 c 0
 506 459 506 461 506 462 c 0
 506 507 489 540 474 540 c 0
 435 540 402 517 364 429 c 0
 343 382 323 295 321 223 c 1
EndSplineSet
Validated: 1
EndChar

StartChar: A
Encoding: 33 65 34
Width: 728
GlyphClass: 2
Flags: W
HStem: 0 32<-24 84.1525 195.039 274 367 462.295 578.037 669> 229 62<333 468> 692 20G<545 593>
VStem: 464 112<32.3836 229 291 322.882> 476 117<435.118 503>
AnchorPoint: "Anchor-2" 312 0 basechar 0
AnchorPoint: "Anchor-1" 556 782 basechar 0
AnchorPoint: "Anchor-0" 550 762 basechar 0
LayerCount: 2
Fore
SplineSet
476 503 m 1xe8
 333 291 l 1
 470 291 l 1
 476 503 l 1xe8
-40 0 m 1
 -35 10 l 1
 -27 26 l 1
 -24 32 l 1
 -12 32 l 1
 25 32 l 2
 78 32 117 66 136 97 c 2
 545 705 l 1
 549 712 l 1
 557 712 l 1
 579 712 l 1
 593 712 l 1
 593 697 l 1xe8
 576 61 l 2
 578 34 586 32 609 32 c 2
 665 32 l 1
 684 32 l 1
 679 24 l 1
 671 11 l 1
 669 0 l 1
 657 0 l 1
 369 0 l 1
 351 0 l 1
 356 10 l 1
 364 26 l 1
 367 32 l 1
 378 32 l 1
 437 32 l 2
 439 32 440 32 442 32 c 0
 456 32 463 33 464 66 c 2xf0
 468 229 l 1
 291 229 l 1
 227 128 l 2
 214 107 196 71 195 53 c 0
 195 52 195 51 195 50 c 0
 195 39 198 32 219 32 c 2
 271 32 l 1
 289 32 l 1
 285 24 l 1
 277 11 l 1
 274 0 l 1
 263 0 l 1
 -20 0 l 1
 -40 0 l 1
EndSplineSet
Validated: 1
Substitution2: "'c2sc' Capitales vers petites capitales lookup 1 subtable" a.sc
EndChar

StartChar: B
Encoding: 34 66 35
Width: 710
GlyphClass: 2
Flags: W
HStem: 0 32<6 113.628 240.048 454.877> 347 62<343 502.003> 680 32<195 285.907 411.375 586.007>
VStem: 541 138<145.199 302.672> 619 122<488.078 632.655>
AnchorPoint: "Anchor-2" 226 0 basechar 0
AnchorPoint: "Anchor-1" 458 782 basechar 0
AnchorPoint: "Anchor-0" 452 762 basechar 0
LayerCount: 2
Fore
SplineSet
325 347 m 1xf0
 241 40 l 2
 240 37 240 35 240 33 c 1
 241 32 243 32 245 32 c 2
 400 32 l 2
 484 32 538 126 541 208 c 0
 541 212 541 215 541 218 c 0
 541 299 510 347 445 347 c 2
 325 347 l 1xf0
-9 0 m 1
 -4 10 l 1
 4 26 l 1
 6 32 l 1
 18 32 l 1
 94 32 l 2
 107 32 110 35 114 49 c 2
 284 672 l 2
 286 676 286 678 286 679 c 0
 284 680 283 680 280 680 c 2
 199 680 l 1
 179 680 l 1
 184 688 l 1
 192 701 l 1
 195 712 l 1
 208 712 l 1
 561 712 l 2
 650 712 741 660 741 551 c 0xe8
 741 449 647 397 570 374 c 1
 632 350 679 297 679 225 c 0
 679 81 503 0 383 0 c 2
 10 0 l 1
 -9 0 l 1
411 663 m 2
 343 409 l 1
 452 409 l 2
 584 409 617 507 619 570 c 0
 619 573 619 575 619 578 c 0
 619 653 588 680 531 680 c 2
 430 680 l 2
 419 680 415 678 411 663 c 2
EndSplineSet
Validated: 5
Substitution2: "'c2sc' Capitales vers petites capitales lookup 1 subtable" b.sc
EndChar

StartChar: C
Encoding: 35 67 36
Width: 681
GlyphClass: 2
Flags: W
HStem: -18 62<251.832 404.742> 668 62<406.245 548.487> 702 20G<671 727>
VStem: 91 123<128.824 353.456>
AnchorPoint: "Anchor-2" 306 0 basechar 0
AnchorPoint: "Anchor-1" 494 782 basechar 0
AnchorPoint: "Anchor-0" 488 762 basechar 0
LayerCount: 2
Fore
SplineSet
306 -18 m 0xd0
 205 -18 91 65 91 256 c 0
 91 487 292 730 491 730 c 0xd0
 550 730 588 699 607 680 c 2
 623 662 l 2
 634 649 636 649 640 649 c 0
 652 649 667 686 671 709 c 2
 673 722 l 1
 685 722 l 1
 708 722 l 1
 727 722 l 1xb0
 723 704 l 1
 659 398 l 1
 657 386 l 1
 644 386 l 1
 621 386 l 1
 606 386 l 1
 606 402 l 2
 607 421 607 441 607 464 c 0
 607 491 601 578 570 623 c 0
 547 655 520 668 485 668 c 0
 419 668 362 637 297 521 c 0
 256 450 218 329 214 203 c 0
 214 199 214 194 214 189 c 0
 214 51 274 44 324 44 c 0
 428 44 530 149 573 262 c 2
 578 276 l 1
 594 271 l 1
 625 260 l 1
 639 255 l 1
 635 241 l 1
 590 113 480 -18 306 -18 c 0xd0
EndSplineSet
Validated: 1
Substitution2: "'c2sc' Capitales vers petites capitales lookup 1 subtable" c.sc
EndChar

StartChar: D
Encoding: 36 68 37
Width: 763
GlyphClass: 2
Flags: W
HStem: 0 32<6 113.628 239.093 434.084> 680 32<196 285.906 411.284 573.775>
VStem: 635 123<335.796 570.382>
AnchorPoint: "Anchor-2" 226 0 basechar 0
AnchorPoint: "Anchor-1" 464 782 basechar 0
AnchorPoint: "Anchor-0" 458 762 basechar 0
LayerCount: 2
Fore
SplineSet
-9 0 m 1
 -4 10 l 1
 4 26 l 1
 6 32 l 1
 18 32 l 1
 94 32 l 2
 107 32 110 35 114 49 c 2
 284 672 l 2
 285 676 286 678 286 679 c 0
 284 680 282 680 279 680 c 2
 199 680 l 1
 178 680 l 1
 184 688 l 1
 193 701 l 1
 196 712 l 1
 208 712 l 1
 535 712 l 2
 679 712 758 598 758 449 c 0
 758 346 717 233 644 147 c 0
 573 67 477 0 354 0 c 2
 10 0 l 1
 -9 0 l 1
411 663 m 2
 241 40 l 2
 240 37 239 35 239 33 c 1
 241 32 242 32 245 32 c 2
 365 32 l 2
 443 32 507 83 559 179 c 0
 600 256 632 378 635 507 c 0
 635 511 635 515 635 519 c 0
 635 609 607 680 513 680 c 2
 430 680 l 2
 418 680 414 678 411 663 c 2
EndSplineSet
Validated: 5
Substitution2: "'c2sc' Capitales vers petites capitales lookup 1 subtable" d.sc
EndChar

StartChar: E
Encoding: 37 69 38
Width: 732
GlyphClass: 2
Flags: W
HStem: 0 32<6 113.628 239.093 491.925> 337 62<339 443.387> 680 32<195 284.952 410.375 648.228>
AnchorPoint: "Anchor-2" 312 0 basechar 0
AnchorPoint: "Anchor-1" 484 782 basechar 0
AnchorPoint: "Anchor-0" 478 762 basechar 0
LayerCount: 2
Fore
SplineSet
-9 0 m 1
 -4 10 l 1
 4 26 l 1
 6 32 l 1
 18 32 l 1
 94 32 l 2
 107 32 110 35 114 49 c 2
 284 672 l 2
 285 676 285 678 285 679 c 0
 284 680 282 680 279 680 c 2
 199 680 l 1
 179 680 l 1
 183 688 l 1
 192 701 l 1
 195 712 l 1
 207 712 l 1
 767 712 l 1
 786 712 l 1
 782 703 l 1
 736 496 l 1
 733 484 l 1
 721 484 l 1
 696 484 l 1
 679 484 l 1
 681 501 l 1
 681 501 684 521 684 547 c 0
 684 660 648 680 587 680 c 2
 429 680 l 2
 418 680 414 678 410 663 c 2
 339 399 l 1
 423 399 l 2
 490 399 511 469 527 530 c 2
 530 541 l 1
 543 541 l 1
 569 541 l 1
 590 541 l 1
 584 522 l 1
 494 198 l 1
 491 187 l 1
 478 187 l 1
 452 187 l 1
 432 187 l 1
 437 205 l 2
 442 227 447 254 448 277 c 0
 448 279 448 282 448 284 c 0
 448 320 439 337 407 337 c 2
 322 337 l 1
 240 40 l 2
 240 37 239 35 239 33 c 1
 241 32 242 32 245 32 c 2
 425 32 l 2
 451 32 505 44 544 80 c 0
 607 138 652 258 652 258 c 1
 656 268 l 1
 667 268 l 1
 691 268 l 1
 712 268 l 1
 706 249 l 1
 619 11 l 1
 616 0 l 1
 604 0 l 1
 10 0 l 1
 -9 0 l 1
EndSplineSet
Validated: 5
Substitution2: "'c2sc' Capitales vers petites capitales lookup 1 subtable" e.sc
EndChar

StartChar: F
Encoding: 38 70 39
Width: 710
GlyphClass: 2
Flags: W
HStem: 0 32<6 113.628 239.093 354> 337 62<339 442.387> 680 32<195 284.952 410.375 648.228>
AnchorPoint: "Anchor-2" 180 0 basechar 0
AnchorPoint: "Anchor-1" 484 782 basechar 0
AnchorPoint: "Anchor-0" 478 762 basechar 0
LayerCount: 2
Fore
SplineSet
-9 0 m 1
 -4 10 l 1
 4 26 l 1
 6 32 l 1
 18 32 l 1
 94 32 l 2
 107 32 110 35 114 49 c 2
 284 672 l 2
 285 676 285 678 285 679 c 0
 284 680 282 680 279 680 c 2
 199 680 l 1
 179 680 l 1
 183 688 l 1
 192 701 l 1
 195 712 l 1
 207 712 l 1
 767 712 l 1
 786 712 l 1
 782 703 l 1
 736 496 l 1
 734 484 l 1
 721 484 l 1
 696 484 l 1
 679 484 l 1
 681 501 l 1
 681 501 684 521 684 547 c 0
 684 660 648 680 587 680 c 2
 429 680 l 2
 418 680 414 678 410 663 c 2
 339 399 l 1
 422 399 l 2
 489 399 510 469 526 530 c 1
 530 541 l 1
 542 541 l 1
 568 541 l 1
 589 541 l 1
 583 522 l 1
 493 198 l 1
 490 187 l 1
 477 187 l 1
 451 187 l 1
 431 187 l 1
 436 205 l 2
 441 227 446 254 447 277 c 0
 447 279 447 282 447 284 c 0
 447 320 438 337 406 337 c 2
 322 337 l 1
 240 40 l 2
 240 37 239 35 239 33 c 1
 241 32 242 32 245 32 c 2
 351 32 l 1
 369 32 l 1
 365 24 l 1
 357 11 l 1
 354 0 l 1
 343 0 l 1
 10 0 l 1
 -9 0 l 1
EndSplineSet
Validated: 5
Substitution2: "'c2sc' Capitales vers petites capitales lookup 1 subtable" f.sc
EndChar

StartChar: G
Encoding: 39 71 40
Width: 754
GlyphClass: 2
Flags: W
HStem: -18 62<249.379 388.702> 289 62<416 519.907 645.984 743> 668 62<403.683 564.064> 702 20G<689 742>
VStem: 91 123<130.378 353.456> 622 49<386 398> 689 49<689.656 722>
AnchorPoint: "Anchor-2" 312 0 basechar 0
AnchorPoint: "Anchor-1" 494 782 basechar 0
AnchorPoint: "Anchor-0" 488 762 basechar 0
LayerCount: 2
Fore
SplineSet
305 -18 m 0xee
 185 -18 91 89 91 256 c 0
 91 487 290 730 489 730 c 0xee
 551 730 598 704 632 672 c 0
 651 653 657 649 662 649 c 0
 673 649 684 683 689 710 c 2
 692 722 l 1
 703 722 l 1
 724 722 l 1
 742 722 l 1xde
 738 704 l 1
 674 398 l 1
 671 386 l 1
 659 386 l 1
 636 386 l 1
 622 386 l 1
 623 402 l 2
 624 420 625 441 626 464 c 0
 626 468 626 472 626 477 c 0
 626 513 622 585 592 622 c 0
 565 655 520 668 484 668 c 0
 418 668 363 639 296 521 c 0
 256 450 218 329 214 203 c 0
 214 198 214 194 214 189 c 0
 214 48 275 44 317 44 c 0
 408 44 487 148 507 231 c 2
 519 281 l 2
 520 283 520 285 520 288 c 1
 518 289 517 289 514 289 c 2
 418 289 l 1
 399 289 l 1
 404 308 l 1
 413 340 l 1
 416 351 l 1
 427 351 l 1
 729 351 l 1
 748 351 l 1
 744 332 l 1
 746 300 l 1
 743 289 l 1
 731 289 l 1
 667 289 l 2
 654 289 650 285 647 274 c 2
 582 -2 l 1
 579 -14 l 1
 566 -14 l 1
 540 -14 l 1
 524 -14 l 1
 524 1 l 1
 524 71 l 2
 524 76 523 90 521 96 c 1
 515 94 507 86 496 75 c 0
 443 22 380 -18 305 -18 c 0xee
EndSplineSet
Validated: 5
Substitution2: "'salt' Alternatives stylistiques lookup 17 subtable" uniA77D
Substitution2: "'ss02' Jeu stylistique 2 lookup 12 subtable" uniA77D
AlternateSubs2: "'aalt' Activer toutes les variantes lookup 2 subtable" uniA77D
Substitution2: "'c2sc' Capitales vers petites capitales lookup 1 subtable" g.sc
EndChar

StartChar: H
Encoding: 40 72 41
Width: 819
GlyphClass: 2
Flags: W
HStem: 0 32<6 113.628 238.047 317 401 501.999 626.048 715> 322 92<336 580> 680 32<194 282.907 407.001 508 592 671.997 795.372 902>
AnchorPoint: "Anchor-2" 346 0 basechar 0
AnchorPoint: "Anchor-1" 558 782 basechar 0
AnchorPoint: "Anchor-0" 552 762 basechar 0
LayerCount: 2
Fore
SplineSet
-9 0 m 1
 -4 10 l 1
 4 26 l 1
 6 32 l 1
 18 32 l 1
 94 32 l 2
 107 32 110 35 114 49 c 2
 282 672 l 2
 283 675 283 677 283 679 c 1
 281 680 280 680 277 680 c 2
 198 680 l 1
 178 680 l 1
 183 688 l 1
 191 701 l 1
 194 712 l 1
 206 712 l 1
 506 712 l 1
 524 712 l 1
 519 702 l 1
 511 686 l 1
 508 680 l 1
 497 680 l 1
 426 680 l 2
 414 680 411 677 407 664 c 2
 336 414 l 1
 598 414 l 1
 670 672 l 2
 671 675 672 678 672 679 c 0
 672 680 668 680 666 680 c 2
 595 680 l 1
 577 680 l 1
 581 688 l 1
 589 701 l 1
 592 712 l 1
 603 712 l 1
 899 712 l 1
 918 712 l 1
 913 702 l 1
 905 686 l 1
 902 680 l 1
 891 680 l 1
 815 680 l 2
 802 680 799 677 795 663 c 2
 627 40 l 2
 626 37 626 35 626 33 c 1
 627 32 629 32 632 32 c 2
 711 32 l 1
 731 32 l 1
 726 24 l 1
 718 11 l 1
 715 0 l 1
 703 0 l 1
 404 0 l 1
 386 0 l 1
 390 10 l 1
 398 26 l 1
 401 32 l 1
 412 32 l 1
 483 32 l 2
 494 32 498 35 502 48 c 2
 580 322 l 1
 319 322 l 1
 239 40 l 2
 238 37 238 35 238 33 c 1
 239 32 240 32 243 32 c 2
 314 32 l 1
 332 32 l 1
 328 24 l 1
 320 11 l 1
 317 0 l 1
 306 0 l 1
 10 0 l 1
 -9 0 l 1
EndSplineSet
Validated: 5
Substitution2: "'c2sc' Capitales vers petites capitales lookup 1 subtable" h.sc
EndChar

StartChar: I
Encoding: 41 73 42
Width: 449
GlyphClass: 2
Flags: W
HStem: 0 32<6 113.628 245.094 340> 680 32<199 293.906 424.375 532>
AnchorPoint: "Anchor-2" 145 0 basechar 0
AnchorPoint: "Anchor-1" 352 782 basechar 0
AnchorPoint: "Anchor-0" 346 762 basechar 0
LayerCount: 2
Fore
SplineSet
-9 0 m 1
 -4 10 l 1
 4 26 l 1
 6 32 l 1
 18 32 l 1
 94 32 l 2
 107 32 110 35 114 49 c 2
 292 672 l 2
 293 676 294 678 294 679 c 0
 292 680 290 680 287 680 c 2
 203 680 l 1
 182 680 l 1
 187 688 l 1
 196 701 l 1
 199 712 l 1
 212 712 l 1
 528 712 l 1
 547 712 l 1
 543 702 l 1
 535 686 l 1
 532 680 l 1
 520 680 l 1
 444 680 l 2
 432 680 428 678 424 663 c 2
 247 40 l 2
 246 37 245 35 245 33 c 1
 247 32 249 32 252 32 c 2
 335 32 l 1
 357 32 l 1
 352 24 l 1
 343 11 l 1
 340 0 l 1
 327 0 l 1
 10 0 l 1
 -9 0 l 1
EndSplineSet
Validated: 5
Substitution2: "'c2sc' Capitales vers petites capitales lookup 1 subtable" i.sc
EndChar

StartChar: J
Encoding: 42 74 43
Width: 574
GlyphClass: 2
Flags: W
HStem: -18 62<117.154 229.091> 91 155<113.792 171.952> 680 32<323 439.952 567.001 675>
VStem: 17 96<49.9669 160.5>
AnchorPoint: "Anchor-2" 172 0 basechar 0
AnchorPoint: "Anchor-1" 494 782 basechar 0
AnchorPoint: "Anchor-0" 488 762 basechar 0
LayerCount: 2
Fore
SplineSet
160 -18 m 0
 73 -18 17 45 17 125 c 0
 17 196 63 246 122 246 c 0
 164 246 197 218 197 176 c 0
 197 175 197 175 197 174 c 0
 196 130 168 91 118 91 c 0
 115 91 113 90 113 83 c 0
 113 61 125 44 169 44 c 0
 227 44 273 96 290 158 c 2
 439 672 l 2
 440 675 440 678 440 679 c 0
 439 680 437 680 434 680 c 2
 326 680 l 1
 307 680 l 1
 312 688 l 1
 320 701 l 1
 323 712 l 1
 334 712 l 1
 671 712 l 1
 690 712 l 1
 685 702 l 1
 677 686 l 1
 675 680 l 1
 663 680 l 1
 587 680 l 2
 575 680 571 678 567 664 c 2
 431 196 l 2
 392 61 270 -18 160 -18 c 0
EndSplineSet
Validated: 1
Substitution2: "'c2sc' Capitales vers petites capitales lookup 1 subtable" j.sc
EndChar

StartChar: K
Encoding: 43 75 44
Width: 769
GlyphClass: 2
Flags: W
HStem: 0 32<6 113.628 238.048 317 394 472.996 597.356 694> 680 32<194 283.906 408.001 509 582 643.993 779.174 859>
AnchorPoint: "Anchor-2" 336 0 basechar 0
AnchorPoint: "Anchor-1" 538 782 basechar 0
AnchorPoint: "Anchor-0" 532 762 basechar 0
LayerCount: 2
Fore
SplineSet
-9 0 m 1
 -4 10 l 1
 4 26 l 1
 6 32 l 1
 18 32 l 1
 94 32 l 2
 107 32 110 35 114 49 c 2
 282 672 l 2
 284 676 284 678 284 679 c 0
 282 680 280 680 278 680 c 2
 198 680 l 1
 178 680 l 1
 183 688 l 1
 191 701 l 1
 194 712 l 1
 206 712 l 1
 506 712 l 1
 525 712 l 1
 520 702 l 1
 512 686 l 1
 509 680 l 1
 498 680 l 1
 427 680 l 2
 415 680 411 678 408 664 c 2
 336 409 l 1
 589 607 l 2
 626 636 643 653 644 669 c 1
 644 672 635 680 607 680 c 2
 585 680 l 1
 567 680 l 1
 571 688 l 1
 579 701 l 1
 582 712 l 1
 593 712 l 1
 855 712 l 1
 874 712 l 1
 869 702 l 1
 861 686 l 1
 859 680 l 1
 847 680 l 2
 814 680 777 673 713 622 c 2
 488 440 l 1
 589 68 l 2
 599 38 605 32 646 32 c 2
 690 32 l 1
 710 32 l 1
 705 24 l 1
 697 11 l 1
 694 0 l 1
 682 0 l 1
 397 0 l 1
 379 0 l 1
 383 10 l 1
 391 26 l 1
 394 32 l 1
 405 32 l 1
 454 32 l 2
 467 32 473 36 473 46 c 0
 473 49 473 53 472 58 c 2
 392 347 l 1
 309 283 l 1
 239 40 l 2
 238 37 238 35 238 33 c 1
 239 32 241 32 243 32 c 2
 315 32 l 1
 333 32 l 1
 328 24 l 1
 320 11 l 1
 317 0 l 1
 306 0 l 1
 10 0 l 1
 -9 0 l 1
EndSplineSet
Validated: 5
Substitution2: "'c2sc' Capitales vers petites capitales lookup 1 subtable" k.sc
EndChar

StartChar: L
Encoding: 44 76 45
Width: 700
GlyphClass: 2
Flags: W
HStem: 0 32<6 113.628 240.093 485.655> 680 32<197 286.906 413.372 516>
AnchorPoint: "Anchor-2" 312 0 basechar 0
AnchorPoint: "Anchor-1" 350 782 basechar 0
AnchorPoint: "Anchor-0" 344 762 basechar 0
LayerCount: 2
Fore
SplineSet
-9 0 m 1
 -4 10 l 1
 4 26 l 1
 6 32 l 1
 18 32 l 1
 94 32 l 2
 107 32 110 35 114 49 c 2
 285 672 l 2
 287 676 287 678 287 679 c 0
 285 680 283 680 280 680 c 2
 200 680 l 1
 178 680 l 1
 184 688 l 1
 194 701 l 1
 197 712 l 1
 209 712 l 1
 513 712 l 1
 532 712 l 1
 527 702 l 1
 519 686 l 1
 516 680 l 1
 505 680 l 1
 432 680 l 2
 420 680 417 678 413 663 c 2
 242 40 l 2
 241 37 240 35 240 33 c 1
 242 32 243 32 246 32 c 2
 424 32 l 2
 448 32 497 44 535 80 c 0
 597 138 640 258 640 258 c 1
 643 268 l 1
 654 268 l 1
 678 268 l 1
 698 268 l 1
 692 249 l 1
 608 11 l 1
 605 0 l 1
 594 0 l 1
 10 0 l 1
 -9 0 l 1
EndSplineSet
Validated: 5
Substitution2: "'c2sc' Capitales vers petites capitales lookup 1 subtable" l.sc
EndChar

StartChar: M
Encoding: 45 77 46
Width: 900
GlyphClass: 2
Flags: W
HStem: -12 21G<344 394> 0 32<6 103.733 210.386 288 483 583.999 708 798> 680 32<194 293.907 876.37 983>
VStem: 345 116<201 259.941> 362 112<429.923 627>
AnchorPoint: "Anchor-2" 386 0 basechar 0
AnchorPoint: "Anchor-1" 592 782 basechar 0
AnchorPoint: "Anchor-0" 586 762 basechar 0
LayerCount: 2
Fore
SplineSet
-9 0 m 1x68
 -4 10 l 1
 4 26 l 1
 6 32 l 1
 18 32 l 1
 66 32 l 2
 101 32 130 68 144 119 c 2
 293 672 l 2
 294 676 294 678 294 679 c 0
 292 680 291 680 288 680 c 2
 197 680 l 1
 177 680 l 1
 182 688 l 1
 191 701 l 1
 194 712 l 1
 206 712 l 1
 460 712 l 1
 474 712 l 1
 474 697 l 1x68
 461 201 l 1
 563 392 l 1
 732 704 l 1
 736 712 l 1
 745 712 l 1
 979 712 l 1
 999 712 l 1
 994 702 l 1
 986 686 l 1
 983 680 l 1
 971 680 l 1
 895 680 l 2
 882 680 880 678 876 663 c 2
 709 40 l 2
 708 37 707 35 707 34 c 2
 707 34 708 33 708 33 c 2
 709 33 711 32 715 32 c 2
 794 32 l 1
 814 32 l 1
 809 24 l 1
 801 11 l 1
 798 0 l 1
 786 0 l 1
 486 0 l 1
 468 0 l 1
 473 10 l 1
 481 26 l 1
 483 32 l 1
 494 32 l 1
 565 32 l 2x70
 577 32 580 35 584 48 c 2
 740 602 l 1
 614 372 l 1
 394 -4 l 1
 390 -12 l 1
 382 -12 l 1
 359 -12 l 1
 344 -12 l 1
 345 3 l 1xb0
 362 627 l 1
 215 107 l 2
 211 93 209 80 208 69 c 0
 208 68 208 67 208 66 c 0
 208 43 215 32 240 32 c 2
 285 32 l 1
 303 32 l 1
 298 24 l 1
 290 11 l 1
 288 0 l 1
 277 0 l 1
 10 0 l 1
 -9 0 l 1x68
EndSplineSet
Validated: 1
Substitution2: "'c2sc' Capitales vers petites capitales lookup 1 subtable" m.sc
EndChar

StartChar: N
Encoding: 46 78 47
Width: 803
GlyphClass: 2
Flags: W
HStem: -18 21G<520 592> 0 32<6 103.576 210.953 288> 680 32<194 294.997 618 696.463 803.23 901>
AnchorPoint: "Anchor-2" 376 0 basechar 0
AnchorPoint: "Anchor-1" 546 782 basechar 0
AnchorPoint: "Anchor-0" 540 762 basechar 0
LayerCount: 2
Fore
SplineSet
-9 0 m 1x60
 -4 10 l 1
 4 26 l 1
 6 32 l 1
 18 32 l 1
 66 32 l 2x60
 100 32 131 69 144 119 c 2
 293 671 l 2
 294 675 295 678 295 679 c 0
 295 680 291 680 289 680 c 2
 198 680 l 1
 178 680 l 1
 183 688 l 1
 191 701 l 1
 194 712 l 1
 206 712 l 1
 394 712 l 1
 404 712 l 1
 407 702 l 1
 575 194 l 1
 692 605 l 2
 697 621 699 634 699 644 c 1
 699 645 699 646 699 646 c 2
 699 672 690 680 666 680 c 2
 621 680 l 1
 603 680 l 1
 607 688 l 1
 615 701 l 1
 618 712 l 1
 629 712 l 1
 897 712 l 1
 916 712 l 1
 911 702 l 1
 903 686 l 1
 901 680 l 1
 889 680 l 1
 841 680 l 2
 814 680 779 654 763 597 c 2
 592 -7 l 1
 589 -18 l 1
 577 -18 l 1
 535 -18 l 1
 524 -18 l 1xa0
 520 -8 l 1
 340 546 l 1
 215 107 l 2
 211 93 209 79 209 68 c 0
 209 67 209 65 209 64 c 0
 209 42 215 32 241 32 c 2
 286 32 l 1
 304 32 l 1
 299 24 l 1
 291 11 l 1
 288 0 l 1
 277 0 l 1
 10 0 l 1
 -9 0 l 1x60
EndSplineSet
Validated: 5
Substitution2: "'c2sc' Capitales vers petites capitales lookup 1 subtable" n.sc
EndChar

StartChar: O
Encoding: 47 79 48
Width: 717
GlyphClass: 2
Flags: W
HStem: -18 62<255.905 389.866> 668 62<408.063 542.095>
VStem: 92 122<131.775 360.576> 584 122<349.532 578.649>
AnchorPoint: "Anchor-2" 310 0 basechar 0
AnchorPoint: "Anchor-1" 500 782 basechar 0
AnchorPoint: "Anchor-0" 494 762 basechar 0
LayerCount: 2
Fore
SplineSet
263 454 m 0
 220 344 215 232 214 200 c 0
 214 196 214 192 214 188 c 0
 214 87 253 44 316 44 c 0
 428 44 499 167 535 258 c 0
 578 368 583 480 584 512 c 0
 584 516 584 520 584 524 c 0
 584 625 545 668 482 668 c 0
 370 668 298 545 263 454 c 0
306 -18 m 0
 170 -18 92 109 92 252 c 0
 92 518 300 730 492 730 c 0
 628 730 706 601 706 458 c 0
 706 192 498 -18 306 -18 c 0
EndSplineSet
Validated: 1
Substitution2: "'c2sc' Capitales vers petites capitales lookup 1 subtable" o.sc
EndChar

StartChar: P
Encoding: 48 80 49
Width: 677
GlyphClass: 2
Flags: W
HStem: 0 32<6 113.628 240.002 355> 313 62<334 510.233> 680 32<197 285.952 412.372 577.925>
VStem: 605 124<482.948 631.589>
AnchorPoint: "Anchor-2" 180 0 basechar 0
AnchorPoint: "Anchor-1" 458 782 basechar 0
AnchorPoint: "Anchor-0" 452 762 basechar 0
LayerCount: 2
Fore
SplineSet
-9 0 m 1
 -4 10 l 1
 4 26 l 1
 6 32 l 1
 18 32 l 1
 94 32 l 2
 107 32 110 35 114 49 c 2
 285 672 l 2
 286 676 286 678 286 679 c 0
 285 680 283 680 280 680 c 2
 199 680 l 1
 178 680 l 1
 184 688 l 1
 193 701 l 1
 197 712 l 1
 209 712 l 1
 556 712 l 2
 651 712 729 653 729 545 c 0
 729 421 605 313 421 313 c 2
 315 313 l 1
 241 41 l 2
 241 37 240 35 240 33 c 0
 240 32 243 32 245 32 c 2
 352 32 l 1
 371 32 l 1
 366 24 l 1
 358 11 l 1
 355 0 l 1
 344 0 l 1
 10 0 l 1
 -9 0 l 1
412 663 m 2
 334 375 l 1
 443 375 l 2
 487 375 534 401 564 444 c 0
 589 481 604 535 605 582 c 0
 605 584 605 586 605 588 c 0
 605 658 571 680 534 680 c 2
 431 680 l 2
 419 680 416 678 412 663 c 2
EndSplineSet
Validated: 1
Substitution2: "'c2sc' Capitales vers petites capitales lookup 1 subtable" p.sc
EndChar

StartChar: Q
Encoding: 49 81 50
Width: 717
GlyphClass: 2
Flags: W
HStem: -184 82<389.5 490.343> -18 62<287.259 318.87> 155 28<290.315 337.451> 668 62<410.332 541.877>
VStem: 92 121<131.775 348.91> 309 116<-98.9709 -18.0625> 584 122<331.89 578.834>
AnchorPoint: "Anchor-2" 176 0 basechar 0
AnchorPoint: "Anchor-1" 500 782 basechar 0
AnchorPoint: "Anchor-0" 494 762 basechar 0
LayerCount: 2
Fore
SplineSet
482 668 m 0
 337 668 218 437 214 177 c 0
 213 173 213 169 213 166 c 0
 213 131 218 103 224 83 c 1
 233 158 284 183 329 183 c 0
 386 183 416 128 424 59 c 1
 520 146 580 319 583 505 c 0
 584 509 584 513 584 517 c 0
 584 623 544 668 482 668 c 0
306 -18 m 0
 170 -18 92 109 92 252 c 0
 92 518 300 730 492 730 c 0
 628 730 706 603 706 456 c 0
 706 222 545 56 426 10 c 1
 425 -24 l 2
 425 -29 425 -33 425 -38 c 0
 425 -72 430 -102 452 -102 c 0
 489 -102 518 -47 535 9 c 2
 539 24 l 1
 555 19 l 1
 581 12 l 1
 595 8 l 1
 592 -5 l 2
 555 -151 477 -184 418 -184 c 0
 361 -184 309 -151 309 -80 c 0
 309 -79 309 -77 310 -76 c 0
 310 -61 313 -42 318 -22 c 2
 319 -18 l 1
 314 -18 311 -18 306 -18 c 0
315 155 m 0
 297 155 281 143 280 97 c 0
 280 96 280 94 280 93 c 0
 280 54 296 44 315 44 c 0
 321 44 329 45 335 46 c 1
 341 73 l 2
 343 81 344 86 344 96 c 0
 344 99 344 101 344 104 c 0
 344 132 340 155 315 155 c 0
EndSplineSet
Validated: 1
Substitution2: "'c2sc' Capitales vers petites capitales lookup 1 subtable" q.sc
EndChar

StartChar: R
Encoding: 50 82 51
Width: 730
GlyphClass: 2
Flags: W
HStem: -12 82<532.5 622.224> 0 32<6 113.628 240 343> 341 62<341 476.575> 680 32<195 286 412.284 560.192>
VStem: 458 118<70.3428 196.875> 497 104<187.467 318.449> 587 114<482.672 638.426>
AnchorPoint: "Anchor-2" 336 0 basechar 0
AnchorPoint: "Anchor-1" 458 782 basechar 0
AnchorPoint: "Anchor-0" 452 762 basechar 0
LayerCount: 2
Fore
SplineSet
-9 0 m 1x74
 -4 10 l 1
 4 26 l 1
 6 32 l 1
 18 32 l 1
 94 32 l 2
 107 32 110 35 114 49 c 2
 284 671 l 2
 285 675 286 678 286 680 c 1
 284 680 282 680 280 680 c 2
 199 680 l 1
 179 680 l 1
 184 688 l 1
 192 701 l 1
 195 712 l 1
 208 712 l 1
 526 712 l 2
 635 712 701 657 701 550 c 0
 701 548 701 545 701 543 c 0x72
 699 458 622 389 537 363 c 1
 567 342 601 303 601 234 c 0
 601 232 601 230 601 228 c 0x74
 599 179 577 118 576 86 c 2
 576 86 576 85 576 85 c 2
 576 74 579 70 588 70 c 0
 625 70 649 136 662 181 c 2
 666 195 l 1
 681 191 l 1
 706 184 l 1
 720 180 l 1
 716 166 l 2
 703 121 673 -12 557 -12 c 0
 508 -12 458 12 458 87 c 0
 458 88 458 90 458 92 c 0xb8
 460 162 496 239 497 280 c 0
 497 281 497 282 497 283 c 0
 497 308 489 322 477 331 c 0
 468 337 455 341 441 341 c 2
 323 341 l 1
 241 41 l 2
 240 37 240 35 240 33 c 2
 240 33 240 32 240 32 c 1
 241 32 243 32 245 32 c 2
 341 32 l 1
 359 32 l 1
 354 24 l 1
 346 11 l 1
 343 0 l 1
 332 0 l 1
 10 0 l 1
 -9 0 l 1x74
412 663 m 2
 341 403 l 1
 438 403 l 2
 526 403 584 465 587 584 c 0
 587 586 587 588 587 590 c 0
 587 654 560 680 507 680 c 2
 431 680 l 2
 419 680 415 678 412 663 c 2
EndSplineSet
Validated: 1
Substitution2: "'c2sc' Capitales vers petites capitales lookup 1 subtable" r.sc
EndChar

StartChar: S
Encoding: 51 83 52
Width: 639
GlyphClass: 2
Flags: W
HStem: -18 62<262.291 433.322> -10 21G<31 88> 668 62<325.097 468.506> 702 20G<607 663>
VStem: 180 91<495.692 612.547> 488 98<106.083 221.37> 547 51<432 444> 607 52<690.552 722>
AnchorPoint: "Anchor-2" 282 0 basechar 0
AnchorPoint: "Anchor-1" 431 782 basechar 0
AnchorPoint: "Anchor-0" 425 762 basechar 0
LayerCount: 2
Fore
SplineSet
31 -10 m 1x4d
 36 9 l 1
 116 325 l 1
 119 336 l 1
 130 336 l 1
 153 336 l 1
 173 336 l 1
 169 318 l 2
 166 301 164 284 164 268 c 0
 164 144 243 44 330 44 c 0
 435 44 488 84 488 162 c 1
 488 210 461 233 417 261 c 2
 306 329 l 2
 230 373 180 420 180 514 c 0
 180 663 294 730 424 730 c 0
 484 730 538 686 556 668 c 0xad
 567 656 570 656 573 656 c 0
 581 656 601 688 607 711 c 2
 610 722 l 1
 621 722 l 1
 644 722 l 1
 663 722 l 1
 659 704 l 1
 601 444 l 1
 598 432 l 1x1b
 586 432 l 1x1d
 563 432 l 1
 547 432 l 1x1b
 548 448 l 2
 548 451 548 454 548 457 c 0
 548 459 548 460 548 462 c 0
 548 552 490 668 413 668 c 0
 314 668 271 609 271 555 c 1
 271 496 319 467 362 443 c 2
 452 390 l 2
 530 344 586 302 586 203 c 0
 586 69 485 -18 321 -18 c 0xad
 222 -18 155 47 145 57 c 0
 132 70 125 73 125 73 c 1
 117 72 95 24 88 1 c 2
 84 -10 l 1
 73 -10 l 1
 50 -10 l 1
 31 -10 l 1x4d
EndSplineSet
Validated: 5
Substitution2: "'c2sc' Capitales vers petites capitales lookup 1 subtable" s.sc
EndChar

StartChar: T
Encoding: 52 84 53
Width: 699
GlyphClass: 2
Flags: W
HStem: 0 32<132 289.625 418 486> 680 32<343.768 464 591.141 659.087>
VStem: 115 60<429 447> 648 56<429 449>
AnchorPoint: "Anchor-2" 278 0 basechar 0
AnchorPoint: "Anchor-1" 484 782 basechar 0
AnchorPoint: "Anchor-0" 478 762 basechar 0
LayerCount: 2
Fore
SplineSet
116 0 m 1
 121 10 l 1
 129 26 l 1
 132 32 l 1
 147 32 l 1
 267 32 l 2
 282 32 286 35 290 49 c 2
 463 672 l 2
 464 676 464 678 464 680 c 1
 462 680 461 680 458 680 c 2
 415 680 l 2
 357 680 303 644 284 628 c 0
 216 570 180 459 175 443 c 1
 175 429 l 1
 160 429 l 1
 135 429 l 1
 115 429 l 1
 121 447 l 1
 201 701 l 1
 204 712 l 1
 215 712 l 1
 755 712 l 1
 774 712 l 1
 770 694 l 1
 707 440 l 1
 704 429 l 1
 692 429 l 1
 667 429 l 1
 648 429 l 1
 653 449 l 1
 653 449 665 500 671 556 c 0
 673 571 674 585 674 597 c 0
 674 669 647 680 629 680 c 2
 607 680 l 2
 597 680 594 676 591 664 c 1
 591 663 l 1
 419 41 l 2
 418 36 418 35 418 33 c 2
 418 33 418 32 418 32 c 1
 419 32 420 32 421 32 c 2
 487 32 l 1
 500 32 l 1
 496 24 l 1
 489 11 l 1
 486 0 l 1
 479 0 l 1
 139 0 l 1
 116 0 l 1
EndSplineSet
Validated: 5
Substitution2: "'c2sc' Capitales vers petites capitales lookup 1 subtable" t.sc
EndChar

StartChar: U
Encoding: 53 85 54
Width: 799
GlyphClass: 2
Flags: W
HStem: -18 62<297.537 464.769> 680 32<171 255.997 381.001 483 612 691.181 798.846 896>
VStem: 133 114<96.9213 263.438>
AnchorPoint: "Anchor-2" 344 0 basechar 0
AnchorPoint: "Anchor-1" 550 782 basechar 0
AnchorPoint: "Anchor-0" 544 762 basechar 0
LayerCount: 2
Fore
SplineSet
367 -18 m 0
 211 -18 133 78 133 191 c 0
 133 212 138 235 143 257 c 2
 255 672 l 2
 256 675 256 678 256 679 c 0
 256 680 252 680 250 680 c 2
 174 680 l 1
 155 680 l 1
 160 688 l 1
 168 701 l 1
 171 712 l 1
 182 712 l 1
 481 712 l 1
 499 712 l 1
 494 702 l 1
 486 686 l 1
 483 680 l 1
 472 680 l 1
 400 680 l 2
 387 680 385 678 381 664 c 2
 256 222 l 2
 251 202 247 185 247 169 c 0
 247 167 247 166 247 164 c 0
 247 87 297 44 376 44 c 0
 492 44 551 130 575 217 c 2
 688 607 l 2
 690 617 694 638 694 645 c 1
 694 646 694 646 694 647 c 0
 694 664 689 680 660 680 c 2
 615 680 l 1
 596 680 l 1
 601 688 l 1
 609 701 l 1
 612 712 l 1
 623 712 l 1
 893 712 l 1
 912 712 l 1
 907 702 l 1
 899 686 l 1
 896 680 l 1
 885 680 l 1
 837 680 l 2
 805 680 772 647 758 597 c 2
 649 219 l 2
 612 91 535 -18 367 -18 c 0
EndSplineSet
Validated: 5
Substitution2: "'c2sc' Capitales vers petites capitales lookup 1 subtable" u.sc
EndChar

StartChar: V
Encoding: 54 86 55
Width: 750
GlyphClass: 2
Flags: W
HStem: -18 21G<239 288> 680 32<160 254.091 369.723 469 556 626.643 751.921 858>
VStem: 257 112<396.056 679.551>
AnchorPoint: "Anchor-2" 278 0 basechar 0
AnchorPoint: "Anchor-1" 502 782 basechar 0
AnchorPoint: "Anchor-0" 496 762 basechar 0
LayerCount: 2
Fore
SplineSet
144 680 m 1
 149 688 l 1
 157 701 l 1
 160 712 l 1
 172 712 l 1
 467 712 l 1
 485 712 l 1
 480 702 l 1
 472 686 l 1
 469 680 l 1
 458 680 l 1
 391 680 l 2
 371 680 369 674 369 648 c 2
 357 204 l 1
 588 559 l 2
 612 597 627 626 628 653 c 2
 628 653 628 654 628 654 c 2
 628 670 620 680 601 680 c 2
 559 680 l 1
 541 680 l 1
 545 688 l 1
 553 701 l 1
 556 712 l 1
 568 712 l 1
 854 712 l 1
 874 712 l 1
 869 702 l 1
 861 686 l 1
 858 680 l 1
 846 680 l 1
 807 680 l 2
 760 680 719 646 700 614 c 2
 288 -11 l 1
 284 -18 l 1
 276 -18 l 1
 252 -18 l 1
 239 -18 l 1
 239 -3 l 1
 257 650 l 1
 253 678 246 680 224 680 c 2
 164 680 l 1
 144 680 l 1
EndSplineSet
Validated: 1
Substitution2: "'c2sc' Capitales vers petites capitales lookup 1 subtable" v.sc
EndChar

StartChar: W
Encoding: 55 87 56
Width: 1043
GlyphClass: 2
Flags: W
HStem: -18 21G<235 284 573 622> 680 32<160 250.198 363.312 457 511 590.266 708.13 800 854 926.547 1049.87 1151>
VStem: 253 110<396.056 679.717> 591 110<393.417 480 572.253 677.669>
AnchorPoint: "Anchor-2" 468 0 basechar 0
AnchorPoint: "Anchor-1" 674 782 basechar 0
AnchorPoint: "Anchor-0" 668 762 basechar 0
LayerCount: 2
Fore
SplineSet
144 680 m 1
 149 688 l 1
 157 701 l 1
 160 712 l 1
 172 712 l 1
 455 712 l 1
 473 712 l 1
 468 702 l 1
 460 686 l 1
 457 680 l 1
 446 680 l 1
 383 680 l 2
 363 680 363 675 363 648 c 2
 351 212 l 1
 562 559 l 2
 588 600 591 636 591 651 c 0
 591 652 591 653 591 654 c 0
 591 678 583 680 562 680 c 2
 514 680 l 1
 496 680 l 1
 500 688 l 1
 508 701 l 1
 511 712 l 1
 522 712 l 1
 798 712 l 1
 816 712 l 1
 811 702 l 1
 803 686 l 1
 800 680 l 1
 790 680 l 1
 736 680 l 2
 714 680 701 664 701 632 c 2
 689 223 l 1
 895 554 l 2
 912 581 930 619 930 651 c 1
 930 663 919 680 908 680 c 2
 857 680 l 1
 839 680 l 1
 843 688 l 1
 851 701 l 1
 854 712 l 1
 865 712 l 1
 1148 712 l 1
 1167 712 l 1
 1162 702 l 1
 1154 686 l 1
 1151 680 l 1
 1140 680 l 1
 1096 680 l 2
 1054 680 1026 647 1006 612 c 2
 622 -11 l 1
 618 -18 l 1
 610 -18 l 1
 587 -18 l 1
 573 -18 l 1
 573 -3 l 1
 586 480 l 1
 284 -11 l 1
 280 -18 l 1
 272 -18 l 1
 249 -18 l 1
 235 -18 l 1
 235 -3 l 1
 253 650 l 1
 249 679 243 680 221 680 c 2
 164 680 l 1
 144 680 l 1
EndSplineSet
Validated: 1
Substitution2: "'c2sc' Capitales vers petites capitales lookup 1 subtable" w.sc
EndChar

StartChar: X
Encoding: 56 88 57
Width: 830
GlyphClass: 2
Flags: W
HStem: 0 32<31 141.549 280.118 346 429 521.996 649.374 755> 680 32<173 290.267 417.721 491 573 642.836 772.443 882>
AnchorPoint: "Anchor-2" 376 0 basechar 0
AnchorPoint: "Anchor-1" 542 782 basechar 0
AnchorPoint: "Anchor-0" 536 762 basechar 0
LayerCount: 2
Fore
SplineSet
13 0 m 1
 18 10 l 1
 27 26 l 1
 31 32 l 1
 42 32 l 1
 85 32 l 2
 135 32 170 63 207 107 c 2
 411 347 l 1
 302 637 l 2
 289 671 288 680 248 680 c 2
 177 680 l 1
 157 680 l 1
 162 688 l 1
 170 701 l 1
 173 712 l 1
 185 712 l 1
 488 712 l 1
 506 712 l 1
 502 702 l 1
 494 686 l 1
 491 680 l 1
 480 680 l 1
 438 680 l 2
 430 680 417 670 417 660 c 0
 417 657 417 655 419 651 c 2
 496 459 l 1
 628 607 l 2
 639 620 643 631 644 653 c 0
 644 654 644 654 644 655 c 0
 644 673 635 680 611 680 c 2
 576 680 l 1
 558 680 l 1
 562 688 l 1
 570 701 l 1
 573 712 l 1
 584 712 l 1
 878 712 l 1
 897 712 l 1
 892 702 l 1
 884 686 l 1
 882 680 l 1
 870 680 l 1
 834 680 l 2
 801 680 763 668 732 631 c 2
 521 379 l 1
 643 61 l 2
 655 32 662 32 687 32 c 2
 751 32 l 1
 771 32 l 1
 766 24 l 1
 758 11 l 1
 755 0 l 1
 742 0 l 1
 431 0 l 1
 413 0 l 1
 418 10 l 1
 426 26 l 1
 429 32 l 1
 440 32 l 1
 500 32 l 2
 516 32 522 39 522 47 c 0
 522 50 522 54 520 59 c 2
 437 267 l 1
 303 115 l 2
 283 93 280 82 279 59 c 0
 279 58 279 58 279 57 c 0
 279 34 295 32 313 32 c 2
 345 32 l 1
 364 32 l 1
 358 24 l 1
 349 11 l 1
 346 0 l 1
 336 0 l 1
 33 0 l 1
 13 0 l 1
EndSplineSet
Validated: 1
Substitution2: "'c2sc' Capitales vers petites capitales lookup 1 subtable" x.sc
EndChar

StartChar: Y
Encoding: 57 89 58
Width: 731
GlyphClass: 2
Flags: W
HStem: 0 32<122 240.999 366 469> 680 32<137 242.145 362.729 462 548 621.696 741.472 849>
AnchorPoint: "Anchor-2" 278 0 basechar 0
AnchorPoint: "Anchor-1" 496 782 basechar 0
AnchorPoint: "Anchor-0" 490 762 basechar 0
LayerCount: 2
Fore
SplineSet
107 0 m 1
 112 10 l 1
 120 26 l 1
 122 32 l 1
 133 32 l 1
 223 32 l 2
 234 32 237 34 241 48 c 2
 314 316 l 1
 249 645 l 2
 240 677 234 680 214 680 c 2
 140 680 l 1
 121 680 l 1
 126 688 l 1
 134 701 l 1
 137 712 l 1
 148 712 l 1
 458 712 l 1
 479 712 l 1
 474 702 l 1
 465 686 l 1
 462 680 l 1
 450 680 l 1
 390 680 l 2
 370 680 362 667 362 660 c 0
 362 658 362 656 363 654 c 2
 363 653 l 1
 363 651 l 1
 421 402 l 1
 434 416 l 1
 576 578 l 2
 595 601 622 633 622 656 c 0
 622 657 622 658 622 659 c 0
 622 671 619 680 591 680 c 2
 551 680 l 1
 531 680 l 1
 536 688 l 1
 545 701 l 1
 548 712 l 1
 559 712 l 1
 846 712 l 1
 865 712 l 1
 860 702 l 1
 852 686 l 1
 849 680 l 1
 838 680 l 1
 791 680 l 2
 748 680 710 642 683 609 c 2
 479 362 l 1
 444 320 l 1
 368 39 l 1
 367 36 366 33 366 32 c 1
 368 32 369 32 371 32 c 2
 466 32 l 1
 485 32 l 1
 480 24 l 1
 472 11 l 1
 469 0 l 1
 458 0 l 1
 125 0 l 1
 107 0 l 1
EndSplineSet
Validated: 5
Substitution2: "'c2sc' Capitales vers petites capitales lookup 1 subtable" y.sc
EndChar

StartChar: Z
Encoding: 58 90 59
Width: 688
GlyphClass: 2
Flags: W
HStem: 0 32<203 460.135> 680 32<328.382 541>
VStem: 116 62<480 500>
AnchorPoint: "Anchor-2" 278 0 basechar 0
AnchorPoint: "Anchor-1" 434 782 basechar 0
AnchorPoint: "Anchor-0" 428 762 basechar 0
LayerCount: 2
Fore
SplineSet
38 0 m 1
 42 19 l 1
 50 50 l 1
 51 53 l 1
 53 55 l 1
 541 680 l 1
 397 680 l 2
 346 680 307 660 254 607 c 0
 202 556 181 502 178 493 c 2
 178 480 l 1
 162 480 l 1
 137 480 l 1
 116 480 l 1
 123 500 l 1
 210 702 l 1
 214 712 l 1
 225 712 l 1
 681 712 l 1
 700 712 l 1
 696 693 l 1
 688 661 l 1
 687 658 l 1
 685 656 l 1
 203 32 l 1
 387 32 l 2
 416 32 456 36 500 75 c 0
 570 133 616 258 616 258 c 1
 619 268 l 1
 630 268 l 1
 655 268 l 1
 676 268 l 1
 669 248 l 1
 583 10 l 1
 580 0 l 1
 568 0 l 1
 57 0 l 1
 38 0 l 1
EndSplineSet
Validated: 1
Substitution2: "'c2sc' Capitales vers petites capitales lookup 1 subtable" z.sc
EndChar

StartChar: bracketleft
Encoding: 59 91 60
Width: 372
GlyphClass: 2
Flags: W
HStem: -213 60<120 239> 667 60<332.609 479>
LayerCount: 2
Fore
SplineSet
3 -194 m 1
 251 716 l 1
 254 727 l 1
 266 727 l 1
 476 727 l 1
 495 727 l 1
 490 708 l 1
 482 678 l 1
 479 667 l 1
 468 667 l 1
 349 667 l 2
 335 665 340 668 336 658 c 2
 119 -140 l 2
 119 -142 118 -145 118 -147 c 0
 118 -154 120 -153 120 -153 c 1
 236 -153 l 1
 255 -153 l 1
 250 -172 l 1
 242 -202 l 1
 239 -213 l 1
 228 -213 l 1
 18 -213 l 1
 -2 -213 l 1
 3 -194 l 1
EndSplineSet
Validated: 1
EndChar

StartChar: backslash
Encoding: 60 92 61
Width: 404
GlyphClass: 2
Flags: W
LayerCount: 2
Fore
SplineSet
87 745 m 1
 127 745 l 1
 138 745 l 1
 141 735 l 1
 399 -193 l 1
 406 -213 l 1
 385 -213 l 1
 345 -213 l 1
 334 -213 l 1
 331 -203 l 1
 73 725 l 1
 67 745 l 1
 87 745 l 1
EndSplineSet
Validated: 1
EndChar

StartChar: bracketright
Encoding: 61 93 62
Width: 361
GlyphClass: 2
Flags: W
HStem: -213 60<-88 58.3906> 667 60<152 271>
LayerCount: 2
Fore
SplineSet
-99 -194 m 1
 -91 -164 l 1
 -88 -153 l 1
 -77 -153 l 1
 42 -153 l 2
 56 -151 51 -154 55 -144 c 2
 272 654 l 2
 272 656 273 659 273 661 c 0
 273 668 271 667 271 667 c 1
 155 667 l 1
 136 667 l 1
 141 686 l 1
 149 716 l 1
 152 727 l 1
 163 727 l 1
 373 727 l 1
 393 727 l 1
 388 708 l 1
 140 -202 l 1
 137 -213 l 1
 125 -213 l 1
 -85 -213 l 1
 -104 -213 l 1
 -99 -194 l 1
EndSplineSet
Validated: 1
EndChar

StartChar: asciicircum
Encoding: 62 94 63
Width: 543
GlyphClass: 2
Flags: W
HStem: 708 20G<304 327>
LayerCount: 2
Fore
SplineSet
78 344 m 1
 304 708 l 1
 316 728 l 1
 327 708 l 1
 532 344 l 1
 547 321 l 1
 520 321 l 1
 472 321 l 1
 463 321 l 1
 459 328 l 1
 313 594 l 1
 151 328 l 1
 147 321 l 1
 139 321 l 1
 91 321 l 1
 64 321 l 1
 78 344 l 1
EndSplineSet
Validated: 1
EndChar

StartChar: underscore
Encoding: 63 95 64
Width: 490
GlyphClass: 2
Flags: W
HStem: -173 70<-41 461>
LayerCount: 2
Fore
SplineSet
-54 -154 m 1
 -44 -114 l 1
 -41 -103 l 1
 -30 -103 l 1
 459 -103 l 1
 478 -103 l 1
 474 -122 l 1
 464 -162 l 1
 461 -173 l 1
 449 -173 l 1
 -40 -173 l 1
 -59 -173 l 1
 -54 -154 l 1
EndSplineSet
Validated: 1
EndChar

StartChar: grave
Encoding: 64 715 65
AltUni2: 000060.ffffffff.0
Width: 399
GlyphClass: 2
Flags: W
HStem: 492 189
VStem: 214 95<635 671.99>
LayerCount: 2
Fore
SplineSet
315 496 m 1
 231 593 l 2
 220 605 214 621 214 635 c 0
 214 647 222 681 260 681 c 0
 287 681 300 663 309 635 c 2
 349 516 l 1
 351 512 l 1
 352 508 l 1
 349 506 l 1
 345 504 l 1
 328 494 l 1
 325 492 l 1
 321 490 l 1
 318 493 l 1
 315 496 l 1
EndSplineSet
Validated: 1
EndChar

StartChar: a
Encoding: 65 97 66
Width: 559
GlyphClass: 2
Flags: W
HStem: -12 64<392 426.24> -12 54<148.901 222.216> 402 54<257.732 338.903> 424 20G<404 498>
VStem: 43 101<44.5715 217.554>
AnchorPoint: "Anchor-2" 212 0 basechar 0
AnchorPoint: "Anchor-1" 328 528 basechar 0
AnchorPoint: "Anchor-0" 322 508 basechar 0
LayerCount: 2
Fore
SplineSet
164 -12 m 0x48
 87 -12 43 50 43 131 c 0
 43 220 79 298 104 336 c 0
 150 405 225 456 301 456 c 0x68
 336 456 372 437 392 395 c 1
 404 433 l 1
 407 444 l 1
 419 444 l 1
 479 444 l 1
 498 444 l 1
 493 426 l 1
 406 134 l 2
 402 120 391 82 391 63 c 0
 391 57 392 53 392 52 c 1
 393 52 393 52 394 52 c 0x98
 419 52 461 109 492 202 c 2
 497 216 l 1
 510 211 l 1
 530 205 l 1
 545 201 l 1
 540 186 l 2
 513 106 462 -12 374 -12 c 0
 315 -12 305 47 303 82 c 1
 273 40 224 -12 164 -12 c 0x48
203 307 m 0
 168 241 145 159 144 96 c 0
 144 94 144 93 144 91 c 0
 144 63 153 42 172 42 c 0
 212 42 258 87 296 161 c 0
 323 213 348 290 349 331 c 0
 349 333 349 334 349 336 c 0
 349 384 328 402 299 402 c 0
 266 402 226 350 203 307 c 0
EndSplineSet
Validated: 1
Substitution2: "'smcp' Bas-de-casse vers petites capitales lookup 0 subtable" a.sc
EndChar

StartChar: b
Encoding: 66 98 67
Width: 501
GlyphClass: 2
Flags: W
HStem: -12 54<174.476 261.181> 402 54<303.047 377.421> 658 54<121 219>
VStem: 76 90<50.5977 209.375> 385 102<222.637 394.241>
AnchorPoint: "Anchor-2" 196 0 basechar 0
AnchorPoint: "Anchor-1" 372 528 basechar 0
LayerCount: 2
Fore
SplineSet
226 293 m 0
 192 237 168 167 166 115 c 0
 166 112 166 108 166 104 c 0
 166 76 171 42 213 42 c 0
 254 42 292 91 319 134 c 0
 358 194 385 266 385 339 c 0
 385 340 385 341 385 342 c 0
 385 373 372 402 359 402 c 0
 321 402 268 364 226 293 c 0
197 -12 m 0
 131 -12 76 46 76 140 c 0
 76 141 76 143 76 144 c 0
 76 160 77 177 83 195 c 2
 218 655 l 2
 219 657 219 658 219 658 c 1
 218 658 219 658 217 658 c 2
 125 658 l 1
 105 658 l 1
 111 677 l 1
 118 701 l 1
 121 712 l 1
 132 712 l 1
 320 712 l 1
 341 712 l 1
 335 693 l 1
 241 396 l 1
 276 431 319 456 369 456 c 0
 452 456 487 372 487 305 c 0
 487 217 426 106 372 52 c 1
 322 11 267 -12 197 -12 c 0
EndSplineSet
Validated: 1
Substitution2: "'smcp' Bas-de-casse vers petites capitales lookup 0 subtable" b.sc
EndChar

StartChar: c
Encoding: 67 99 68
Width: 459
GlyphClass: 2
Flags: W
HStem: -12 54<162.297 278.18> 402 54<269.038 351.385>
VStem: 52 101<70.9137 233.982> 307 128<279.984 356.464>
AnchorPoint: "Anchor-2" 180 0 basechar 0
AnchorPoint: "Anchor-1" 320 528 basechar 0
AnchorPoint: "Anchor-0" 314 508 basechar 0
LayerCount: 2
Fore
SplineSet
199 -12 m 0
 107 -12 52 72 52 162 c 0
 52 238 81 319 144 381 c 0
 193 425 252 456 326 456 c 0
 372 456 435 427 435 341 c 1
 435 295 404 256 363 256 c 0
 326 256 307 286 307 309 c 0
 308 341 331 361 346 373 c 0
 351 377 351 380 352 387 c 0
 351 389 348 402 321 402 c 0
 257 402 207 309 181 251 c 0
 164 210 154 135 154 108 c 0
 153 106 153 105 153 104 c 0
 153 54 180 42 206 42 c 0
 305 42 355 152 363 175 c 2
 368 189 l 1
 382 184 l 1
 403 177 l 1
 418 172 l 1
 413 158 l 2
 382 69 308 -12 199 -12 c 0
EndSplineSet
Validated: 1
Substitution2: "'smcp' Bas-de-casse vers petites capitales lookup 0 subtable" c.sc
EndChar

StartChar: d
Encoding: 68 100 69
Width: 554
GlyphClass: 2
Flags: W
HStem: -12 64<388.001 422.043> -12 54<148.895 221.684> 402 54<256.72 338.393> 658 54<375 466>
VStem: 42 102<44.5715 216.46> 302 86<52.5469 82>
AnchorPoint: "Anchor-2" 212 0 basechar 0
AnchorPoint: "Anchor-1" 286 528 basechar 0
LayerCount: 2
Fore
SplineSet
203 307 m 0x7c
 167 241 144 159 144 96 c 0
 144 94 144 93 144 91 c 0
 144 63 153 42 172 42 c 0
 211 42 257 87 295 161 c 0
 321 213 347 290 348 331 c 0
 348 333 348 334 348 336 c 0
 348 384 327 402 298 402 c 0
 265 402 225 350 203 307 c 0x7c
164 -12 m 0
 87 -12 42 50 42 131 c 0
 42 221 91 306 116 343 c 0
 163 414 239 456 305 456 c 0
 340 456 373 435 390 398 c 1
 466 654 l 2
 466 656 466 657 466 658 c 1
 466 658 465 658 465 658 c 1
 378 658 l 1
 358 658 l 1
 364 677 l 1
 371 701 l 1
 375 712 l 1
 386 712 l 1
 552 712 l 1
 571 712 l 1
 566 693 l 1
 404 136 l 2
 399 122 389 83 388 63 c 0
 388 57 389 53 390 52 c 2
 390 52 391 52 392 52 c 0xbc
 416 52 462 111 492 202 c 2
 496 216 l 1
 510 211 l 1
 530 205 l 1
 546 201 l 1
 540 186 l 2
 512 106 462 -12 372 -12 c 0
 314 -12 303 47 302 82 c 1
 272 40 224 -12 164 -12 c 0
EndSplineSet
Validated: 1
Substitution2: "'smcp' Bas-de-casse vers petites capitales lookup 0 subtable" d.sc
EndChar

StartChar: e
Encoding: 69 101 70
Width: 446
GlyphClass: 2
Flags: W
HStem: -12 54<162.297 278.831> 402 54<269.466 347.009>
VStem: 52 101<70.9137 201.509> 349 77<299.225 400.546>
AnchorPoint: "Anchor-2" 182 0 basechar 0
AnchorPoint: "Anchor-1" 318 528 basechar 0
AnchorPoint: "Anchor-0" 312 508 basechar 0
LayerCount: 2
Fore
SplineSet
199 -12 m 0
 107 -12 52 72 52 162 c 0
 52 238 81 319 144 381 c 0
 193 425 260 456 326 456 c 0
 373 456 426 433 426 364 c 1
 426 304 379 261 317 234 c 0
 263 213 205 207 165 204 c 1
 160 180 154 141 154 108 c 0
 154 107 153 106 153 104 c 0
 153 54 180 42 206 42 c 0
 307 42 355 152 363 175 c 2
 368 189 l 1
 382 184 l 1
 403 177 l 1
 418 172 l 1
 413 158 l 2
 382 69 309 -12 199 -12 c 0
199 293 m 0
 195 285 186 258 181 242 c 1
 213 244 249 250 284 264 c 0
 321 279 348 315 349 363 c 0
 349 364 349 366 349 367 c 0
 349 398 337 402 325 402 c 0
 275 402 219 342 199 293 c 0
EndSplineSet
Validated: 5
Substitution2: "'smcp' Bas-de-casse vers petites capitales lookup 0 subtable" e.sc
EndChar

StartChar: f
Encoding: 70 102 71
Width: 368
GlyphClass: 2
Flags: W
HStem: -238 21G<-35 64> 386 58<56 151 277 376> 666 54<370.284 444.31>
VStem: 445 82<611.5 665.439>
AnchorPoint: "Anchor-2" 224 0 basechar 0
AnchorPoint: "Anchor-1" 404 778 basechar 0
AnchorPoint: "Anchor-0" 396 752 basechar 0
LayerCount: 2
Fore
SplineSet
-35 -238 m 1
 -30 -219 l 1
 151 386 l 1
 62 386 l 1
 43 386 l 1
 47 404 l 1
 53 432 l 1
 56 444 l 1
 68 444 l 1
 168 444 l 1
 178 472 l 2
 188 507 217 563 233 589 c 0
 264 634 319 703 404 718 c 0
 413 719 422 720 431 720 c 0
 486 720 527 681 527 633 c 0
 527 590 499 556 461 556 c 0
 432 556 413 577 413 604 c 0
 413 624 423 639 435 648 c 2
 436 649 l 1
 437 649 l 1
 445 653 445 656 445 658 c 0
 445 662 443 666 432 666 c 0
 422 666 413 665 405 663 c 0
 369 654 331 620 291 487 c 2
 277 444 l 1
 369 444 l 1
 390 444 l 1
 385 426 l 1
 379 398 l 1
 376 386 l 1
 363 386 l 1
 260 386 l 1
 64 -227 l 1
 61 -238 l 1
 50 -238 l 1
 -15 -238 l 1
 -35 -238 l 1
EndSplineSet
Validated: 1
Substitution2: "'smcp' Bas-de-casse vers petites capitales lookup 0 subtable" f.sc
EndChar

StartChar: g
Encoding: 71 103 72
Width: 509
GlyphClass: 2
Flags: W
HStem: -248 54<78.4424 172.625> -12 54<153.552 228.431> 402 54<263.127 345.287> 424 20G<409 509>
VStem: -17 123<-163.508 -80.7129> -17 95<-193.113 -141.29> 42 106<44.5715 212.598>
AnchorPoint: "Anchor-1" 328 528 basechar 0
AnchorPoint: "Anchor-0" 322 508 basechar 0
LayerCount: 2
Fore
SplineSet
209 307 m 0xe2
 174 241 149 159 148 96 c 0
 148 94 148 93 148 92 c 0
 148 63 158 42 178 42 c 0
 217 42 263 87 301 161 c 0
 328 213 354 290 354 331 c 0
 355 333 355 334 355 336 c 0
 355 384 334 402 304 402 c 0
 272 402 231 350 209 307 c 0xe2
110 -248 m 0
 40 -248 -17 -207 -17 -135 c 0
 -17 -87 19 -60 52 -60 c 0
 90 -60 106 -90 106 -114 c 2
 106 -114 106 -115 106 -115 c 2xd8
 105 -138 93 -156 82 -167 c 0
 78 -170 79 -167 78 -177 c 0
 78 -178 78 -178 78 -179 c 0xd4
 78 -187 81 -194 103 -194 c 0
 111 -194 118 -194 124 -193 c 0
 152 -189 175 -177 202 -143 c 0
 238 -96 257 -42 270 3 c 2
 270 3 278 28 286 54 c 1
 256 20 217 -12 170 -12 c 0
 87 -12 42 50 42 131 c 0
 42 221 91 306 117 343 c 0
 169 414 245 456 312 456 c 0xe2
 347 456 379 435 399 397 c 1
 409 433 l 1
 412 444 l 1
 423 444 l 1
 489 444 l 1
 509 444 l 1xd2
 504 426 l 1
 380 4 l 2
 363 -52 320 -137 259 -188 c 0
 211 -228 162 -244 123 -247 c 0
 119 -248 114 -248 110 -248 c 0
EndSplineSet
Validated: 1
Substitution2: "'salt' Alternatives stylistiques lookup 17 subtable" uni1D79
Substitution2: "'ss02' Jeu stylistique 2 lookup 12 subtable" uni1D79
AlternateSubs2: "'aalt' Activer toutes les variantes lookup 2 subtable" uni1D79
Substitution2: "'smcp' Bas-de-casse vers petites capitales lookup 0 subtable" g.sc
EndChar

StartChar: h
Encoding: 72 104 73
Width: 538
GlyphClass: 2
Flags: W
HStem: -12 60<343 412.137> 0 21G<32 132> 396 60<335.852 422.5> 658 54<125 227>
VStem: 288 81<48.3485 123.859> 394 79<320.141 393.737>
AnchorPoint: "Anchor-2" 200 0 basechar 0
AnchorPoint: "Anchor-1" 363 772 basechar 0
AnchorPoint: "Anchor-0" 356 752 basechar 0
LayerCount: 2
Fore
SplineSet
32 0 m 1x7c
 37 18 l 1
 227 655 l 2
 227 656 227 658 227 658 c 1
 225 658 226 658 225 658 c 2
 129 658 l 1
 109 658 l 1
 115 677 l 1
 122 701 l 1
 125 712 l 1
 136 712 l 1
 325 712 l 1
 345 712 l 1
 340 693 l 1
 225 316 l 1
 231 326 237 334 243 343 c 0
 282 399 334 456 398 456 c 0
 447 456 473 416 473 354 c 0
 473 353 473 353 473 353 c 2
 473 323 463 276 452 252 c 2
 385 113 l 2
 381 104 370 76 369 64 c 0
 369 50 374 48 377 48 c 0
 417 48 465 146 485 202 c 2
 490 215 l 1
 504 211 l 1
 524 205 l 1
 538 201 l 1
 533 186 l 2
 502 94 449 -12 365 -12 c 0xbc
 321 -12 288 22 288 86 c 0
 288 88 288 90 288 91 c 0
 289 121 299 165 309 192 c 2
 378 331 l 2
 383 340 394 368 394 380 c 0
 394 395 390 396 387 396 c 0
 364 396 335 381 300 340 c 0
 290 328 279 314 268 298 c 0
 209 212 169 123 151 72 c 2
 132 11 l 1
 128 0 l 1
 117 0 l 1
 51 0 l 1
 32 0 l 1x7c
EndSplineSet
Validated: 1
Substitution2: "'smcp' Bas-de-casse vers petites capitales lookup 0 subtable" h.sc
EndChar

StartChar: i
Encoding: 73 105 74
Width: 348
GlyphClass: 2
Flags: W
HStem: -12 60<155 217.224> 396 60<165.676 228.5> 571 134<223.056 322.944>
VStem: 104 75<48.6148 128.203> 203 75<315.797 393.737> 206 134<588.056 687.944>
AnchorPoint: "Anchor-2" 158 0 basechar 0
LayerCount: 2
Fore
SplineSet
206 638 m 0xf4
 206 676 235 705 273 705 c 0
 311 705 340 676 340 638 c 1
 340 600 311 571 273 571 c 0
 235 571 206 600 206 638 c 0xf4
39 243 m 1
 44 258 l 2
 76 350 129 456 208 456 c 0
 249 456 278 416 278 354 c 0
 278 353 278 353 278 353 c 2
 278 323 268 276 257 252 c 2
 193 113 l 2
 189 104 179 76 179 64 c 0
 178 50 183 48 186 48 c 0
 221 48 269 146 290 202 c 2
 295 215 l 1
 308 211 l 1
 328 205 l 1
 343 201 l 1
 338 186 l 2
 307 94 254 -12 175 -12 c 0
 135 -12 104 24 104 90 c 2
 104 90 104 91 104 91 c 2
 104 121 113 165 125 192 c 2
 189 331 l 2
 193 340 203 368 203 380 c 0xf8
 204 395 200 396 197 396 c 0
 162 396 113 297 92 242 c 2
 87 229 l 1
 74 233 l 1
 54 239 l 1
 39 243 l 1
EndSplineSet
Validated: 5
Substitution2: "Substitution simple lookup 28 subtable" dotlessi
AlternateSubs2: "'aalt' Activer toutes les variantes lookup 2 subtable" dotlessi
Substitution2: "'smcp' Bas-de-casse vers petites capitales lookup 0 subtable" i.sc
EndChar

StartChar: j
Encoding: 74 106 75
Width: 306
GlyphClass: 2
Flags: W
HStem: -248 44<-17.8292 56.7007> 412 44<189.252 277.5> 581 114<271.688 362.312>
VStem: -97 79<-203.542 -131.5> 238 82<296.995 411.683> 260 114<592.688 683.312>
LayerCount: 2
Fore
SplineSet
317 581 m 0xf4
 284 581 260 605 260 638 c 0
 260 671 284 695 317 695 c 0
 350 695 374 671 374 638 c 0
 374 605 350 581 317 581 c 0xf4
124 -11 m 2
 224 322 l 2
 228 339 238 367 238 392 c 0
 238 405 233 412 226 412 c 0
 188 412 133 324 104 251 c 2
 102 246 l 1
 101 242 l 1
 96 243 l 1
 91 244 l 1
 68 250 l 1
 63 252 l 1
 57 253 l 1
 59 258 l 1
 61 263 l 2
 90 335 154 456 246 456 c 0
 309 456 320 400 320 374 c 0xf8
 320 351 313 315 309 298 c 2
 213 -44 l 2
 183 -142 99 -248 -3 -248 c 0
 -40 -248 -97 -221 -97 -153 c 0
 -97 -110 -63 -75 -27 -75 c 0
 2 -75 21 -95 21 -123 c 0
 21 -142 11 -161 -7 -172 c 0
 -15 -177 -18 -178 -18 -186 c 0
 -18 -199 -13 -204 3 -204 c 0
 33 -204 73 -188 96 -116 c 0
 104 -92 115 -40 124 -11 c 2
EndSplineSet
Validated: 1
Substitution2: "Substitution simple lookup 28 subtable" dotlessj
AlternateSubs2: "'aalt' Activer toutes les variantes lookup 2 subtable" dotlessj
Substitution2: "'smcp' Bas-de-casse vers petites capitales lookup 0 subtable" j.sc
EndChar

StartChar: k
Encoding: 75 107 76
Width: 541
GlyphClass: 2
Flags: W
HStem: -12 65<336.5 409.819> 0 21G<32 132> 211 54<214 279.856> 386 70<404.885 428> 658 54<125 229>
VStem: 261 111<53.9015 149.558> 288 107<114.741 208.04> 428 100<341.747 385.974>
AnchorPoint: "Anchor-2" 196 0 basechar 0
AnchorPoint: "Anchor-1" 286 782 basechar 0
AnchorPoint: "Anchor-0" 280 762 basechar 0
LayerCount: 2
Fore
SplineSet
32 0 m 1x7b
 37 18 l 1
 228 655 l 2
 228 656 229 658 229 658 c 1
 227 658 227 658 226 658 c 2
 129 658 l 1
 109 658 l 1
 115 677 l 1
 122 701 l 1
 125 712 l 1
 136 712 l 1
 335 712 l 1
 357 712 l 1
 351 693 l 1
 214 265 l 1
 226 265 l 1
 263 265 l 2
 282 265 309 295 329 339 c 0
 335 351 340 363 345 375 c 0
 368 438 417 456 451 456 c 0
 477 456 500 442 510 428 c 0
 525 407 528 388 528 369 c 0
 528 326 502 292 463 292 c 0
 442 292 412 307 412 341 c 0
 412 357 419 369 424 376 c 0
 428 382 428 384 428 385 c 2
 428 385 428 386 428 386 c 1
 427 386 426 386 424 386 c 0
 416 386 410 380 402 360 c 0
 396 344 386 322 375 301 c 0
 364 279 350 258 335 244 c 1
 368 232 395 205 395 167 c 0x7b
 395 123 372 87 372 67 c 1
 372 56 376 53 379 53 c 0
 385 53 382 51 397 61 c 0
 432 87 459 160 475 202 c 2
 480 215 l 1
 494 211 l 1
 514 205 l 1
 529 201 l 1
 524 186 l 2
 495 105 447 -12 360 -12 c 0
 313 -12 261 13 261 77 c 0xbd
 261 127 288 158 288 183 c 0
 288 197 285 203 280 206 c 0
 277 209 269 211 253 211 c 2
 220 211 l 1
 198 211 l 1
 132 11 l 1
 129 0 l 1
 117 0 l 1
 51 0 l 1
 32 0 l 1x7b
EndSplineSet
Validated: 5
Substitution2: "'smcp' Bas-de-casse vers petites capitales lookup 0 subtable" k.sc
EndChar

StartChar: l
Encoding: 76 108 77
Width: 311
GlyphClass: 2
Flags: W
HStem: -12 64<150.001 181.764> 658 54<121 215>
VStem: 62 88<52.9501 161.561>
AnchorPoint: "Anchor-2" 112 0 basechar 0
AnchorPoint: "Anchor-1" 260 782 basechar 0
AnchorPoint: "Anchor-0" 254 762 basechar 0
LayerCount: 2
Fore
SplineSet
135 -12 m 0
 67 -12 62 65 62 100 c 0
 62 122 70 149 73 161 c 2
 215 655 l 2
 215 656 215 658 215 658 c 1
 214 658 214 658 213 658 c 2
 125 658 l 1
 105 658 l 1
 111 677 l 1
 118 701 l 1
 121 712 l 1
 132 712 l 1
 307 712 l 1
 327 712 l 1
 322 693 l 1
 166 145 l 2
 162 130 150 84 150 63 c 0
 150 57 151 53 152 52 c 2
 152 52 153 52 154 52 c 0
 179 52 221 122 248 202 c 2
 253 216 l 1
 266 211 l 1
 286 205 l 1
 302 201 l 1
 296 186 l 2
 274 125 226 -12 135 -12 c 0
EndSplineSet
Validated: 1
Substitution2: "'smcp' Bas-de-casse vers petites capitales lookup 0 subtable" l.sc
EndChar

StartChar: m
Encoding: 77 109 78
Width: 844
GlyphClass: 2
Flags: W
HStem: -12 60<645.5 714.267> 0 21G<87 189 316 421> 396 60<159.144 191 381.768 460.997 629.447 717.998>
VStem: 192 93<311.77 394.959> 426 93<310.601 394.992> 585 87<48.5326 126.68> 691 83<319.766 395.625>
AnchorPoint: "Anchor-2" 352 0 basechar 0
AnchorPoint: "Anchor-1" 494 528 basechar 0
AnchorPoint: "Anchor-0" 488 508 basechar 0
LayerCount: 2
Fore
SplineSet
39 256 m 1x7e
 45 270 l 2
 64 323 114 456 207 456 c 0
 277 456 285 384 285 345 c 0
 285 342 285 340 284 338 c 0
 284 331 283 321 281 311 c 1
 287 321 293 331 299 341 c 0
 334 397 376 456 423 456 c 0
 496 456 519 402 519 346 c 1
 519 336 517 323 514 310 c 1
 521 321 528 331 535 342 c 0
 574 398 626 456 693 456 c 0
 745 456 774 415 774 353 c 0
 774 323 764 276 753 252 c 2
 687 113 l 2
 683 104 672 76 672 64 c 0
 672 50 677 48 680 48 c 0
 718 48 766 146 786 202 c 2
 791 215 l 1
 805 211 l 1
 825 205 l 1
 839 201 l 1
 834 186 l 2
 803 94 750 -12 669 -12 c 0xbe
 622 -12 585 24 585 91 c 0
 585 121 595 165 608 192 c 2
 675 331 l 2
 680 340 691 368 691 380 c 0
 691 395 686 396 683 396 c 0
 659 396 629 381 594 340 c 0
 584 328 574 314 563 298 c 0
 504 212 459 123 442 72 c 2
 421 11 l 1
 418 0 l 1
 406 0 l 1
 336 0 l 1
 316 0 l 1
 321 18 l 1
 408 305 l 2
 414 324 426 353 426 374 c 1
 426 394 419 396 409 396 c 0
 404 396 380 378 352 340 c 0
 296 262 228 127 209 72 c 2
 189 11 l 1
 185 0 l 1
 173 0 l 1
 107 0 l 1
 87 0 l 1
 92 18 l 1
 177 308 l 2
 181 322 192 364 192 384 c 0
 192 391 191 395 191 396 c 1
 190 396 189 396 188 396 c 0
 156 396 113 309 93 255 c 2
 88 243 l 1
 74 246 l 1
 54 252 l 1
 39 256 l 1x7e
EndSplineSet
Validated: 1
Substitution2: "'smcp' Bas-de-casse vers petites capitales lookup 0 subtable" m.sc
EndChar

StartChar: n
Encoding: 78 110 79
Width: 589
GlyphClass: 2
Flags: W
HStem: -12 60<390 458.322> 0 21G<87 180> 426 30<398.215 468.314>
VStem: 193 87<311.752 391.098> 336 80<50.3734 123.859> 443 76<344.359 424.832>
AnchorPoint: "Anchor-2" 260 0 basechar 0
AnchorPoint: "Anchor-1" 356 528 basechar 0
AnchorPoint: "Anchor-0" 350 508 basechar 0
LayerCount: 2
Fore
SplineSet
39 243 m 1x7c
 44 258 l 2
 64 315 114 456 210 456 c 0
 272 456 280 388 280 349 c 0
 280 345 279 342 279 339 c 0
 279 331 278 320 276 311 c 1
 283 322 289 332 296 342 c 0
 334 398 384 456 446 456 c 0
 494 456 519 416 519 354 c 0
 519 353 519 353 519 353 c 2
 519 323 509 276 498 252 c 2
 432 113 l 2
 427 104 416 76 416 64 c 0
 416 50 420 48 424 48 c 0
 463 48 511 146 531 202 c 2
 536 215 l 1
 549 211 l 1
 569 205 l 1
 584 201 l 1
 579 186 l 2
 548 94 495 -12 411 -12 c 0xbc
 369 -12 336 25 336 93 c 0
 336 95 336 97 336 99 c 0
 337 131 347 178 360 207 c 2
 427 356 l 2
 432 366 443 396 443 409 c 0
 444 425 439 426 437 426 c 0
 414 426 386 410 352 365 c 0
 342 352 332 338 321 320 c 0
 264 227 219 132 202 77 c 2
 180 11 l 1
 177 0 l 1
 166 0 l 1
 105 0 l 1
 87 0 l 1
 92 18 l 1
 177 305 l 2
 181 320 193 361 193 381 c 0
 193 387 192 391 192 392 c 1
 191 392 190 392 189 392 c 0
 162 392 120 322 93 242 c 2
 88 228 l 1
 74 233 l 1
 54 239 l 1
 39 243 l 1x7c
EndSplineSet
Validated: 1
Substitution2: "'smcp' Bas-de-casse vers petites capitales lookup 0 subtable" n.sc
EndChar

StartChar: o
Encoding: 79 111 80
Width: 493
GlyphClass: 2
Flags: W
HStem: -12 54<163.693 255.742> 402 54<266.031 357.944>
VStem: 52 102<69.396 231.672> 367 101<212.328 374.604>
AnchorPoint: "Anchor-2" 191 0 basechar 0
AnchorPoint: "Anchor-1" 320 528 basechar 0
AnchorPoint: "Anchor-0" 314 508 basechar 0
LayerCount: 2
Fore
SplineSet
205 301 m 0
 174 245 154 169 154 113 c 0
 154 112 154 110 154 109 c 0
 154 66 171 42 203 42 c 0
 254 42 288 90 316 143 c 0
 346 199 366 275 367 331 c 0
 367 333 367 334 367 336 c 0
 367 379 351 402 319 402 c 0
 268 402 232 354 205 301 c 0
197 -12 m 0
 126 -12 52 49 52 167 c 0
 52 305 168 456 325 456 c 0
 396 456 468 395 468 277 c 0
 468 140 355 -12 197 -12 c 0
EndSplineSet
Validated: 1
Substitution2: "'smcp' Bas-de-casse vers petites capitales lookup 0 subtable" o.sc
EndChar

StartChar: p
Encoding: 80 112 81
Width: 560
GlyphClass: 2
Flags: W
HStem: -238 58<-56 43.2969 135 256> -12 54<249.474 329.102> 392 64<166.608 200> 402 54<363.895 435.099>
VStem: 201 84<362.656 391.453> 440 101<226.446 399.428>
AnchorPoint: "Anchor-1" 354 528 basechar 0
AnchorPoint: "Anchor-0" 348 508 basechar 0
LayerCount: 2
Fore
SplineSet
292 283 m 0xdc
 266 231 241 154 240 113 c 0
 240 111 240 110 240 108 c 0
 240 60 261 42 289 42 c 0
 321 42 360 94 382 137 c 0
 417 203 439 285 440 348 c 0
 440 350 440 351 440 353 c 0
 440 381 431 402 412 402 c 0
 374 402 329 357 292 283 c 0xdc
-73 -238 m 1
 -67 -219 l 1
 -59 -191 l 1
 -56 -180 l 1
 -45 -180 l 1
 29 -180 l 2
 39 -180 39 -181 41 -169 c 2
 188 314 l 2
 190 321 200 360 201 381 c 0
 201 387 200 391 200 392 c 1
 199 392 198 392 196 392 c 0xec
 172 392 123 317 96 242 c 2
 91 228 l 1
 76 233 l 1
 54 239 l 1
 39 243 l 1
 44 258 l 2
 65 315 118 456 218 456 c 0
 272 456 284 397 285 362 c 1
 316 406 362 456 420 456 c 0
 497 456 541 394 541 313 c 0
 541 224 505 146 480 108 c 0
 434 39 361 -12 287 -12 c 0
 253 -12 219 7 199 48 c 1
 136 -177 l 2
 135 -178 135 -180 135 -180 c 1
 136 -180 135 -180 136 -180 c 2
 255 -180 l 1
 274 -180 l 1
 268 -199 l 1
 260 -227 l 1
 256 -238 l 1
 245 -238 l 1
 -53 -238 l 1
 -73 -238 l 1
EndSplineSet
Validated: 1
Substitution2: "'smcp' Bas-de-casse vers petites capitales lookup 0 subtable" p.sc
EndChar

StartChar: q
Encoding: 81 113 82
Width: 519
GlyphClass: 2
Flags: W
HStem: -238 58<77 214.862 325 414> -12 54<149.307 223.662> 402 54<259.645 344.02> 424 20G<453 501>
VStem: 42 102<44.5715 216.46>
AnchorPoint: "Anchor-1" 328 528 basechar 0
AnchorPoint: "Anchor-0" 322 508 basechar 0
LayerCount: 2
Fore
SplineSet
204 307 m 0xe8
 167 241 144 159 144 96 c 0
 144 94 144 93 144 91 c 0
 144 63 153 42 172 42 c 0
 213 42 260 87 299 161 c 0
 326 213 352 290 353 331 c 0
 354 332 354 334 354 336 c 0
 354 384 332 402 302 402 c 0
 268 402 227 350 204 307 c 0xe8
165 -12 m 0
 87 -12 42 50 42 131 c 0
 42 221 91 306 116 343 c 0
 163 414 241 456 310 456 c 0xe8
 351 456 392 429 406 366 c 1
 453 438 l 1
 457 444 l 1
 464 444 l 1
 482 444 l 1
 501 444 l 1xd8
 496 426 l 1
 326 -177 l 2
 326 -178 325 -180 325 -180 c 1
 327 -180 327 -180 329 -180 c 2
 410 -180 l 1
 430 -180 l 1
 425 -199 l 1
 417 -227 l 1
 414 -238 l 1
 402 -238 l 1
 78 -238 l 1
 61 -238 l 1
 66 -219 l 1
 74 -191 l 1
 77 -180 l 1
 87 -180 l 1
 202 -180 l 2
 213 -180 212 -181 215 -169 c 2
 215 -169 257 -37 284 52 c 1
 253 17 213 -12 165 -12 c 0
EndSplineSet
Validated: 1
Substitution2: "'smcp' Bas-de-casse vers petites capitales lookup 0 subtable" q.sc
EndChar

StartChar: r
Encoding: 82 114 83
Width: 461
GlyphClass: 2
Flags: W
HStem: 0 21G<87 181> 300 156<373.451 469.425> 392 64<158.723 194.999>
VStem: 195 90<345.25 391.694> 362 131<323.242 384.623>
AnchorPoint: "Anchor-2" 128 0 basechar 0
AnchorPoint: "Anchor-1" 296 528 basechar 0
AnchorPoint: "Anchor-0" 290 508 basechar 0
LayerCount: 2
Fore
SplineSet
39 243 m 1xb8
 44 258 l 2
 64 315 114 456 212 456 c 0xb8
 278 456 285 385 285 348 c 0
 285 347 285 346 285 345 c 1
 290 353 294 360 299 367 c 0
 329 412 367 456 411 456 c 0
 468 456 493 414 493 377 c 0
 493 342 467 300 416 300 c 0xd8
 385 300 362 324 362 352 c 0
 362 353 362 353 362 354 c 0
 362 366 366 377 372 385 c 1
 365 378 359 371 351 362 c 0
 299 294 230 146 202 69 c 2
 181 11 l 1
 178 0 l 1
 166 0 l 1
 105 0 l 1
 87 0 l 1
 92 18 l 1
 178 305 l 2
 182 320 195 361 195 381 c 0
 195 387 194 391 193 392 c 2
 193 392 192 392 190 392 c 0
 162 392 119 319 93 242 c 2
 88 228 l 1
 74 233 l 1
 54 239 l 1
 39 243 l 1xb8
EndSplineSet
Validated: 1
Substitution2: "'smcp' Bas-de-casse vers petites capitales lookup 0 subtable" r.sc
EndChar

StartChar: s
Encoding: 83 115 84
Width: 454
GlyphClass: 2
Flags: W
HStem: -12 54<109.129 268.504> 402 54<229.016 354.105>
VStem: 25 75<55.4981 135> 119 87<295.447 378.494> 292 91<71.1815 152.568> 322 123<274.753 351.682>
AnchorPoint: "Anchor-2" 156 0 basechar 0
AnchorPoint: "Anchor-1" 296 528 basechar 0
AnchorPoint: "Anchor-0" 290 508 basechar 0
LayerCount: 2
Fore
SplineSet
180 -12 m 0xf8
 78 -12 25 55 25 121 c 0
 25 149 42 202 95 202 c 0
 121 202 148 182 148 148 c 0
 147 124 134 108 116 102 c 0
 104 98 100 97 100 82 c 0
 100 56 148 42 187 42 c 0
 262 42 292 74 292 106 c 0xf8
 292 126 282 146 263 158 c 2
 177 216 l 1
 141 235 119 266 119 312 c 0
 119 398 202 446 280 454 c 0
 289 455 297 456 306 456 c 0
 401 456 445 372 445 329 c 0
 445 297 426 257 378 257 c 0
 353 257 322 276 322 309 c 0xf4
 323 318 326 336 341 350 c 0
 347 356 352 359 357 362 c 0
 360 364 362 365 362 365 c 1
 361 384 332 402 298 402 c 0
 295 402 292 402 288 402 c 0
 245 398 207 376 206 335 c 0
 206 333 206 332 206 330 c 0
 206 305 212 304 229 294 c 1
 329 229 l 2
 352 212 383 187 383 140 c 0
 383 66 313 -12 180 -12 c 0xf8
EndSplineSet
Validated: 5
Substitution2: "'smcp' Bas-de-casse vers petites capitales lookup 0 subtable" s.sc
EndChar

StartChar: t
Encoding: 84 116 85
Width: 332
GlyphClass: 2
Flags: W
HStem: -12 65<118.5 186.44> 386 58<81 135 248 340> 664 20G<213 313>
VStem: 56 88<53.1694 159.959>
AnchorPoint: "Anchor-2" 120 0 basechar 0
AnchorPoint: "Anchor-1" 266 782 basechar 0
AnchorPoint: "Anchor-0" 260 762 basechar 0
LayerCount: 2
Fore
SplineSet
143 -12 m 0
 94 -12 56 25 56 80 c 0
 56 115 64 144 68 160 c 2
 135 386 l 1
 85 386 l 1
 66 386 l 1
 71 405 l 1
 78 433 l 1
 81 444 l 1
 92 444 l 1
 151 444 l 1
 213 673 l 1
 216 684 l 1
 227 684 l 1
 293 684 l 1
 313 684 l 1
 308 665 l 1
 248 444 l 1
 335 444 l 1
 355 444 l 1
 350 425 l 1
 343 397 l 1
 340 386 l 1
 328 386 l 1
 232 386 l 1
 152 113 l 2
 148 103 144 78 144 66 c 0
 144 62 147 53 157 53 c 0
 160 53 169 56 173 59 c 0
 198 78 219 141 236 201 c 2
 240 216 l 1
 255 211 l 1
 275 205 l 1
 288 201 l 1
 285 187 l 2
 264 99 229 -12 143 -12 c 0
EndSplineSet
Validated: 1
Substitution2: "'smcp' Bas-de-casse vers petites capitales lookup 0 subtable" t.sc
EndChar

StartChar: u
Encoding: 85 117 86
Width: 589
GlyphClass: 2
Flags: W
HStem: -12 60<155.501 237.153 431 465.94> 396 60<165.216 233.5> 424 20G<443 536>
VStem: 104 77<50.2635 123.859> 207 81<320.141 395.651> 344 86<48.441 132.577>
AnchorPoint: "Anchor-2" 262 0 basechar 0
AnchorPoint: "Anchor-1" 354 528 basechar 0
AnchorPoint: "Anchor-0" 348 508 basechar 0
LayerCount: 2
Fore
SplineSet
39 243 m 1xdc
 44 258 l 2
 76 350 128 456 212 456 c 0xdc
 255 456 288 422 288 358 c 0
 288 356 288 354 288 353 c 0
 287 323 277 279 264 252 c 2
 197 113 l 2
 192 104 181 76 181 64 c 0
 181 49 185 48 187 48 c 0
 210 48 238 63 272 105 c 0
 282 116 292 130 303 146 c 0
 360 233 404 321 422 373 c 2
 443 434 l 1
 447 444 l 1
 458 444 l 1
 518 444 l 1
 536 444 l 1xbc
 531 426 l 1
 446 136 l 2
 442 121 430 79 430 59 c 0
 430 53 431 49 431 48 c 1
 432 48 433 48 434 48 c 0
 461 48 503 114 530 189 c 2
 535 201 l 1
 549 198 l 1
 569 192 l 1
 584 188 l 1
 579 174 l 2
 559 121 509 -12 413 -12 c 0
 351 -12 344 56 344 95 c 0
 344 99 344 102 344 105 c 0
 344 113 346 124 347 133 c 1
 341 122 334 112 327 102 c 0
 289 46 239 -12 177 -12 c 0
 130 -12 104 28 104 90 c 0
 104 91 104 91 104 91 c 2
 104 121 114 168 125 192 c 2
 191 331 l 2
 196 340 207 368 207 380 c 0
 208 394 203 396 200 396 c 0
 161 396 113 298 92 242 c 2
 87 229 l 1
 74 233 l 1
 54 239 l 1
 39 243 l 1xdc
EndSplineSet
Validated: 1
Substitution2: "'smcp' Bas-de-casse vers petites capitales lookup 0 subtable" u.sc
EndChar

StartChar: v
Encoding: 86 118 87
Width: 499
GlyphClass: 2
Flags: W
HStem: -12 54<182.542 282.38> 328 128<367.859 429.808> 396 60<165.908 236>
VStem: 104 78<44.2986 121.688> 209 84<320.141 395.175> 431 66<229.454 360>
AnchorPoint: "Anchor-2" 182 0 basechar 0
AnchorPoint: "Anchor-1" 312 528 basechar 0
AnchorPoint: "Anchor-0" 306 508 basechar 0
LayerCount: 2
Fore
SplineSet
39 243 m 1xbc
 44 258 l 2
 76 350 128 456 214 456 c 0xbc
 258 456 293 422 293 357 c 0
 293 356 293 354 293 352 c 0
 292 323 282 279 268 252 c 2
 199 113 l 2
 194 104 182 76 182 63 c 0
 182 62 182 61 182 60 c 0
 182 45 185 42 208 42 c 0
 258 42 305 71 345 114 c 0
 400 176 431 261 431 306 c 0
 431 325 423 325 413 328 c 0
 389 332 348 351 348 394 c 2
 348 394 348 395 348 395 c 2
 349 431 378 456 412 456 c 0xdc
 480 456 497 383 497 337 c 0
 497 283 464 157 385 71 c 0
 337 23 272 -12 194 -12 c 0
 147 -12 104 25 104 90 c 0
 104 91 104 91 104 91 c 2
 104 121 114 168 125 192 c 2
 193 331 l 2
 198 340 209 368 209 380 c 0
 210 394 205 396 201 396 c 0
 161 396 113 298 92 242 c 2
 87 229 l 1
 74 233 l 1
 54 239 l 1
 39 243 l 1xbc
EndSplineSet
Validated: 1
Substitution2: "'smcp' Bas-de-casse vers petites capitales lookup 0 subtable" v.sc
EndChar

StartChar: w
Encoding: 87 119 88
Width: 729
GlyphClass: 2
Flags: W
HStem: -12 54<180.692 244.2 432.891 518.818> 328 128<600.157 659.808> 396 60<166.18 231> 424 20G<436 542>
VStem: 104 76<42.4369 123.859> 206 78<317.969 395.651> 339 93<42.0486 100.601> 661 66<231.139 360>
AnchorPoint: "Anchor-2" 324 0 basechar 0
AnchorPoint: "Anchor-1" 462 528 basechar 0
AnchorPoint: "Anchor-0" 456 508 basechar 0
LayerCount: 2
Fore
SplineSet
39 243 m 1xaf
 44 258 l 2
 76 350 128 456 210 456 c 0xaf
 252 456 284 422 284 358 c 0
 284 356 284 354 284 352 c 0
 283 323 273 279 261 252 c 2
 196 113 l 2
 191 104 181 76 180 63 c 0
 180 62 180 61 180 60 c 0
 180 44 184 42 199 42 c 0
 213 42 232 52 254 72 c 0
 312 126 376 241 402 322 c 2
 436 434 l 1
 439 444 l 1
 452 444 l 1
 522 444 l 1
 542 444 l 1x9f
 537 426 l 1
 440 114 l 2
 435 94 432 71 432 60 c 0
 432 59 432 59 432 59 c 2
 432 50 437 42 449 42 c 0
 499 42 545 75 585 123 c 0
 633 183 661 263 661 306 c 0
 661 325 655 325 643 328 c 0
 620 332 581 351 581 394 c 2
 581 394 581 395 581 395 c 2
 582 431 608 456 642 456 c 0xcf
 710 456 727 383 727 337 c 0
 727 286 697 170 627 84 c 0
 581 30 515 -12 436 -12 c 0
 387 -12 339 17 339 93 c 0
 339 96 339 100 339 101 c 1
 322 77 305 56 285 37 c 0
 256 9 222 -12 188 -12 c 0
 140 -12 104 26 104 90 c 0
 104 91 104 91 104 91 c 2
 104 121 114 168 125 192 c 2
 191 331 l 2
 195 340 206 368 206 380 c 0
 206 394 202 396 199 396 c 0
 161 396 113 298 92 242 c 2
 87 229 l 1
 74 233 l 1
 54 239 l 1
 39 243 l 1xaf
EndSplineSet
Validated: 1
Substitution2: "'smcp' Bas-de-casse vers petites capitales lookup 0 subtable" w.sc
EndChar

StartChar: x
Encoding: 88 120 89
Width: 584
GlyphClass: 2
Flags: W
HStem: -12 54<111.466 166.509 324.808 403.003> 402 54<197.288 277.671 438.035 491.719>
VStem: 445 131<306.658 378.93>
AnchorPoint: "Anchor-2" 230 0 basechar 0
AnchorPoint: "Anchor-1" 360 528 basechar 0
AnchorPoint: "Anchor-0" 356 508 basechar 0
LayerCount: 2
Fore
SplineSet
48 15 m 0
 31 35 27 60 27 74 c 0
 27 95 32 119 48 138 c 0
 60 154 80 168 106 168 c 0
 117 168 129 164 138 157 c 0
 150 148 157 133 157 115 c 0
 157 114 157 114 157 113 c 0
 157 80 137 60 119 51 c 0
 114 49 111 47 111 47 c 2
 111 46 111 45 111 43 c 1
 112 43 114 42 118 42 c 0
 126 42 134 44 141 47 c 0
 184 65 222 131 246 207 c 2
 273 292 l 2
 282 317 282 337 282 349 c 0
 282 351 282 352 282 353 c 0
 282 384 271 402 247 402 c 0
 203 402 141 333 114 268 c 2
 109 255 l 1
 96 260 l 1
 75 267 l 1
 60 272 l 1
 66 287 l 2
 95 359 158 456 257 456 c 0
 315 456 342 413 351 373 c 1
 381 411 413 438 450 450 c 0
 463 454 475 456 487 456 c 0
 512 456 540 445 554 429 c 0
 571 409 576 384 576 370 c 0
 576 349 570 325 554 306 c 0
 543 290 522 276 497 276 c 0
 485 276 474 280 464 287 c 0
 452 296 445 311 445 329 c 0
 445 330 445 330 445 331 c 0
 446 360 462 379 481 389 c 0
 493 394 491 394 492 401 c 1
 490 401 488 402 485 402 c 0
 477 402 470 400 463 397 c 0
 420 380 382 313 356 237 c 2
 329 152 l 2
 321 129 320 107 320 95 c 0
 320 93 320 92 320 91 c 0
 320 60 331 42 355 42 c 0
 399 42 461 111 488 176 c 2
 493 189 l 1
 506 184 l 1
 527 177 l 1
 542 172 l 1
 537 157 l 1
 507 85 444 -12 346 -12 c 0
 288 -12 260 31 251 71 c 1
 222 35 192 8 155 -5 c 0
 142 -9 129 -12 115 -12 c 0
 90 -12 62 -1 48 15 c 0
EndSplineSet
Validated: 1
Substitution2: "'smcp' Bas-de-casse vers petites capitales lookup 0 subtable" x.sc
EndChar

StartChar: y
Encoding: 89 121 90
Width: 533
GlyphClass: 2
Flags: W
HStem: -248 54<115.496 212.672> -12 54<178.559 244.858> 396 60<162.137 231.5> 424 20G<443 543>
VStem: 100 78<42.4369 123.859> 205 81<320.141 395.651>
AnchorPoint: "Anchor-2" 156 -206 basechar 0
AnchorPoint: "Anchor-1" 354 528 basechar 0
AnchorPoint: "Anchor-0" 348 508 basechar 0
LayerCount: 2
Fore
SplineSet
150 -248 m 0xdc
 81 -248 27 -208 27 -135 c 0
 27 -87 63 -60 94 -60 c 0
 128 -60 142 -90 142 -114 c 2
 142 -114 142 -115 142 -115 c 2
 142 -138 130 -156 119 -167 c 0
 115 -170 115 -167 115 -177 c 0
 115 -178 115 -178 115 -179 c 0
 115 -187 117 -194 140 -194 c 0
 148 -194 154 -194 161 -193 c 0
 190 -190 212 -179 240 -146 c 0
 277 -101 297 -31 307 3 c 2
 331 85 l 1
 316 66 303 52 288 37 c 0
 257 9 222 -12 186 -12 c 0
 136 -12 100 26 100 90 c 0
 100 91 100 91 100 91 c 2
 100 121 110 168 122 192 c 2
 189 331 l 2
 194 340 205 368 205 380 c 0
 205 394 201 396 197 396 c 0
 158 396 109 298 89 242 c 2
 84 229 l 1
 70 233 l 1
 50 239 l 1
 35 243 l 1
 40 258 l 2
 72 350 124 456 210 456 c 0xec
 253 456 286 422 286 358 c 0
 286 356 286 354 286 352 c 0
 285 323 275 279 262 252 c 2
 194 113 l 2
 190 104 179 76 178 63 c 0
 178 62 178 61 178 61 c 2
 178 44 183 42 198 42 c 0
 212 42 232 52 255 72 c 0
 316 126 382 241 409 322 c 2
 443 434 l 1
 446 444 l 1
 457 444 l 1
 523 444 l 1
 543 444 l 1
 538 426 l 1
 421 11 l 2
 408 -35 371 -121 306 -181 c 0
 252 -233 190 -248 150 -248 c 0xdc
EndSplineSet
Validated: 1
Substitution2: "'smcp' Bas-de-casse vers petites capitales lookup 0 subtable" y.sc
EndChar

StartChar: z
Encoding: 90 122 91
Width: 466
GlyphClass: 2
Flags: W
HStem: -12 94<172.575 318.52> 354 102<175.44 275.774>
VStem: 26 96<-2.71875 70.5465> 75 48<266.083 282> 369 47<139.897 188.875> 380 67<369 447.986>
AnchorPoint: "Anchor-2" 168 0 basechar 0
AnchorPoint: "Anchor-1" 300 528 basechar 0
AnchorPoint: "Anchor-0" 294 508 basechar 0
LayerCount: 2
Fore
SplineSet
77 -12 m 0xe8
 46 -12 26 12 26 41 c 0xe8
 26 56 28 70 32 84 c 0
 41 115 60 143 83 166 c 0
 119 203 169 229 213 245 c 0
 290 272 335 292 357 310 c 1
 353 310 350 310 346 310 c 0
 310 310 287 324 269 337 c 0
 253 348 242 354 227 354 c 0
 165 354 137 302 123 266 c 2
 117 251 l 1
 103 257 l 1
 87 264 l 1
 75 269 l 1
 78 282 l 2
 92 332 140 456 245 456 c 0
 296 456 326 420 344 393 c 0
 358 373 366 366 368 366 c 0
 374 366 378 367 379 368 c 0
 380 369 380 369 380 369 c 1
 380 370 l 1
 371 374 359 387 359 408 c 2
 359 408 359 409 359 409 c 2
 359 430 371 456 399 456 c 0
 434 456 447 425 447 398 c 0xd4
 447 361 425 324 393 290 c 0
 363 257 320 227 268 207 c 0
 169 171 128 152 114 137 c 0
 111 134 109 131 107 129 c 1
 112 127 114 127 117 126 c 0
 138 120 155 113 172 104 c 0
 201 91 226 82 264 82 c 0
 323 82 354 143 369 191 c 2
 374 206 l 1
 389 200 l 1
 408 192 l 1
 420 187 l 1
 416 174 l 2
 396 107 356 -12 250 -12 c 0
 184 -12 147 25 127 51 c 0
 111 69 101 76 96 76 c 0
 93 76 91 76 90 75 c 1
 91 74 92 74 95 73 c 1
 96 73 l 1
 113 65 122 49 122 34 c 0
 121 14 109 -12 77 -12 c 0xe8
EndSplineSet
Validated: 5
Substitution2: "'smcp' Bas-de-casse vers petites capitales lookup 0 subtable" z.sc
EndChar

StartChar: braceleft
Encoding: 91 123 92
Width: 408
GlyphClass: 2
Flags: W
HStem: 243 48<110 187.442> 692 52<412.516 473.8>
VStem: 88 78<-133.505 -36.3244> 190 78<137.454 237.536> 242 104<369.529 588.341>
LayerCount: 2
Fore
SplineSet
88 -71 m 1xe8
 88 33 190 138 190 207 c 0xf0
 190 236 170 243 117 243 c 2
 97 243 l 1
 102 262 l 1
 107 280 l 1
 110 291 l 1
 122 291 l 2
 190 291 242 295 242 425 c 2
 242 473 l 2
 242 633 330 705 458 744 c 2
 473 749 l 1
 477 734 l 1
 483 710 l 1
 487 696 l 1
 473 692 l 2
 376 661 348 648 346 536 c 2
 346 475 l 2xe8
 343 402 319 308 225 265 c 1
 249 247 268 218 268 174 c 0xf0
 268 63 166 -40 166 -99 c 0
 166 -127 192 -141 236 -158 c 2
 255 -165 l 1
 242 -181 l 1
 223 -205 l 1
 217 -214 l 1
 207 -210 l 2
 134 -184 88 -138 88 -71 c 1xe8
EndSplineSet
Validated: 5
EndChar

StartChar: bar
Encoding: 92 124 93
Width: 272
GlyphClass: 2
Flags: W
VStem: 127 74<-213 523.778> 136 74<8.22222 745>
LayerCount: 2
Fore
SplineSet
127 -198 m 1x80
 136 730 l 1
 136 745 l 1
 151 745 l 1
 195 745 l 1
 210 745 l 1
 210 730 l 1x40
 201 -198 l 1
 201 -213 l 1
 186 -213 l 1
 142 -213 l 1
 127 -213 l 1
 127 -198 l 1x80
EndSplineSet
Validated: 1
EndChar

StartChar: braceright
Encoding: 93 125 94
Width: 406
GlyphClass: 2
Flags: W
HStem: -215 53<-14.5333 -8 1 35.9058> 243 48<271.558 349>
VStem: 113 104<-54.3408 161.174> 191 78<296.464 396.546> 293 78<570.324 667.505>
LayerCount: 2
Fore
SplineSet
-14 -158 m 2xe8
 83 -127 111 -114 113 -2 c 2
 113 59 l 2xe8
 116 132 140 226 235 269 c 1
 210 287 191 316 191 360 c 0xd8
 191 471 293 574 293 633 c 0
 293 661 267 675 223 692 c 2
 204 699 l 1
 217 715 l 1xe8
 236 739 l 1
 242 748 l 1
 252 744 l 2
 325 718 371 672 371 605 c 0
 371 501 269 396 269 327 c 1xd8
 269 298 289 291 342 291 c 2
 362 291 l 1
 357 272 l 1
 352 254 l 1
 349 243 l 1
 337 243 l 2
 269 243 217 239 217 109 c 2
 217 61 l 1
 217 -99 129 -171 1 -210 c 2
 -14 -215 l 1
 -18 -200 l 1
 -24 -176 l 1
 -28 -162 l 1
 -14 -158 l 2xe8
EndSplineSet
Validated: 5
EndChar

StartChar: asciitilde
Encoding: 94 126 95
Width: 615
GlyphClass: 2
Flags: W
HStem: 155 92<439.766 539.981> 275 92<114.019 213.063>
VStem: 48 64<204.453 274.368> 542 64<247.632 317.547>
LayerCount: 2
Fore
SplineSet
48 253 m 0
 48 309 92 367 177 367 c 0
 240 367 307 333 370 302 c 0
 427 273 479 247 517 247 c 0
 528 247 542 256 542 278 c 0
 542 301 531 313 508 325 c 2
 496 332 l 1
 503 345 l 1
 514 366 l 1
 521 378 l 1
 533 373 l 2
 580 352 606 313 606 269 c 0
 606 213 562 155 477 155 c 0
 413 155 346 189 284 220 c 0
 229 247 174 275 137 275 c 0
 126 275 112 266 112 244 c 0
 112 221 123 209 146 197 c 2
 158 190 l 1
 151 177 l 1
 140 156 l 1
 133 144 l 1
 121 149 l 2
 74 170 48 209 48 253 c 0
EndSplineSet
Validated: 1
EndChar

StartChar: exclamdown
Encoding: 96 161 97
Width: 270
GlyphClass: 2
Flags: W
HStem: 319 154<148.305 255.695>
VStem: -21 152<-231.676 -94.0407> 125 154<342.305 449.695>
LayerCount: 2
Fore
SplineSet
125 396 m 0xa0
 125 440 158 473 202 473 c 0
 246 473 279 440 279 396 c 1
 279 352 246 319 202 319 c 0
 158 319 125 352 125 396 c 0xa0
-21 -178 m 0xc0
 -21 -136 9 -70 39 -2 c 0
 55 35 70 72 82 105 c 2
 152 293 l 1
 156 303 l 1
 166 303 l 1
 190 303 l 1
 208 303 l 1
 205 285 l 1
 169 82 l 2
 161 39 154 -10 150 -49 c 0
 145 -94 139 -138 131 -181 c 0
 119 -243 81 -263 46 -263 c 0
 0 -263 -21 -224 -21 -178 c 0xc0
EndSplineSet
Validated: 5
EndChar

StartChar: cent
Encoding: 97 162 98
Width: 555
GlyphClass: 2
Flags: W
HStem: -27 55<281 333.364>
VStem: 114 102<58.9252 238.733> 414 83<333 415.162>
LayerCount: 2
Fore
SplineSet
114 158 m 0
 114 200 122 301 207 391 c 0
 248 436 292 464 347 470 c 1
 377 580 l 1
 380 591 l 1
 391 591 l 1
 415 591 l 1
 435 591 l 1
 430 572 l 1
 402 469 l 1
 447 461 497 423 497 356 c 0
 497 310 467 271 425 271 c 0
 390 271 371 297 371 321 c 0
 372 350 394 371 409 382 c 0
 415 387 414 388 414 393 c 0
 414 403 410 411 393 415 c 0
 392 416 389 416 388 416 c 2
 281 28 l 1
 332 34 374 79 399 133 c 2
 405 144 l 1
 417 140 l 1
 438 133 l 1
 454 128 l 1
 447 113 l 2
 431 79 405 39 365 10 c 0
 338 -11 304 -26 267 -27 c 1
 240 -124 l 1
 237 -135 l 1
 225 -135 l 1
 201 -135 l 1
 182 -135 l 1
 187 -116 l 1
 214 -18 l 1
 149 8 114 81 114 158 c 0
216 98 m 0
 216 74 222 55 231 44 c 1
 329 407 l 1
 321 401 312 393 303 383 c 0
 282 357 260 313 242 254 c 0
 218 178 216 129 216 98 c 0
EndSplineSet
Validated: 1
EndChar

StartChar: sterling
Encoding: 98 163 99
Width: 677
GlyphClass: 2
Flags: W
HStem: -31 98<345.753 508.28> -31 54<17.0664 129.977> 87 64<26.9262 158.241> 279 58<388.979 544.352> 313 58<118.888 264.273> 663 52<499.924 607.715>
VStem: -41 58<24.0923 75.718> 279 109<364 431.413> 613 50<166.864 230.818> 620 63<607 651.075>
LayerCount: 2
Fore
SplineSet
-41 41 m 0x6780
 -41 120 50 151 117 151 c 0
 149 151 178 146 206 138 c 1
 231 189 250 249 265 307 c 1
 242 311 223 313 201 313 c 0
 163 313 150 306 121 292 c 2
 106 285 l 1
 100 301 l 1
 96 312 l 1
 92 323 l 1
 88 334 l 1
 98 340 l 2
 120 356 159 371 202 371 c 0
 230 371 256 368 279 364 c 1
 315 497 390 715 559 715 c 0
 563 715 567 715 571 715 c 0
 659 708 683 627 683 588 c 0
 683 531 643 495 604 495 c 0
 580 495 537 508 537 559 c 2
 537 559 537 560 537 561 c 0
 538 600 568 615 585 615 c 0
 592 615 601 614 609 609 c 0
 614 607 616 607 619 607 c 0
 620 607 620 607 620 607 c 1
 620 608 620 608 620 609 c 2
 620 609 620 610 620 611 c 0x6f40
 620 632 608 663 557 663 c 0
 460 663 424 521 400 397 c 0
 397 380 392 359 388 344 c 1
 412 340 436 337 464 337 c 0
 502 337 521 346 541 357 c 2
 555 365 l 1
 560 349 l 1
 567 327 l 1
 570 317 l 1
 562 310 l 2
 543 294 505 279 463 279 c 0
 429 279 399 283 372 288 c 1
 349 219 319 160 285 113 c 1
 296 109 305 105 316 101 c 0
 359 82 396 67 428 67 c 0
 546 67 596 151 613 228 c 2
 617 244 l 1
 632 239 l 1
 652 233 l 1
 665 229 l 1
 663 216 l 2
 652 162 626 82 572 34 c 0
 523 -10 475 -31 398 -31 c 0xb780
 341 -31 291 -1 236 29 c 2
 217 39 l 1
 165 -7 110 -31 54 -31 c 0
 16 -31 -41 -14 -41 41 c 0x6780
17 43 m 0
 17 25 33 23 58 23 c 0
 100 23 132 41 159 68 c 1
 130 80 105 87 74 87 c 0
 45 87 17 67 17 43 c 0
EndSplineSet
Validated: 1
EndChar

StartChar: currency
Encoding: 99 164 100
Width: 536
GlyphClass: 2
Flags: W
HStem: 107 70<226.227 379.516> 509 70<235.484 386.183>
VStem: 92 67<248.006 426.8> 456 67<257.705 435.256>
LayerCount: 2
Fore
SplineSet
159 342 m 0
 159 340 159 338 159 336 c 0
 159 243 218 177 303 177 c 0
 389 177 453 246 456 342 c 0
 456 344 456 346 456 348 c 0
 456 441 396 509 312 509 c 0
 226 509 162 438 159 342 c 0
78 147 m 1
 132 204 l 1
 107 244 92 290 92 342 c 0
 92 394 110 442 137 481 c 1
 78 539 l 1
 68 550 l 1
 78 561 l 1
 109 592 l 1
 120 602 l 1
 131 592 l 1
 188 534 l 1
 224 562 267 579 314 579 c 0
 361 579 404 562 438 534 c 1
 491 592 l 1
 501 602 l 1
 510 592 l 1
 537 561 l 1
 547 550 l 1
 537 539 l 1
 482 481 l 1
 507 441 523 394 523 342 c 0
 523 290 507 243 479 204 c 1
 537 147 l 1
 547 136 l 1
 537 125 l 1
 506 94 l 1
 495 84 l 1
 484 94 l 1
 427 152 l 1
 391 124 348 107 301 107 c 0
 254 107 211 124 178 152 c 1
 124 94 l 1
 114 84 l 1
 105 94 l 1
 78 125 l 1
 68 136 l 1
 78 147 l 1
EndSplineSet
Validated: 1
EndChar

StartChar: yen
Encoding: 100 165 101
Width: 547
GlyphClass: 2
Flags: W
HStem: -15 62<69 167.094 282.048 358> 191 62<92 201 337 447> 283 62<117 226 373 472> 637 62<101 183.662 295 361 443 498.952 587.1 676>
LayerCount: 2
Fore
SplineSet
57 4 m 1
 66 36 l 1
 69 47 l 1
 79 47 l 1
 147 47 l 2
 159 47 163 50 166 64 c 2
 201 191 l 1
 93 191 l 1
 74 191 l 1
 80 210 l 1
 89 242 l 1
 92 253 l 1
 103 253 l 1
 218 253 l 1
 226 283 l 1
 118 283 l 1
 99 283 l 1
 105 302 l 1
 114 334 l 1
 117 345 l 1
 128 345 l 1
 231 345 l 1
 185 610 l 2
 180 632 178 637 166 637 c 2
 103 637 l 1
 83 637 l 1
 89 656 l 1
 98 688 l 1
 101 699 l 1
 112 699 l 1
 359 699 l 1
 379 699 l 1
 373 680 l 1
 364 648 l 1
 361 637 l 1
 350 637 l 1
 310 637 l 2
 294 637 295 633 295 632 c 2
 295 631 l 1
 295 630 l 1
 295 630 294 628 294 626 c 0
 294 622 295 617 295 614 c 1
 296 614 l 1
 296 613 l 1
 340 392 l 1
 400 466 l 1
 482 571 l 2
 487 579 498 601 499 612 c 2
 499 612 499 613 499 613 c 2
 499 624 495 637 483 637 c 2
 445 637 l 1
 426 637 l 1
 431 656 l 1
 440 688 l 1
 443 699 l 1
 455 699 l 1
 674 699 l 1
 694 699 l 1
 688 680 l 1
 679 648 l 1
 676 637 l 1
 665 637 l 1
 627 637 l 2
 607 637 589 620 562 588 c 2
 441 432 l 1
 373 345 l 1
 471 345 l 1
 490 345 l 1
 484 326 l 1
 475 294 l 1
 472 283 l 1
 461 283 l 1
 345 283 l 1
 337 253 l 1
 446 253 l 1
 465 253 l 1
 459 234 l 1
 450 202 l 1
 447 191 l 1
 436 191 l 1
 320 191 l 1
 283 56 l 2
 282 53 282 50 282 49 c 0
 282 48 282 48 282 48 c 2
 283 47 285 47 289 47 c 2
 357 47 l 1
 375 47 l 1
 370 28 l 1
 361 -4 l 1
 358 -15 l 1
 348 -15 l 1
 69 -15 l 1
 51 -15 l 1
 57 4 l 1
EndSplineSet
Validated: 1
EndChar

StartChar: brokenbar
Encoding: 101 166 102
Width: 272
GlyphClass: 2
Flags: W
VStem: 128 74<-183 207> 136 74<355 745>
LayerCount: 2
Fore
SplineSet
136 370 m 1x40
 136 730 l 1
 136 745 l 1
 151 745 l 1
 195 745 l 1
 210 745 l 1
 210 730 l 1
 205 370 l 1
 204 355 l 1
 191 355 l 1
 151 355 l 1
 136 355 l 1
 136 370 l 1x40
128 -168 m 1x80
 133 192 l 1
 134 207 l 1
 147 207 l 1
 187 207 l 1
 202 207 l 1
 202 192 l 1
 202 -168 l 1
 202 -183 l 1
 187 -183 l 1
 143 -183 l 1
 128 -183 l 1
 128 -168 l 1x80
EndSplineSet
Validated: 1
EndChar

StartChar: section
Encoding: 102 167 103
Width: 583
GlyphClass: 2
Flags: W
HStem: -201 60<146.948 260.336> -70 117<129.236 187.974> 469 117<390.026 448.999> 657 60<320.307 431.052>
VStem: 56 72<-119.978 -64> 88 82<242.865 335.984> 196 82<484.012 612.794> 300 82<-96.7252 29.3358> 408 82<180.016 273.135> 450 72<582.094 635.978>
LayerCount: 2
Fore
SplineSet
56 -54 m 0xfb80
 56 1 94 47 148 47 c 0
 168 47 200 33 200 -10 c 2
 200 -10 200 -11 200 -12 c 0
 199 -45 176 -70 150 -70 c 0
 141 -70 134 -67 129 -65 c 1
 128 -64 l 1
 128 -68 128 -71 128 -74 c 0
 128 -75 128 -75 128 -76 c 0xfb80
 128 -107 154 -141 203 -141 c 0
 211 -141 220 -140 229 -136 c 0
 263 -125 300 -93 300 -26 c 0
 300 -25 300 -25 300 -24 c 0
 300 12 280 30 252 54 c 2
 154 137 l 2
 102 177 88 222 88 260 c 0
 88 329 149 406 210 443 c 1
 201 464 196 489 196 521 c 0
 196 629 273 692 344 711 c 0
 358 715 372 717 386 717 c 0
 474 717 522 635 522 570 c 0
 522 515 484 469 430 469 c 0
 410 469 378 483 378 526 c 2
 378 526 378 527 378 528 c 0
 379 561 402 586 428 586 c 0
 435 586 441 585 445 583 c 0
 447 583 449 582 449 582 c 2
 450 584 450 587 450 590 c 0
 450 591 450 591 450 592 c 0xf740
 450 623 424 657 375 657 c 0
 369 657 362 656 355 654 c 0
 320 644 278 608 278 537 c 0
 278 536 278 535 278 534 c 0
 278 501 293 488 321 466 c 2
 424 379 l 2
 476 339 490 294 490 256 c 0
 490 187 429 110 368 73 c 1
 377 52 382 27 382 -5 c 1
 382 -108 313 -170 244 -192 c 0
 226 -198 209 -201 192 -201 c 0
 104 -201 56 -119 56 -54 c 0xfb80
170 290 m 0xf780
 170 264 187 245 203 232 c 2
 322 130 l 2
 327 125 335 118 340 112 c 1
 380 140 408 185 408 226 c 0
 408 252 391 271 375 284 c 2
 256 386 l 2
 251 391 243 398 238 404 c 1
 198 376 170 331 170 290 c 0xf780
EndSplineSet
Validated: 5
EndChar

StartChar: dieresis
Encoding: 103 168 104
Width: 428
GlyphClass: 2
Flags: W
HStem: 533 126<190.644 283.356 378.644 471.356>
VStem: 174 126<549.644 642.356> 362 126<549.644 642.356>
LayerCount: 2
Fore
SplineSet
362 596 m 0
 362 630 391 659 425 659 c 0
 459 659 488 630 488 596 c 0
 488 562 459 533 425 533 c 0
 391 533 362 562 362 596 c 0
174 596 m 0
 174 630 203 659 237 659 c 0
 271 659 300 630 300 596 c 0
 300 562 271 533 237 533 c 0
 203 533 174 562 174 596 c 0
EndSplineSet
Validated: 1
EndChar

StartChar: copyright
Encoding: 104 169 105
Width: 761
GlyphClass: 2
Flags: W
HStem: -33 58<307.926 510.997> 95 54<378.158 477.643> 551 54<382.362 472.253> 687 58<317.99 519.521>
VStem: 63 58<229.741 473.789> 227 106<220.487 457.689> 525 53<280 293> 526 43<405 419 565.099 599> 709 58<238.211 478.532>
LayerCount: 2
Fore
SplineSet
121 356 m 1xfc80
 121 175 244 25 407 25 c 0
 570 25 709 176 709 356 c 1
 709 537 582 687 421 687 c 0
 260 687 121 536 121 356 c 1xfc80
63 356 m 0
 63 570 225 745 423 745 c 0
 616 745 767 570 767 356 c 0
 767 142 605 -33 405 -33 c 0
 210 -33 63 142 63 356 c 0
227 338 m 0
 231 489 306 605 432 605 c 0
 439 605 446 604 453 602 c 0
 483 595 506 575 513 569 c 0
 519 563 515 565 522 565 c 0
 524 567 529 576 529 584 c 2
 530 599 l 1
 543 599 l 1
 559 599 l 1
 573 599 l 1
 572 584 l 1
 569 420 l 1
 569 405 l 1
 554 405 l 1
 538 405 l 1
 526 405 l 1xfd80
 525 419 l 2
 521 485 474 540 440 550 c 0
 437 551 433 551 430 551 c 0
 362 551 337 457 334 338 c 0
 333 335 333 331 333 328 c 0
 333 249 358 149 421 149 c 0
 492 149 515 216 523 280 c 2
 525 293 l 1
 538 293 l 1
 562 293 l 1
 578 293 l 1xfe80
 577 277 l 2
 570 199 525 95 420 95 c 0
 290 95 227 217 227 330 c 0
 227 333 227 335 227 338 c 0
EndSplineSet
Validated: 5
EndChar

StartChar: ordfeminine
Encoding: 105 170 106
Width: 360
GlyphClass: 2
Flags: W
HStem: 347 54<89 161 208 277 322 337> 667 48<230.158 283.356>
VStem: 98 82<445.392 592.74>
LayerCount: 2
Fore
SplineSet
98 503 m 0
 98 585 155 715 259 715 c 0
 279 715 294 705 305 693 c 1
 306 698 l 1
 309 709 l 1
 319 709 l 1
 367 709 l 1
 386 709 l 1
 381 690 l 1
 326 493 l 2
 323 484 318 464 318 455 c 1
 334 463 359 504 372 539 c 2
 377 554 l 1
 391 548 l 1
 403 543 l 1
 417 537 l 1
 412 524 l 2
 397 485 366 418 322 401 c 1
 333 401 l 1
 353 401 l 1
 347 382 l 1
 340 358 l 1
 337 347 l 1
 326 347 l 1
 93 347 l 1
 73 347 l 1
 79 366 l 1
 86 390 l 1
 89 401 l 1
 100 401 l 1
 161 401 l 1
 119 414 98 455 98 503 c 0
180 475 m 0
 180 454 187 445 195 445 c 0
 215 445 254 502 271 567 c 2
 279 598 l 1
 283 612 284 626 284 636 c 0
 284 637 284 637 284 638 c 0
 284 653 279 667 260 667 c 0
 225 667 180 570 180 475 c 0
277 401 m 1
 259 407 250 420 245 431 c 1
 235 419 222 407 208 401 c 1
 277 401 l 1
EndSplineSet
Validated: 5
EndChar

StartChar: guillemotleft
Encoding: 106 171 107
Width: 416
GlyphClass: 2
Flags: W
HStem: -3 21G<163 183>
VStem: 163 47<16.8 32> 262 47<72.1111 87>
LayerCount: 2
Fore
SplineSet
192 240 m 2
 243 283 304 345 349 392 c 2
 359 403 l 1
 370 393 l 1
 381 383 l 1
 391 374 l 1
 383 363 l 1
 280 224 l 1
 307 87 l 1
 309 76 l 1
 300 71 l 1
 283 61 l 1
 268 52 l 1
 262 68 l 2
 243 116 215 177 189 219 c 2
 182 231 l 1
 192 240 l 2
48 240 m 2
 127 299 195 361 280 449 c 2
 290 459 l 1
 300 449 l 1
 311 439 l 1
 321 430 l 1
 312 419 l 1
 163 225 l 1
 207 32 l 1
 210 21 l 1
 200 15 l 1
 183 5 l 1
 169 -3 l 1
 163 11 l 2
 126 99 92 160 45 219 c 2
 36 231 l 1
 48 240 l 2
EndSplineSet
Validated: 1
EndChar

StartChar: logicalnot
Encoding: 107 172 108
Width: 539
GlyphClass: 2
Flags: W
HStem: 391 70<64 470>
VStem: 470 74<225 391>
LayerCount: 2
Fore
SplineSet
64 406 m 1
 64 446 l 1
 64 461 l 1
 79 461 l 1
 529 461 l 1
 544 461 l 1
 544 446 l 1
 544 406 l 1
 544 240 l 1
 544 225 l 1
 529 225 l 1
 485 225 l 1
 470 225 l 1
 470 240 l 1
 470 391 l 1
 79 391 l 1
 64 391 l 1
 64 406 l 1
EndSplineSet
Validated: 1
EndChar

StartChar: softhyphen
Encoding: 108 173 109
Width: 333
GlyphClass: 2
Flags: W
HStem: 209 86<91.3783 314.21>
VStem: 43 48<181 207.279> 315 48<296.721 323>
LayerCount: 2
Fore
SplineSet
43 196 m 2
 43 244 70 295 126 295 c 2
 302 295 l 2
 315 295 315 295 315 308 c 2
 315 323 l 1
 330 323 l 1
 348 323 l 1
 363 323 l 1
 363 308 l 2
 363 260 335 209 280 209 c 2
 104 209 l 2
 90 209 91 209 91 196 c 2
 91 181 l 1
 76 181 l 1
 58 181 l 1
 43 181 l 1
 43 196 l 2
EndSplineSet
Validated: 1
EndChar

StartChar: registered
Encoding: 109 174 110
Width: 756
GlyphClass: 2
Flags: W
HStem: -33 58<304.417 502.53> 103 66<545.021 588.734> 115 54<209 262 355.047 412> 343 54<360 441.624> 547 54<225 271.952 365.002 458.725> 687 58<321.294 519.018>
VStem: 63 58<231.093 474.484> 262 93<170.001 343 397 430.8> 272 88<287.333 343 397 545.999> 470 107<409.272 536.747> 599 45<170.869 259> 704 58<238.211 482.259>
LayerCount: 2
Fore
SplineSet
63 356 m 0x9e70
 63 570 225 745 423 745 c 0
 616 745 762 570 762 356 c 0
 762 142 600 -33 402 -33 c 0
 209 -33 63 142 63 356 c 0x9e70
360 397 m 1x9ef0
 416 397 l 2
 446 397 469 419 470 470 c 0
 470 472 470 474 470 476 c 0
 470 522 456 547 419 547 c 2
 371 547 l 2
 368 547 365 546 365 546 c 2
 365 545 364 543 364 540 c 2
 360 397 l 1x9ef0
204 130 m 1
 204 154 l 1
 205 169 l 1
 218 169 l 1
 256 169 l 2
 259 169 261 170 262 170 c 1xbf70
 262 171 262 173 263 176 c 2
 272 540 l 2
 273 544 272 546 272 546 c 2
 271 547 269 547 266 547 c 2
 229 547 l 1
 215 547 l 1
 215 562 l 1
 215 586 l 1
 215 591 l 1
 156 531 121 447 121 356 c 0
 121 265 153 181 203 121 c 1
 204 130 l 1
209 115 m 1
 258 59 326 25 403 25 c 0
 565 25 704 176 704 356 c 1
 704 537 582 687 421 687 c 0
 346 687 278 654 225 601 c 1
 230 601 l 1
 435 601 l 2
 508 601 577 563 577 480 c 0
 577 479 577 477 577 476 c 0
 575 412 532 380 500 366 c 1
 527 349 551 316 555 253 c 0
 559 196 559 169 573 169 c 0
 589 169 598 214 599 244 c 2
 600 259 l 1
 613 259 l 1
 629 259 l 1
 644 259 l 1
 644 244 l 2
 644 206 637 103 549 103 c 0
 530 103 512 106 495 120 c 0
 474 137 459 167 459 213 c 0
 459 215 459 217 459 219 c 2
 461 273 l 2
 461 275 461 276 461 278 c 0
 461 311 451 326 442 334 c 0
 434 341 424 343 416 343 c 2
 359 343 l 1
 354 176 l 2
 354 172 355 170 355 170 c 2xdf70
 356 169 357 169 360 169 c 2xbef0
 400 169 l 1
 414 169 l 1
 413 154 l 1
 413 130 l 1
 412 115 l 1
 399 115 l 1
 217 115 l 1
 209 115 l 1
EndSplineSet
Validated: 1
EndChar

StartChar: macron
Encoding: 110 713 111
AltUni2: 0000af.ffffffff.0
Width: 398
GlyphClass: 2
Flags: W
HStem: 536 60<179 519>
LayerCount: 2
Fore
SplineSet
164 536 m 1
 166 542 l 1
 167 548 l 1
 177 588 l 1
 178 592 l 1
 179 596 l 1
 183 596 l 1
 187 596 l 1
 521 596 l 1
 527 596 l 1
 534 596 l 1
 532 590 l 1
 531 584 l 1
 521 544 l 1
 520 540 l 1
 519 536 l 1
 515 536 l 1
 511 536 l 1
 177 536 l 1
 170 536 l 1
 164 536 l 1
EndSplineSet
Validated: 1
EndChar

StartChar: degree
Encoding: 111 176 112
Width: 557
GlyphClass: 2
Flags: W
HStem: 325 70<252.348 367.814> 661 54<346.794 429.867>
VStem: 174 102<402.123 560.611> 440 58<483.945 653.424>
LayerCount: 2
Fore
SplineSet
276 462 m 0
 276 409 302 395 317 395 c 0
 383 395 440 484 440 594 c 0
 440 647 415 661 399 661 c 0
 334 661 276 572 276 462 c 0
174 462 m 0
 174 563 253 715 385 715 c 0
 454 715 498 655 498 578 c 0
 498 477 420 325 287 325 c 0
 219 325 174 385 174 462 c 0
EndSplineSet
Validated: 1
EndChar

StartChar: plusminus
Encoding: 112 177 113
Width: 864
GlyphClass: 2
Flags: W
HStem: -55 70<55 846> 323 70<55 425 493 854>
VStem: 417 67<49 290.625> 434 66<430 667>
LayerCount: 2
Fore
SplineSet
55 338 m 1xe0
 55 378 l 1
 55 393 l 1
 70 393 l 1
 427 393 l 1
 434 652 l 1
 434 667 l 1
 448 667 l 1
 487 667 l 1
 501 667 l 1
 500 652 l 1xd0
 493 393 l 1
 840 393 l 1
 854 393 l 1
 854 378 l 1
 854 338 l 1
 854 323 l 1
 839 323 l 1
 491 323 l 1
 484 64 l 1
 484 49 l 1
 471 49 l 1
 431 49 l 1
 417 49 l 1
 418 64 l 1
 425 323 l 1
 70 323 l 1
 55 323 l 1
 55 338 l 1xe0
70 15 m 1
 831 15 l 1
 846 15 l 1
 846 0 l 1
 846 -40 l 1
 846 -55 l 1
 831 -55 l 1
 68 -55 l 1
 55 -55 l 1
 55 -40 l 1
 55 0 l 1
 55 15 l 1
 70 15 l 1
EndSplineSet
Validated: 1
EndChar

StartChar: twosuperior
Encoding: 113 178 114
Width: 368
GlyphClass: 2
Flags: W
HStem: 255 97<192.761 306.883> 513 101<194.234 240.125> 663 54<215.783 318.31>
VStem: 45 66<294.513 334.755> 133 120<528.779 608.176> 331 94<541.25 652.077>
LayerCount: 2
Fore
SplineSet
45 294 m 0
 45 317 50 337 59 354 c 0
 77 391 112 415 151 433 c 2
 192 455 l 1
 235 478 l 2
 281 502 331 548 331 598 c 0
 331 634 317 663 270 663 c 0
 255 663 240 658 227 650 c 0
 209 638 196 621 194 610 c 1
 199 613 204 614 210 614 c 0
 233 614 253 598 253 571 c 0
 253 541 229 513 195 513 c 0
 155 513 133 547 133 583 c 0
 133 629 162 669 200 693 c 0
 225 708 253 717 283 717 c 0
 367 717 425 667 425 594 c 0
 425 505 336 465 280 438 c 2
 222 411 l 1
 181 391 l 2
 169 386 160 381 157 378 c 1
 158 377 160 376 162 374 c 0
 182 363 231 352 265 352 c 0
 289 352 313 370 323 385 c 2
 335 409 l 1
 339 418 l 1
 348 418 l 1
 359 418 l 1
 381 418 l 1
 374 398 l 2
 356 348 325 255 251 255 c 0
 208 255 180 286 160 308 c 0
 152 318 144 326 138 331 c 0
 133 334 129 335 127 335 c 0
 113 335 107 335 107 325 c 0
 107 322 106 324 110 319 c 1
 111 319 l 1
 111 318 l 1
 115 313 119 305 119 294 c 0
 119 281 112 256 83 256 c 0
 62 256 45 271 45 294 c 0
EndSplineSet
Validated: 1
Substitution2: "Substitution simple lookup 45 subtable" two.dnom
EndChar

StartChar: threesuperior
Encoding: 114 179 115
Width: 368
GlyphClass: 2
Flags: W
HStem: 255 54<136.711 244.226> 346 100<131.842 178.55> 458 73<152.694 239.673> 477 54<186.747 273.762> 547 94<213 247.561> 667 50<216.439 327.812>
VStem: 65 122<354.906 423.079> 149 108<559.079 636.665> 285 94<352.368 472.15> 331 88<558.319 663.426>
LayerCount: 2
Fore
SplineSet
65 368 m 0xde80
 65 421 107 446 136 446 c 0
 176 446 187 415 187 393 c 0
 187 367 166 346 137 346 c 0
 135 346 132 346 131 346 c 1
 133 327 148 314 174 310 c 0
 179 309 183 309 188 309 c 0
 246 309 285 362 285 424 c 0
 285 455 280 466 274 470 c 0
 269 474 259 477 240 477 c 0xde80
 233 477 228 475 223 471 c 0
 214 464 202 458 186 458 c 0
 165 458 149 474 149 494 c 1
 149 508 160 531 186 531 c 2xed80
 245 531 l 1
 260 531 l 2
 270 531 279 534 287 539 c 0
 312 553 331 585 331 618 c 0
 331 661 318 667 278 667 c 0
 270 667 262 666 255 664 c 0
 234 660 218 649 213 641 c 1
 214 641 215 641 217 641 c 0
 246 641 257 619 257 600 c 0
 257 576 241 547 206 547 c 0
 169 547 149 577 149 607 c 0
 149 659 190 695 235 710 c 0
 250 714 266 717 282 717 c 0
 354 717 419 684 419 610 c 0xdd40
 419 549 372 516 334 501 c 1
 359 486 379 460 379 417 c 0
 379 317 277 255 187 255 c 0
 177 255 167 256 157 258 c 0
 102 268 65 311 65 368 c 0xde80
EndSplineSet
Validated: 5
Substitution2: "Substitution simple lookup 45 subtable" three.dnom
EndChar

StartChar: acute
Encoding: 115 714 116
AltUni2: 0000b4.ffffffff.0
Width: 418
GlyphClass: 2
Flags: W
HStem: 497 183
VStem: 292 206
LayerCount: 2
Fore
SplineSet
292 519 m 1
 295 523 l 1
 298 527 l 1
 404 650 l 2
 423 672 440 680 460 680 c 0
 489 680 498 657 498 641 c 0
 498 610 472 593 461 587 c 2
 323 500 l 1
 320 497 l 1
 316 495 l 1
 313 498 l 1
 311 501 l 1
 299 513 l 1
 295 516 l 1
 292 519 l 1
EndSplineSet
Validated: 1
EndChar

StartChar: mu1
Encoding: 116 181 117
Width: 568
GlyphClass: 2
Flags: W
HStem: -282 21G<70.5 116> -12 66<193.094 262.445 382.5 464.823> 424 20G<164 272 417 524>
VStem: 26 121<-251.14 -146.611>
LayerCount: 2
Fore
SplineSet
99 -282 m 0
 42 -282 26 -210 26 -167 c 0
 26 -106 33 -35 54 57 c 0
 61 85 69 115 78 148 c 2
 164 434 l 1
 167 444 l 1
 180 444 l 1
 252 444 l 1
 272 444 l 1
 267 426 l 1
 209 241 l 2
 204 220 188 146 187 126 c 0
 187 123 187 120 187 117 c 0
 187 77 196 54 219 54 c 0
 234 54 250 61 267 75 c 0
 298 100 326 148 343 202 c 2
 417 434 l 1
 420 444 l 1
 433 444 l 1
 505 444 l 1
 524 444 l 1
 519 426 l 1
 423 108 l 2
 419 98 415 84 415 75 c 0
 415 59 416 54 432 54 c 0
 458 54 509 123 548 198 c 2
 556 212 l 1
 569 204 l 1
 584 195 l 1
 596 188 l 1
 590 175 l 2
 560 115 498 -12 401 -12 c 0
 350 -12 321 22 314 60 c 1
 311 56 310 55 307 52 c 0
 280 19 243 -12 198 -12 c 0
 155 -12 125 19 110 55 c 1
 104 27 l 2
 102 14 101 2 101 -9 c 0
 101 -88 118 -129 132 -163 c 0
 140 -184 147 -203 147 -224 c 2
 147 -224 147 -225 147 -226 c 0
 147 -249 133 -282 99 -282 c 0
EndSplineSet
Validated: 1
EndChar

StartChar: paragraph
Encoding: 117 182 118
Width: 524
GlyphClass: 2
Flags: W
HStem: 663 64<423 485 554 622>
LayerCount: 2
Fore
SplineSet
133 -152 m 1
 275 372 l 1
 199 379 148 426 148 499 c 0
 148 602 245 727 383 727 c 2
 620 727 l 1
 640 727 l 1
 635 708 l 1
 625 674 l 1
 622 663 l 1
 610 663 l 1
 554 663 l 1
 331 -160 l 1
 328 -171 l 1
 316 -171 l 1
 278 -171 l 1
 259 -171 l 1
 264 -152 l 1
 485 663 l 1
 423 663 l 1
 200 -160 l 1
 197 -171 l 1
 185 -171 l 1
 147 -171 l 1
 128 -171 l 1
 133 -152 l 1
EndSplineSet
Validated: 1
EndChar

StartChar: periodcentered
Encoding: 118 183 119
Width: 252
GlyphClass: 2
Flags: W
HStem: 239 154<137.305 244.695>
VStem: 114 154<262.305 369.695>
LayerCount: 2
Fore
SplineSet
114 316 m 0
 114 360 147 393 191 393 c 0
 235 393 268 360 268 316 c 0
 268 272 235 239 191 239 c 0
 147 239 114 272 114 316 c 0
EndSplineSet
Validated: 1
Substitution2: "'locl' Formes localis+AOkA-es g+AOkA-ographiquement in Grec lookup 8 subtable" anoteleia
EndChar

StartChar: cedilla
Encoding: 119 184 120
Width: 424
GlyphClass: 2
Flags: W
HStem: -227 52<101.29 159.452>
VStem: 140 56<-66.8796 -1.76526> 151 45<-46.436 -5> 164 80<-171.314 -72.1356>
LayerCount: 2
Fore
SplineSet
33 -148 m 1x90
 33 -121 52 -82 90 -82 c 0
 119 -82 133 -105 133 -128 c 0
 133 -149 118 -165 101 -168 c 0
 101 -169 101 -175 124 -175 c 0
 154 -175 164 -154 164 -136 c 0x90
 164 -119 158 -105 151 -89 c 0xa0
 145 -76 140 -62 140 -47 c 1xc0
 140 -35 143 -21 151 -6 c 1
 151 -5 l 1xa0
 166 20 l 1
 174 33 l 1
 187 25 l 1
 206 13 l 1
 219 5 l 1
 211 -8 l 1
 198 -29 l 2
 197 -31 196 -33 196 -36 c 0xc0
 196 -41 198 -47 212 -61 c 0
 230 -79 244 -99 244 -126 c 0
 244 -185 189 -227 122 -227 c 0
 84 -227 33 -204 33 -148 c 1x90
EndSplineSet
Validated: 5
EndChar

StartChar: onesuperior
Encoding: 120 185 121
Width: 367
GlyphClass: 2
Flags: W
HStem: 265 54<103 173.999 269 326> 558 51<182.451 244.551>
VStem: 87 292
LayerCount: 2
Fore
SplineSet
93 284 m 2
 103 319 l 1
 169 319 l 2
 172 319 174 320 174 320 c 1
 174 320 175 321 175 323 c 2
 247 574 l 1
 230 568 214 564 199 561 c 2
 183 558 l 1
 176 609 l 1
 190 612 l 2
 229 619 288 646 324 700 c 2
 329 707 l 1
 379 707 l 1
 269 319 l 1
 342 319 l 1
 326 265 l 1
 87 265 l 1
 87 265 89 273 93 284 c 2
EndSplineSet
Validated: 1
Substitution2: "Substitution simple lookup 45 subtable" one.dnom
EndChar

StartChar: ordmasculine
Encoding: 121 186 122
Width: 366
GlyphClass: 2
Flags: W
HStem: 347 96<205.516 263.25> 347 54<86 188 264 343> 665 48<260.691 320.487>
VStem: 122 82<443.132 582.931> 324 82<524.312 663.519>
LayerCount: 2
Fore
SplineSet
122 508 m 0x78
 122 595 198 713 302 713 c 0
 366 713 406 662 406 598 c 0
 406 523 348 426 264 401 c 1
 339 401 l 1
 359 401 l 1
 353 382 l 1
 346 358 l 1
 343 347 l 1
 332 347 l 1
 91 347 l 1
 71 347 l 1
 76 366 l 1
 83 390 l 1
 86 401 l 1
 98 401 l 1
 188 401 l 1
 147 416 122 458 122 508 c 0x78
204 484 m 0
 204 454 212 443 229 443 c 0xb8
 275 443 324 546 324 621 c 0
 324 652 315 665 297 665 c 0
 252 665 204 558 204 484 c 0
EndSplineSet
Validated: 1
EndChar

StartChar: guillemotright
Encoding: 122 187 123
Width: 422
GlyphClass: 2
Flags: W
HStem: -3 21G<140 159>
VStem: 130 48<369 383.889> 230 46<424 439.667>
LayerCount: 2
Fore
SplineSet
57 93 m 1
 160 232 l 1
 132 369 l 1
 130 380 l 1
 139 385 l 1
 156 395 l 1
 172 404 l 1
 178 388 l 2
 197 340 224 279 251 237 c 2
 258 225 l 1
 248 216 l 2
 197 173 136 111 91 64 c 2
 81 53 l 1
 70 63 l 1
 59 73 l 1
 49 82 l 1
 57 93 l 1
127 37 m 1
 277 231 l 1
 233 424 l 1
 230 435 l 1
 239 441 l 1
 256 451 l 1
 270 459 l 1
 276 445 l 2
 314 357 347 296 394 237 c 2
 404 225 l 1
 392 216 l 2
 312 157 244 95 159 7 c 1
 150 -3 l 1
 140 7 l 1
 129 17 l 1
 118 26 l 1
 127 37 l 1
EndSplineSet
Validated: 1
EndChar

StartChar: onequarter
Encoding: 123 188 124
Width: 761
GlyphClass: 2
Flags: W
HStem: -15 54<547 616.953 713 772> 97 56<580 633 744 828> 265 54<103 173.999 269 326> 558 51<182.451 244.551> 703 20G<642 663>
LayerCount: 2
Fore
SplineSet
674 240 m 1
 580 153 l 1
 648 153 l 1
 674 240 l 1
775 336 m 1
 792 336 l 1
 787 317 l 1
 744 153 l 1
 825 153 l 1
 845 153 l 1
 839 134 l 1
 831 108 l 1
 828 97 l 1
 817 97 l 1
 728 97 l 1
 713 39 l 1
 767 39 l 1
 786 39 l 1
 781 20 l 1
 775 -4 l 1
 772 -15 l 1
 761 -15 l 1
 553 -15 l 1
 533 -15 l 1
 538 4 l 1
 544 28 l 1
 547 39 l 1
 559 39 l 1
 612 39 l 2
 615 39 616 39 617 40 c 2
 617 40 617 41 618 44 c 2
 633 97 l 1
 497 97 l 1
 476 97 l 1
 482 116 l 1
 490 142 l 1
 492 146 l 1
 494 149 l 1
 624 270 l 2
 671 316 707 374 713 418 c 2
 715 431 l 1
 728 431 l 1
 800 431 l 1
 819 431 l 1
 814 412 l 2
 808 388 799 365 775 336 c 1
93 284 m 2
 103 319 l 1
 169 319 l 2
 172 319 174 320 174 320 c 1
 174 320 175 321 175 323 c 2
 247 574 l 1
 230 568 214 564 199 561 c 2
 183 558 l 1
 176 609 l 1
 190 612 l 2
 229 619 288 646 324 700 c 2
 329 707 l 1
 379 707 l 1
 269 319 l 1
 342 319 l 1
 326 265 l 1
 87 265 l 1
 87 265 89 273 93 284 c 2
202 8 m 1
 642 710 l 1
 650 723 l 1
 663 714 l 1
 675 706 l 1
 689 696 l 1
 701 688 l 1
 693 676 l 1
 253 -26 l 1
 245 -39 l 1
 232 -30 l 1
 206 -12 l 1
 194 -4 l 1
 202 8 l 1
EndSplineSet
Validated: 1
EndChar

StartChar: onehalf
Encoding: 124 189 125
Width: 761
GlyphClass: 2
Flags: W
HStem: -25 97<608.761 722.883> 233 101<610.234 656.125> 265 54<103 173.999 269 326> 383 54<631.783 734.31> 558 51<182.451 244.551> 703 20G<642 663>
VStem: 461 66<14.5134 54.7547> 549 120<248.779 328.176> 747 94<261.25 372.077>
LayerCount: 2
Fore
SplineSet
461 14 m 0xdf80
 461 37 466 57 475 74 c 0
 493 111 528 135 567 153 c 2
 608 175 l 1
 651 198 l 2
 697 222 747 268 747 318 c 0
 747 354 733 383 686 383 c 0
 671 383 656 378 643 370 c 0
 625 358 612 341 610 330 c 1
 615 333 620 334 626 334 c 0
 649 334 669 318 669 291 c 0
 669 261 645 233 611 233 c 0
 571 233 549 267 549 303 c 0
 549 349 578 389 616 413 c 0
 641 428 669 437 699 437 c 0
 783 437 841 387 841 314 c 0
 841 225 752 185 696 158 c 2
 638 131 l 1
 597 111 l 2
 585 106 576 101 573 98 c 1
 574 97 576 96 578 94 c 0
 598 83 647 72 681 72 c 0
 705 72 729 90 739 105 c 2
 751 129 l 1
 755 138 l 1
 764 138 l 1
 775 138 l 1
 797 138 l 1
 790 118 l 2
 772 68 741 -25 667 -25 c 0
 624 -25 596 6 576 28 c 0
 568 38 560 46 554 51 c 0
 549 54 545 55 543 55 c 0
 529 55 523 55 523 45 c 0
 523 42 522 44 526 39 c 1
 527 39 l 1
 527 38 l 1
 531 33 535 25 535 14 c 0
 535 1 528 -24 499 -24 c 0
 478 -24 461 -9 461 14 c 0xdf80
93 284 m 2
 103 319 l 1
 169 319 l 2
 172 319 174 320 174 320 c 1
 174 320 175 321 175 323 c 2
 247 574 l 1
 230 568 214 564 199 561 c 2
 183 558 l 1
 176 609 l 1
 190 612 l 2
 229 619 288 646 324 700 c 2
 329 707 l 1
 379 707 l 1
 269 319 l 1
 342 319 l 1
 326 265 l 1
 87 265 l 1xbf80
 87 265 89 273 93 284 c 2
202 8 m 1
 642 710 l 1
 650 723 l 1
 663 714 l 1
 675 706 l 1
 689 696 l 1
 701 688 l 1
 693 676 l 1
 253 -26 l 1
 245 -39 l 1
 232 -30 l 1
 206 -12 l 1
 194 -4 l 1
 202 8 l 1
EndSplineSet
Validated: 1
EndChar

StartChar: threequarters
Encoding: 125 190 126
Width: 761
GlyphClass: 2
Flags: W
HStem: -15 54<547 616.953 713 772> 97 56<580 633 744 828> 255 54<136.711 244.226> 346 100<131.842 178.55> 458 73<152.694 239.673> 477 54<186.747 273.762> 547 94<213 247.561> 667 50<216.439 327.812>
VStem: 65 122<354.906 423.079> 149 108<559.079 636.665> 285 94<352.368 472.15> 331 88<558.319 663.426>
LayerCount: 2
Fore
SplineSet
674 240 m 1xf3
 580 153 l 1
 648 153 l 1
 674 240 l 1xf3
775 336 m 1
 792 336 l 1
 787 317 l 1
 744 153 l 1
 825 153 l 1
 845 153 l 1
 839 134 l 1
 831 108 l 1
 828 97 l 1
 817 97 l 1
 728 97 l 1
 713 39 l 1
 767 39 l 1
 786 39 l 1
 781 20 l 1
 775 -4 l 1
 772 -15 l 1
 761 -15 l 1
 553 -15 l 1
 533 -15 l 1
 538 4 l 1
 544 28 l 1
 547 39 l 1
 559 39 l 1
 612 39 l 2
 615 39 616 39 617 40 c 2
 617 40 617 41 618 44 c 2
 633 97 l 1
 497 97 l 1
 476 97 l 1
 482 116 l 1
 490 142 l 1
 492 146 l 1
 494 149 l 1
 624 270 l 2
 671 316 707 374 713 418 c 2
 715 431 l 1
 728 431 l 1
 800 431 l 1
 819 431 l 1
 814 412 l 2
 808 388 799 365 775 336 c 1
65 368 m 0xf7a0
 65 421 107 446 136 446 c 0
 176 446 187 415 187 393 c 0
 187 367 166 346 137 346 c 0
 135 346 132 346 131 346 c 1
 133 327 148 314 174 310 c 0
 179 309 183 309 188 309 c 0
 246 309 285 362 285 424 c 0
 285 455 280 466 274 470 c 0
 269 474 259 477 240 477 c 0xf7a0
 233 477 228 475 223 471 c 0
 214 464 202 458 186 458 c 0
 165 458 149 474 149 494 c 1
 149 508 160 531 186 531 c 2xfb60
 245 531 l 1
 260 531 l 2
 270 531 279 534 287 539 c 0
 312 553 331 585 331 618 c 0
 331 661 318 667 278 667 c 0
 270 667 262 666 255 664 c 0
 234 660 218 649 213 641 c 1
 214 641 215 641 217 641 c 0
 246 641 257 619 257 600 c 0
 257 576 241 547 206 547 c 0
 169 547 149 577 149 607 c 0
 149 659 190 695 235 710 c 0
 250 714 266 717 282 717 c 0
 354 717 419 684 419 610 c 0xf750
 419 549 372 516 334 501 c 1
 359 486 379 460 379 417 c 0
 379 317 277 255 187 255 c 0
 177 255 167 256 157 258 c 0
 102 268 65 311 65 368 c 0xf7a0
202 8 m 1
 642 710 l 1
 650 723 l 1
 663 714 l 1
 675 706 l 1
 689 696 l 1
 701 688 l 1
 693 676 l 1
 253 -26 l 1
 245 -39 l 1
 232 -30 l 1
 206 -12 l 1
 194 -4 l 1
 202 8 l 1
EndSplineSet
Validated: 5
EndChar

StartChar: questiondown
Encoding: 126 191 127
Width: 416
GlyphClass: 2
Flags: W
HStem: -263 60<105.939 233.167> -37 20G<264.5 301.5> 247 60<204.761 291.41> 319 154<259.668 366.695>
VStem: -19 102<-178.011 -43.8195> 143 48<144.095 232.753> 236 154<342.305 449.695> 271 78<-164.708 -70.5> 294 72<177.579 244.288>
LayerCount: 2
Fore
SplineSet
236 396 m 1xfe
 237 440 269 473 313 473 c 0
 357 473 390 440 390 396 c 1
 390 352 357 319 313 319 c 0
 269 319 236 352 236 396 c 1xfe
-19 -88 m 0
 -19 -18 36 41 99 72 c 2
 225 135 l 1
 263 159 283 187 294 210 c 1
 294 238 277 247 257 247 c 0
 207 247 192 215 191 184 c 0
 191 180 194 168 196 165 c 2
 205 153 l 1
 193 143 l 1
 182 134 l 1
 173 126 l 1
 165 135 l 2
 155 146 143 166 143 192 c 0
 143 257 196 307 261 307 c 0
 316 307 366 267 366 204 c 1xfc80
 351 146 311 98 264 69 c 2
 150 -5 l 2
 111 -28 83 -58 83 -98 c 0
 83 -99 83 -100 83 -101 c 0
 83 -163 107 -203 154 -203 c 0
 192 -203 219 -194 237 -183 c 0
 264 -167 271 -145 271 -135 c 0
 271 -129 271 -130 262 -125 c 0
 234 -109 229 -91 229 -69 c 0
 229 -68 229 -66 229 -65 c 0
 230 -41 248 -17 281 -17 c 0
 322 -17 349 -46 349 -95 c 0xfd
 349 -157 300 -208 244 -236 c 0
 210 -253 175 -263 144 -263 c 0
 37 -263 -19 -183 -19 -88 c 0
EndSplineSet
Validated: 5
EndChar

StartChar: Agrave
Encoding: 127 192 128
Width: 728
GlyphClass: 2
Flags: W
HStem: 0 32<-24 84.1525 195.039 274 367 462.295 578.037 669> 229 62<333 468> 692 20G<545 593>
VStem: 464 112<32.3836 229 291 322.882> 476 117<435.118 503>
LayerCount: 2
Fore
SplineSet
436 895 m 0xe0
 436 908 444 945 486 945 c 0
 510 945 532 929 542 898 c 2
 583 776 l 1
 587 764 l 1
 577 758 l 1
 562 749 l 1
 551 743 l 1
 543 752 l 1
 455 849 l 2
 444 862 436 879 436 895 c 0xe0
476 503 m 1xe8
 333 291 l 1
 470 291 l 1
 476 503 l 1xe8
-40 0 m 1
 -35 10 l 1
 -27 26 l 1
 -24 32 l 1
 -12 32 l 1
 25 32 l 2
 78 32 117 66 136 97 c 2
 545 705 l 1
 549 712 l 1
 557 712 l 1
 579 712 l 1
 593 712 l 1
 593 697 l 1xe8
 576 61 l 2
 578 34 586 32 609 32 c 2
 665 32 l 1
 684 32 l 1
 679 24 l 1
 671 11 l 1
 669 0 l 1
 657 0 l 1
 369 0 l 1
 351 0 l 1
 356 10 l 1
 364 26 l 1
 367 32 l 1
 378 32 l 1
 437 32 l 2
 439 32 440 32 442 32 c 0
 456 32 463 33 464 66 c 2xf0
 468 229 l 1
 291 229 l 1
 227 128 l 2
 214 107 196 71 195 53 c 0
 195 52 195 51 195 50 c 0
 195 39 198 32 219 32 c 2
 271 32 l 1
 289 32 l 1
 285 24 l 1
 277 11 l 1
 274 0 l 1
 263 0 l 1
 -20 0 l 1
 -40 0 l 1
EndSplineSet
Validated: 1
Substitution2: "'c2sc' Capitales vers petites capitales lookup 1 subtable" agrave.sc
EndChar

StartChar: Aacute
Encoding: 128 193 129
Width: 728
GlyphClass: 2
Flags: W
HStem: 0 32<-24 84.1525 195.039 274 367 462.295 578.037 669> 229 62<333 468> 692 20G<545 593>
VStem: 464 112<32.3836 229 291 322.882> 476 117<435.118 503>
LayerCount: 2
Fore
SplineSet
522 784 m 1xe0
 628 907 l 2
 647 930 666 939 687 939 c 0
 721 939 730 912 730 895 c 0
 730 860 700 842 691 836 c 2
 553 749 l 1
 543 743 l 1
 534 751 l 1
 522 763 l 1
 512 773 l 1
 522 784 l 1xe0
476 503 m 1xe8
 333 291 l 1
 470 291 l 1
 476 503 l 1xe8
-40 0 m 1
 -35 10 l 1
 -27 26 l 1
 -24 32 l 1
 -12 32 l 1
 25 32 l 2
 78 32 117 66 136 97 c 2
 545 705 l 1
 549 712 l 1
 557 712 l 1
 579 712 l 1
 593 712 l 1
 593 697 l 1xe8
 576 61 l 2
 578 34 586 32 609 32 c 2
 665 32 l 1
 684 32 l 1
 679 24 l 1
 671 11 l 1
 669 0 l 1
 657 0 l 1
 369 0 l 1
 351 0 l 1
 356 10 l 1
 364 26 l 1
 367 32 l 1
 378 32 l 1
 437 32 l 2
 439 32 440 32 442 32 c 0
 456 32 463 33 464 66 c 2xf0
 468 229 l 1
 291 229 l 1
 227 128 l 2
 214 107 196 71 195 53 c 0
 195 52 195 51 195 50 c 0
 195 39 198 32 219 32 c 2
 271 32 l 1
 289 32 l 1
 285 24 l 1
 277 11 l 1
 274 0 l 1
 263 0 l 1
 -20 0 l 1
 -40 0 l 1
EndSplineSet
Validated: 1
Substitution2: "'c2sc' Capitales vers petites capitales lookup 1 subtable" aacute.sc
EndChar

StartChar: Acircumflex
Encoding: 129 194 130
Width: 728
GlyphClass: 2
Flags: W
HStem: 0 32<-24 84.1525 195.039 274 367 462.295 578.037 669> 229 62<333 468> 692 20G<545 593>
VStem: 464 112<32.3836 229 291 322.882> 476 117<435.118 503>
LayerCount: 2
Fore
SplineSet
399 791 m 2xe0
 477 830 532 881 567 929 c 2
 571 935 l 1
 578 935 l 1
 614 935 l 1
 624 935 l 1
 627 924 l 2
 636 876 662 828 718 790 c 2
 732 781 l 1
 721 768 l 1
 707 752 l 1
 700 744 l 1
 690 748 l 2
 658 761 606 801 577 838 c 1
 525 800 454 760 416 748 c 2
 402 743 l 1
 397 757 l 1
 391 773 l 1
 386 785 l 1
 399 791 l 2xe0
476 503 m 1xe8
 333 291 l 1
 470 291 l 1
 476 503 l 1xe8
-40 0 m 1
 -35 10 l 1
 -27 26 l 1
 -24 32 l 1
 -12 32 l 1
 25 32 l 2
 78 32 117 66 136 97 c 2
 545 705 l 1
 549 712 l 1
 557 712 l 1
 579 712 l 1
 593 712 l 1
 593 697 l 1xe8
 576 61 l 2
 578 34 586 32 609 32 c 2
 665 32 l 1
 684 32 l 1
 679 24 l 1
 671 11 l 1
 669 0 l 1
 657 0 l 1
 369 0 l 1
 351 0 l 1
 356 10 l 1
 364 26 l 1
 367 32 l 1
 378 32 l 1
 437 32 l 2
 439 32 440 32 442 32 c 0
 456 32 463 33 464 66 c 2xf0
 468 229 l 1
 291 229 l 1
 227 128 l 2
 214 107 196 71 195 53 c 0
 195 52 195 51 195 50 c 0
 195 39 198 32 219 32 c 2
 271 32 l 1
 289 32 l 1
 285 24 l 1
 277 11 l 1
 274 0 l 1
 263 0 l 1
 -20 0 l 1
 -40 0 l 1
EndSplineSet
Validated: 1
Substitution2: "'c2sc' Capitales vers petites capitales lookup 1 subtable" acircumflex.sc
EndChar

StartChar: Atilde
Encoding: 130 195 131
Width: 728
GlyphClass: 2
Flags: W
HStem: 0 32<-24 84.1525 195.039 274 367 462.295 578.037 669> 229 62<333 468> 692 20G<545 593> 797 82<583.465 689.042> 835 82<460.185 567.331>
VStem: 407 48<796.067 805> 464 112<32.3836 229 291 322.882> 476 117<435.118 503>
LayerCount: 2
Fore
SplineSet
408 811 m 2xf4
 413 862 445 917 509 917 c 0xec
 541 917 573 905 599 895 c 0
 622 886 646 879 663 879 c 0xf4
 678 879 688 887 692 909 c 2
 695 922 l 1
 709 921 l 1
 729 919 l 1
 743 917 l 1xec
 742 903 l 2
 738 852 706 797 641 797 c 0xf4
 609 797 578 809 552 819 c 0
 528 828 505 835 487 835 c 0xec
 472 835 462 827 458 805 c 2
 455 792 l 1
 442 793 l 1
 422 795 l 1
 407 797 l 1
 408 811 l 2xf4
476 503 m 1xe5
 333 291 l 1
 470 291 l 1
 476 503 l 1xe5
-40 0 m 1
 -35 10 l 1
 -27 26 l 1
 -24 32 l 1
 -12 32 l 1
 25 32 l 2
 78 32 117 66 136 97 c 2
 545 705 l 1
 549 712 l 1
 557 712 l 1
 579 712 l 1
 593 712 l 1
 593 697 l 1xe5
 576 61 l 2
 578 34 586 32 609 32 c 2
 665 32 l 1
 684 32 l 1
 679 24 l 1
 671 11 l 1
 669 0 l 1
 657 0 l 1
 369 0 l 1
 351 0 l 1
 356 10 l 1
 364 26 l 1
 367 32 l 1
 378 32 l 1
 437 32 l 2
 439 32 440 32 442 32 c 0
 456 32 463 33 464 66 c 2xe6
 468 229 l 1
 291 229 l 1
 227 128 l 2
 214 107 196 71 195 53 c 0
 195 52 195 51 195 50 c 0
 195 39 198 32 219 32 c 2
 271 32 l 1
 289 32 l 1
 285 24 l 1
 277 11 l 1
 274 0 l 1
 263 0 l 1
 -20 0 l 1
 -40 0 l 1
EndSplineSet
Validated: 1
MultipleSubs2: "Substitution multiple lookup 29 subtable" A tildecomb
EndChar

StartChar: Adieresis
Encoding: 131 196 132
Width: 728
GlyphClass: 2
Flags: W
HStem: 0 32<-24 84.1525 195.039 274 367 462.295 578.037 669> 229 62<333 468> 692 20G<545 593> 783 134<434.056 532.453 629.662 727.944>
VStem: 417 132<800.056 899.451> 464 112<32.3836 229 291 322.882> 476 117<435.118 503> 612 133<800.549 899.944>
LayerCount: 2
Fore
SplineSet
612 850 m 0xf1
 613 888 640 917 678 917 c 0
 716 917 745 888 745 850 c 0
 745 812 716 783 678 783 c 0
 640 783 612 811 612 848 c 0
 612 849 612 849 612 850 c 0xf1
417 850 m 0xf9
 417 888 446 917 484 917 c 0
 521 917 549 889 549 852 c 0
 549 851 549 851 549 850 c 0
 548 812 522 783 484 783 c 0
 446 783 417 812 417 850 c 0xf9
476 503 m 1xf3
 333 291 l 1
 470 291 l 1
 476 503 l 1xf3
-40 0 m 1
 -35 10 l 1
 -27 26 l 1
 -24 32 l 1
 -12 32 l 1
 25 32 l 2
 78 32 117 66 136 97 c 2
 545 705 l 1
 549 712 l 1xf9
 557 712 l 1
 579 712 l 1
 593 712 l 1
 593 697 l 1xf3
 576 61 l 2
 578 34 586 32 609 32 c 2
 665 32 l 1
 684 32 l 1
 679 24 l 1
 671 11 l 1
 669 0 l 1
 657 0 l 1
 369 0 l 1
 351 0 l 1
 356 10 l 1
 364 26 l 1
 367 32 l 1
 378 32 l 1
 437 32 l 2
 439 32 440 32 442 32 c 0
 456 32 463 33 464 66 c 2xf5
 468 229 l 1
 291 229 l 1
 227 128 l 2
 214 107 196 71 195 53 c 0
 195 52 195 51 195 50 c 0
 195 39 198 32 219 32 c 2
 271 32 l 1
 289 32 l 1
 285 24 l 1
 277 11 l 1
 274 0 l 1
 263 0 l 1
 -20 0 l 1
 -40 0 l 1
EndSplineSet
Validated: 1
MultipleSubs2: "Substitution multiple lookup 29 subtable" A uni0308
Substitution2: "'c2sc' Capitales vers petites capitales lookup 1 subtable" adieresis.sc
EndChar

StartChar: Aring
Encoding: 132 197 133
Width: 728
GlyphClass: 2
Flags: W
HStem: 0 32<-24 84.1525 195.039 274 367 462.295 578.037 669> 229 62<333 468> 692 20G<545 593> 739 54<511.805 603.157> 909 54<511.395 604.605>
VStem: 446 54<805.409 897.8> 464 112<32.3836 229 291 322.882> 476 117<435.118 503> 616 54<805.409 897.8>
LayerCount: 2
Fore
SplineSet
446 852 m 0xfc80
 446 914 496 963 558 963 c 0
 620 963 670 914 670 852 c 0
 670 790 621 739 558 739 c 0
 496 739 446 790 446 852 c 0xfc80
500 852 m 0
 500 818 524 793 558 793 c 0
 592 793 616 818 616 852 c 0
 616 886 592 909 558 909 c 0
 524 909 500 886 500 852 c 0
476 503 m 1xf980
 333 291 l 1
 470 291 l 1
 476 503 l 1xf980
-40 0 m 1
 -35 10 l 1
 -27 26 l 1
 -24 32 l 1
 -12 32 l 1
 25 32 l 2
 78 32 117 66 136 97 c 2
 545 705 l 1
 549 712 l 1
 557 712 l 1
 579 712 l 1
 593 712 l 1
 593 697 l 1xf980
 576 61 l 2
 578 34 586 32 609 32 c 2
 665 32 l 1
 684 32 l 1
 679 24 l 1
 671 11 l 1
 669 0 l 1
 657 0 l 1
 369 0 l 1
 351 0 l 1
 356 10 l 1
 364 26 l 1
 367 32 l 1
 378 32 l 1
 437 32 l 2
 439 32 440 32 442 32 c 0
 456 32 463 33 464 66 c 2xfa80
 468 229 l 1
 291 229 l 1
 227 128 l 2
 214 107 196 71 195 53 c 0
 195 52 195 51 195 50 c 0
 195 39 198 32 219 32 c 2
 271 32 l 1
 289 32 l 1
 285 24 l 1
 277 11 l 1
 274 0 l 1
 263 0 l 1
 -20 0 l 1
 -40 0 l 1
EndSplineSet
Validated: 1
MultipleSubs2: "Substitution multiple lookup 29 subtable" A uni030A
EndChar

StartChar: AE
Encoding: 133 198 134
Width: 1043
GlyphClass: 2
LigCaretCntFixed: 1
Flags: W
HStem: 0 32<-24 80.1894 202 277 338 448.999 572.048 819.58> 215 77<369 496> 337 62<670 770.153> 680 32<528 587.906 739.372 972.647>
AnchorPoint: "Anchor-2" 452 0 basechar 0
AnchorPoint: "Anchor-1" 770 782 basechar 0
AnchorPoint: "Anchor-0" 764 762 basechar 0
LayerCount: 2
Fore
SplineSet
-40 0 m 1
 -35 10 l 1
 -27 26 l 1
 -24 32 l 1
 -12 32 l 1
 27 32 l 2
 76 32 111 67 138 102 c 2
 541 612 l 2
 567 644 587 669 588 679 c 0
 586 680 584 680 580 680 c 2
 532 680 l 1
 512 680 l 1
 517 688 l 1
 525 701 l 1
 528 712 l 1
 541 712 l 1
 1091 712 l 1
 1109 712 l 1
 1106 703 l 1
 1060 496 l 1
 1057 484 l 1
 1045 484 l 1
 1020 484 l 1
 1003 484 l 1
 1005 501 l 1
 1005 501 1008 521 1008 547 c 0
 1008 660 972 680 913 680 c 2
 758 680 l 2
 746 680 743 678 739 663 c 2
 670 399 l 1
 753 399 l 2
 818 399 839 469 855 530 c 2
 858 541 l 1
 870 541 l 1
 896 541 l 1
 916 541 l 1
 911 522 l 1
 821 198 l 1
 818 187 l 1
 806 187 l 1
 780 187 l 1
 761 187 l 1
 765 205 l 2
 770 227 776 254 776 277 c 0
 776 279 776 282 776 284 c 0
 776 320 767 337 736 337 c 2
 653 337 l 1
 573 40 l 2
 572 37 572 34 572 33 c 0
 573 32 575 32 577 32 c 2
 753 32 l 2
 780 32 832 44 871 80 c 0
 932 138 976 258 976 258 c 1
 980 268 l 1
 991 268 l 1
 1015 268 l 1
 1035 268 l 1
 1029 249 l 1
 944 11 l 1
 940 0 l 1
 929 0 l 1
 342 0 l 1
 322 0 l 1
 327 10 l 1
 335 26 l 1
 338 32 l 1
 350 32 l 1
 428 32 l 2
 441 32 445 35 449 48 c 2
 496 215 l 1
 320 215 l 1
 241 120 l 2
 230 105 202 71 202 46 c 1
 202 39 202 32 223 32 c 2
 273 32 l 1
 293 32 l 1
 288 24 l 1
 280 11 l 1
 277 0 l 1
 265 0 l 1
 -20 0 l 1
 -40 0 l 1
586 554 m 1
 369 292 l 1
 512 292 l 1
 586 554 l 1
EndSplineSet
Validated: 5
Ligature2: "'rlig' Ligatures requises  lookup 21 subtable" A afii301 E
Ligature2: "'rlig' Ligatures requises  lookup 21 subtable" A afii301 e
Substitution2: "'c2sc' Capitales vers petites capitales lookup 1 subtable" ae.sc
LCarets2: 1 544
EndChar

StartChar: Ccedilla
Encoding: 134 199 135
Width: 681
GlyphClass: 2
Flags: W
HStem: -238 54<197.543 263.95> -18 62<319.444 405.383> 668 62<406.245 548.487> 702 20G<671 727>
VStem: 91 123<128.824 353.456> 132 97<-166.599 -98.1196> 132 65<-182.099 -158.5> 251 59<-49.6115 -18.0937> 280 84<-166.703 -59.9862> 606 51<386 398> 671 52<689.656 722>
LayerCount: 2
Fore
SplineSet
254 -11 m 1xe160
 171 14 91 97 91 256 c 0
 91 487 292 730 491 730 c 0xe960
 550 730 588 699 607 680 c 2
 623 662 l 2
 635 649 636 649 640 649 c 0
 655 649 664 683 671 710 c 2
 674 722 l 1
 685 722 l 1
 708 722 l 1
 727 722 l 1xd960
 723 704 l 1
 659 398 l 1
 657 386 l 1
 644 386 l 1
 621 386 l 1
 606 386 l 1
 606 401 l 2
 606 421 607 441 607 464 c 0
 607 491 601 578 570 623 c 0
 547 655 520 668 485 668 c 0
 419 668 362 637 297 521 c 0
 256 450 218 329 214 203 c 0
 214 199 214 194 214 189 c 0
 214 51 274 44 324 44 c 0
 428 44 530 149 573 262 c 2
 578 276 l 1
 594 271 l 1
 625 260 l 1
 639 255 l 1
 635 241 l 1
 591 114 482 -15 311 -18 c 0
 310 -20 310 -22 310 -23 c 0
 310 -24 310 -25 310 -26 c 0xe960
 310 -30 311 -33 323 -43 c 0
 343 -58 364 -79 364 -114 c 2
 364 -114 364 -115 364 -116 c 0
 362 -191 290 -238 216 -238 c 0
 173 -238 132 -206 132 -152 c 0
 132 -151 132 -150 132 -149 c 0
 133 -117 155 -84 186 -84 c 0
 210 -84 229 -100 229 -126 c 0
 229 -127 229 -127 229 -128 c 0xe4e0
 229 -154 212 -168 197 -174 c 1
 197 -174 197 -175 197 -175 c 2
 197 -178 199 -184 221 -184 c 0
 251 -184 279 -155 280 -124 c 0
 280 -123 280 -122 280 -121 c 0xe2e0
 280 -109 277 -95 270 -81 c 0
 261 -66 251 -50 251 -31 c 2
 251 -31 251 -30 251 -30 c 2
 252 -24 253 -17 254 -11 c 1xe160
EndSplineSet
Validated: 1
Ligature2: "'ccmp' Composition et d+AOkA-composition de glyphe (CJC) lookup 3 subtable" C uni0327
Substitution2: "'c2sc' Capitales vers petites capitales lookup 1 subtable" ccedilla.sc
EndChar

StartChar: Egrave
Encoding: 135 200 136
Width: 732
GlyphClass: 2
Flags: W
HStem: 0 32<6 113.628 239.093 491.925> 337 62<339 443.387> 680 32<195 284.952 410.375 648.228>
LayerCount: 2
Fore
SplineSet
382 895 m 0
 382 908 390 945 432 945 c 0
 456 945 478 929 488 898 c 2
 529 776 l 1
 533 764 l 1
 523 758 l 1
 508 749 l 1
 497 743 l 1
 489 752 l 1
 401 849 l 2
 389 862 382 879 382 895 c 0
-9 0 m 1
 -4 10 l 1
 4 26 l 1
 6 32 l 1
 18 32 l 1
 94 32 l 2
 107 32 110 35 114 49 c 2
 284 672 l 2
 285 676 285 678 285 679 c 0
 284 680 282 680 279 680 c 2
 199 680 l 1
 179 680 l 1
 183 688 l 1
 192 701 l 1
 195 712 l 1
 207 712 l 1
 767 712 l 1
 786 712 l 1
 782 703 l 1
 736 496 l 1
 733 484 l 1
 721 484 l 1
 696 484 l 1
 679 484 l 1
 681 501 l 1
 681 501 684 521 684 547 c 0
 684 660 648 680 587 680 c 2
 429 680 l 2
 418 680 414 678 410 663 c 2
 339 399 l 1
 423 399 l 2
 490 399 511 469 527 530 c 2
 530 541 l 1
 543 541 l 1
 569 541 l 1
 590 541 l 1
 584 522 l 1
 494 198 l 1
 491 187 l 1
 478 187 l 1
 452 187 l 1
 432 187 l 1
 437 205 l 2
 442 227 447 254 448 277 c 0
 448 279 448 282 448 284 c 0
 448 320 439 337 407 337 c 2
 322 337 l 1
 240 40 l 2
 240 37 239 35 239 33 c 1
 241 32 242 32 245 32 c 2
 425 32 l 2
 451 32 505 44 544 80 c 0
 607 138 652 258 652 258 c 1
 656 268 l 1
 667 268 l 1
 691 268 l 1
 712 268 l 1
 706 249 l 1
 619 11 l 1
 616 0 l 1
 604 0 l 1
 10 0 l 1
 -9 0 l 1
EndSplineSet
Validated: 5
Substitution2: "'c2sc' Capitales vers petites capitales lookup 1 subtable" egrave.sc
EndChar

StartChar: Eacute
Encoding: 136 201 137
Width: 732
GlyphClass: 2
Flags: W
HStem: 0 32<6 113.628 239.093 491.925> 337 62<339 443.387> 680 32<195 284.952 410.375 648.228>
LayerCount: 2
Fore
SplineSet
467 784 m 1
 573 907 l 2
 593 930 612 939 633 939 c 0
 666 939 676 912 676 895 c 0
 676 860 646 842 637 836 c 2
 499 749 l 1
 489 743 l 1
 480 751 l 1
 468 763 l 1
 458 773 l 1
 467 784 l 1
-9 0 m 1
 -4 10 l 1
 4 26 l 1
 6 32 l 1
 18 32 l 1
 94 32 l 2
 107 32 110 35 114 49 c 2
 284 672 l 2
 285 676 285 678 285 679 c 0
 284 680 282 680 279 680 c 2
 199 680 l 1
 179 680 l 1
 183 688 l 1
 192 701 l 1
 195 712 l 1
 207 712 l 1
 767 712 l 1
 786 712 l 1
 782 703 l 1
 736 496 l 1
 733 484 l 1
 721 484 l 1
 696 484 l 1
 679 484 l 1
 681 501 l 1
 681 501 684 521 684 547 c 0
 684 660 648 680 587 680 c 2
 429 680 l 2
 418 680 414 678 410 663 c 2
 339 399 l 1
 423 399 l 2
 490 399 511 469 527 530 c 2
 530 541 l 1
 543 541 l 1
 569 541 l 1
 590 541 l 1
 584 522 l 1
 494 198 l 1
 491 187 l 1
 478 187 l 1
 452 187 l 1
 432 187 l 1
 437 205 l 2
 442 227 447 254 448 277 c 0
 448 279 448 282 448 284 c 0
 448 320 439 337 407 337 c 2
 322 337 l 1
 240 40 l 2
 240 37 239 35 239 33 c 1
 241 32 242 32 245 32 c 2
 425 32 l 2
 451 32 505 44 544 80 c 0
 607 138 652 258 652 258 c 1
 656 268 l 1
 667 268 l 1
 691 268 l 1
 712 268 l 1
 706 249 l 1
 619 11 l 1
 616 0 l 1
 604 0 l 1
 10 0 l 1
 -9 0 l 1
EndSplineSet
Validated: 5
Substitution2: "'c2sc' Capitales vers petites capitales lookup 1 subtable" eacute.sc
EndChar

StartChar: Ecircumflex
Encoding: 137 202 138
Width: 732
GlyphClass: 2
Flags: W
HStem: 0 32<6 113.628 239.093 491.925> 337 62<339 443.387> 680 32<195 284.952 410.375 648.228>
LayerCount: 2
Fore
SplineSet
344 791 m 2
 423 830 477 881 513 929 c 2
 517 935 l 1
 524 935 l 1
 560 935 l 1
 570 935 l 1
 572 924 l 2
 582 876 608 828 664 790 c 2
 678 781 l 1
 667 768 l 1
 653 752 l 1
 646 744 l 1
 636 748 l 2
 603 761 551 801 522 838 c 1
 471 800 400 760 362 748 c 2
 348 743 l 1
 343 757 l 1
 337 773 l 1
 332 785 l 1
 344 791 l 2
-9 0 m 1
 -4 10 l 1
 4 26 l 1
 6 32 l 1
 18 32 l 1
 94 32 l 2
 107 32 110 35 114 49 c 2
 284 672 l 2
 285 676 285 678 285 679 c 0
 284 680 282 680 279 680 c 2
 199 680 l 1
 179 680 l 1
 183 688 l 1
 192 701 l 1
 195 712 l 1
 207 712 l 1
 767 712 l 1
 786 712 l 1
 782 703 l 1
 736 496 l 1
 733 484 l 1
 721 484 l 1
 696 484 l 1
 679 484 l 1
 681 501 l 1
 681 501 684 521 684 547 c 0
 684 660 648 680 587 680 c 2
 429 680 l 2
 418 680 414 678 410 663 c 2
 339 399 l 1
 423 399 l 2
 490 399 511 469 527 530 c 2
 530 541 l 1
 543 541 l 1
 569 541 l 1
 590 541 l 1
 584 522 l 1
 494 198 l 1
 491 187 l 1
 478 187 l 1
 452 187 l 1
 432 187 l 1
 437 205 l 2
 442 227 447 254 448 277 c 0
 448 279 448 282 448 284 c 0
 448 320 439 337 407 337 c 2
 322 337 l 1
 240 40 l 2
 240 37 239 35 239 33 c 1
 241 32 242 32 245 32 c 2
 425 32 l 2
 451 32 505 44 544 80 c 0
 607 138 652 258 652 258 c 1
 656 268 l 1
 667 268 l 1
 691 268 l 1
 712 268 l 1
 706 249 l 1
 619 11 l 1
 616 0 l 1
 604 0 l 1
 10 0 l 1
 -9 0 l 1
EndSplineSet
Validated: 5
Substitution2: "'c2sc' Capitales vers petites capitales lookup 1 subtable" ecircumflex.sc
EndChar

StartChar: Edieresis
Encoding: 138 203 139
Width: 732
GlyphClass: 2
Flags: W
HStem: 0 32<6 113.628 239.093 491.925> 337 62<339 443.387> 680 32<195 284.952 410.375 648.228> 783 134<380.056 477.451 575.662 673.944>
VStem: 363 132<800.056 899.451> 558 133<800.549 899.944>
LayerCount: 2
Fore
SplineSet
558 850 m 0
 559 888 586 917 624 917 c 0
 662 917 691 888 691 850 c 0
 691 812 662 783 624 783 c 0
 586 783 558 811 558 848 c 0
 558 849 558 849 558 850 c 0
363 850 m 0
 363 888 392 917 430 917 c 0
 467 917 495 889 495 852 c 0
 495 851 495 851 495 850 c 0
 494 812 467 783 430 783 c 0
 392 783 363 812 363 850 c 0
-9 0 m 1
 -4 10 l 1
 4 26 l 1
 6 32 l 1
 18 32 l 1
 94 32 l 2
 107 32 110 35 114 49 c 2
 284 672 l 2
 285 676 285 678 285 679 c 0
 284 680 282 680 279 680 c 2
 199 680 l 1
 179 680 l 1
 183 688 l 1
 192 701 l 1
 195 712 l 1
 207 712 l 1
 767 712 l 1
 786 712 l 1
 782 703 l 1
 736 496 l 1
 733 484 l 1
 721 484 l 1
 696 484 l 1
 679 484 l 1
 681 501 l 1
 681 501 684 521 684 547 c 0
 684 660 648 680 587 680 c 2
 429 680 l 2
 418 680 414 678 410 663 c 2
 339 399 l 1
 423 399 l 2
 490 399 511 469 527 530 c 2
 530 541 l 1
 543 541 l 1
 569 541 l 1
 590 541 l 1
 584 522 l 1
 494 198 l 1
 491 187 l 1
 478 187 l 1
 452 187 l 1
 432 187 l 1
 437 205 l 2
 442 227 447 254 448 277 c 0
 448 279 448 282 448 284 c 0
 448 320 439 337 407 337 c 2
 322 337 l 1
 240 40 l 2
 240 37 239 35 239 33 c 1
 241 32 242 32 245 32 c 2
 425 32 l 2
 451 32 505 44 544 80 c 0
 607 138 652 258 652 258 c 1
 656 268 l 1
 667 268 l 1
 691 268 l 1
 712 268 l 1
 706 249 l 1
 619 11 l 1
 616 0 l 1
 604 0 l 1
 10 0 l 1
 -9 0 l 1
EndSplineSet
Validated: 5
MultipleSubs2: "Substitution multiple lookup 29 subtable" E uni0308
Substitution2: "'c2sc' Capitales vers petites capitales lookup 1 subtable" edieresis.sc
EndChar

StartChar: Igrave
Encoding: 139 204 140
Width: 449
GlyphClass: 2
Flags: W
HStem: 0 32<6 113.628 245.094 340> 680 32<199 293.906 424.375 532>
LayerCount: 2
Fore
SplineSet
259 895 m 0
 259 908 266 945 309 945 c 0
 333 945 354 929 365 898 c 2
 406 776 l 1
 410 764 l 1
 399 758 l 1
 384 749 l 1
 374 743 l 1
 365 752 l 1
 277 849 l 2
 266 862 259 879 259 895 c 0
-9 0 m 1
 -4 10 l 1
 4 26 l 1
 6 32 l 1
 18 32 l 1
 94 32 l 2
 107 32 110 35 114 49 c 2
 292 672 l 2
 293 676 294 678 294 679 c 0
 292 680 290 680 287 680 c 2
 203 680 l 1
 182 680 l 1
 187 688 l 1
 196 701 l 1
 199 712 l 1
 212 712 l 1
 528 712 l 1
 547 712 l 1
 543 702 l 1
 535 686 l 1
 532 680 l 1
 520 680 l 1
 444 680 l 2
 432 680 428 678 424 663 c 2
 247 40 l 2
 246 37 245 35 245 33 c 1
 247 32 249 32 252 32 c 2
 335 32 l 1
 357 32 l 1
 352 24 l 1
 343 11 l 1
 340 0 l 1
 327 0 l 1
 10 0 l 1
 -9 0 l 1
EndSplineSet
Validated: 5
Substitution2: "'c2sc' Capitales vers petites capitales lookup 1 subtable" igrave.sc
EndChar

StartChar: Iacute
Encoding: 140 205 141
Width: 449
GlyphClass: 2
Flags: W
HStem: 0 32<6 113.628 245.094 340> 680 32<199 293.906 424.375 532>
LayerCount: 2
Fore
SplineSet
344 784 m 1
 450 907 l 2
 469 930 488 939 509 939 c 0
 543 939 552 912 552 895 c 0
 552 860 523 842 513 836 c 2
 375 749 l 1
 365 743 l 1
 357 751 l 1
 345 763 l 1
 335 773 l 1
 344 784 l 1
-9 0 m 1
 -4 10 l 1
 4 26 l 1
 6 32 l 1
 18 32 l 1
 94 32 l 2
 107 32 110 35 114 49 c 2
 292 672 l 2
 293 676 294 678 294 679 c 0
 292 680 290 680 287 680 c 2
 203 680 l 1
 182 680 l 1
 187 688 l 1
 196 701 l 1
 199 712 l 1
 212 712 l 1
 528 712 l 1
 547 712 l 1
 543 702 l 1
 535 686 l 1
 532 680 l 1
 520 680 l 1
 444 680 l 2
 432 680 428 678 424 663 c 2
 247 40 l 2
 246 37 245 35 245 33 c 1
 247 32 249 32 252 32 c 2
 335 32 l 1
 357 32 l 1
 352 24 l 1
 343 11 l 1
 340 0 l 1
 327 0 l 1
 10 0 l 1
 -9 0 l 1
EndSplineSet
Validated: 5
Substitution2: "'c2sc' Capitales vers petites capitales lookup 1 subtable" iacute.sc
EndChar

StartChar: Icircumflex
Encoding: 141 206 142
Width: 449
GlyphClass: 2
Flags: W
HStem: 0 32<6 113.628 245.094 340> 680 32<199 293.906 424.375 532>
LayerCount: 2
Fore
SplineSet
221 791 m 2
 300 830 354 881 389 929 c 2
 394 935 l 1
 400 935 l 1
 436 935 l 1
 447 935 l 1
 449 924 l 2
 459 876 485 828 540 790 c 2
 554 781 l 1
 543 768 l 1
 529 752 l 1
 522 744 l 1
 512 748 l 2
 480 761 428 801 399 838 c 1
 348 800 276 760 238 748 c 2
 225 743 l 1
 220 757 l 1
 214 773 l 1
 209 785 l 1
 221 791 l 2
-9 0 m 1
 -4 10 l 1
 4 26 l 1
 6 32 l 1
 18 32 l 1
 94 32 l 2
 107 32 110 35 114 49 c 2
 292 672 l 2
 293 676 294 678 294 679 c 0
 292 680 290 680 287 680 c 2
 203 680 l 1
 182 680 l 1
 187 688 l 1
 196 701 l 1
 199 712 l 1
 212 712 l 1
 528 712 l 1
 547 712 l 1
 543 702 l 1
 535 686 l 1
 532 680 l 1
 520 680 l 1
 444 680 l 2
 432 680 428 678 424 663 c 2
 247 40 l 2
 246 37 245 35 245 33 c 1
 247 32 249 32 252 32 c 2
 335 32 l 1
 357 32 l 1
 352 24 l 1
 343 11 l 1
 340 0 l 1
 327 0 l 1
 10 0 l 1
 -9 0 l 1
EndSplineSet
Validated: 5
Substitution2: "'c2sc' Capitales vers petites capitales lookup 1 subtable" icircumflex.sc
EndChar

StartChar: Idieresis
Encoding: 142 207 143
Width: 449
GlyphClass: 2
Flags: W
HStem: 0 32<6 113.628 245.094 340> 680 32<199 293.906 424.375 532> 783 134<256.056 354.338 452.549 549.944>
VStem: 239 133<800.056 899.451> 435 132<800.549 899.944>
LayerCount: 2
Fore
SplineSet
435 850 m 0
 436 888 463 917 500 917 c 0
 538 917 567 888 567 850 c 0
 567 812 538 783 500 783 c 0
 463 783 435 811 435 848 c 0
 435 849 435 849 435 850 c 0
239 850 m 0
 239 888 268 917 306 917 c 0
 344 917 372 889 372 852 c 0
 372 851 372 851 372 850 c 0
 371 812 344 783 306 783 c 0
 268 783 239 812 239 850 c 0
-9 0 m 1
 -4 10 l 1
 4 26 l 1
 6 32 l 1
 18 32 l 1
 94 32 l 2
 107 32 110 35 114 49 c 2
 292 672 l 2
 293 676 294 678 294 679 c 0
 292 680 290 680 287 680 c 2
 203 680 l 1
 182 680 l 1
 187 688 l 1
 196 701 l 1
 199 712 l 1
 212 712 l 1
 528 712 l 1
 547 712 l 1
 543 702 l 1
 535 686 l 1
 532 680 l 1
 520 680 l 1
 444 680 l 2
 432 680 428 678 424 663 c 2
 247 40 l 2
 246 37 245 35 245 33 c 1
 247 32 249 32 252 32 c 2
 335 32 l 1
 357 32 l 1
 352 24 l 1
 343 11 l 1
 340 0 l 1
 327 0 l 1
 10 0 l 1
 -9 0 l 1
EndSplineSet
Validated: 5
MultipleSubs2: "Substitution multiple lookup 29 subtable" I uni0308
Substitution2: "'c2sc' Capitales vers petites capitales lookup 1 subtable" idieresis.sc
EndChar

StartChar: Eth
Encoding: 143 208 144
Width: 762
GlyphClass: 2
Flags: W
HStem: 0 32<7 114.628 240.093 435.084> 341 66<93 194 342 450> 680 32<197 286.906 412.284 574.775>
VStem: 636 123<335.796 570.382>
LayerCount: 2
Fore
SplineSet
-8 0 m 1
 -3 10 l 1
 5 26 l 1
 7 32 l 1
 19 32 l 1
 95 32 l 2
 108 32 111 35 115 49 c 2
 194 341 l 1
 97 341 l 1
 78 341 l 1
 83 359 l 1
 91 395 l 1
 93 407 l 1
 105 407 l 1
 213 407 l 1
 285 672 l 2
 286 676 287 678 287 679 c 0
 285 680 283 680 280 680 c 2
 200 680 l 1
 179 680 l 1
 185 688 l 1
 194 701 l 1
 197 712 l 1
 209 712 l 1
 536 712 l 2
 680 712 759 598 759 449 c 0
 759 346 718 233 645 147 c 0
 574 67 478 0 355 0 c 2
 11 0 l 1
 -8 0 l 1
324 341 m 1
 242 40 l 2
 241 37 240 35 240 33 c 1
 242 32 243 32 246 32 c 2
 366 32 l 2
 444 32 508 83 560 179 c 0
 601 256 633 378 636 507 c 0
 636 511 636 515 636 519 c 0
 636 609 608 680 514 680 c 2
 431 680 l 2
 419 680 415 678 412 663 c 2
 342 407 l 1
 448 407 l 1
 466 407 l 1
 461 389 l 1
 453 353 l 1
 450 341 l 1
 439 341 l 1
 324 341 l 1
EndSplineSet
Validated: 5
EndChar

StartChar: Ntilde
Encoding: 144 209 145
Width: 803
GlyphClass: 2
Flags: W
HStem: -18 21G<520 592> 0 32<6 103.576 210.953 288> 680 32<194 294.997 618 696.463 803.23 901> 797 82<586.669 693.815> 835 82<464.933 570.535>
VStem: 411 48<796 805>
LayerCount: 2
Fore
SplineSet
412 811 m 2x34
 416 862 448 917 513 917 c 0x2c
 545 917 576 905 602 895 c 0
 625 886 649 879 667 879 c 0x34
 682 879 692 887 696 909 c 2
 699 922 l 1
 712 921 l 1
 732 919 l 1
 747 917 l 1x2c
 746 903 l 2
 741 852 709 797 645 797 c 0x34
 613 797 581 809 555 819 c 0
 532 828 508 835 491 835 c 0x2c
 475 835 466 827 462 805 c 2
 459 792 l 1
 445 793 l 1
 425 795 l 1
 411 797 l 1
 412 811 l 2x34
-9 0 m 1x64
 -4 10 l 1
 4 26 l 1
 6 32 l 1
 18 32 l 1
 66 32 l 2x64
 100 32 131 69 144 119 c 2
 293 671 l 2
 294 675 295 678 295 679 c 0
 295 680 291 680 289 680 c 2
 198 680 l 1
 178 680 l 1
 183 688 l 1
 191 701 l 1
 194 712 l 1
 206 712 l 1
 394 712 l 1
 404 712 l 1
 407 702 l 1
 575 194 l 1
 692 605 l 2
 697 621 699 634 699 644 c 1
 699 645 699 646 699 646 c 2
 699 672 690 680 666 680 c 2
 621 680 l 1
 603 680 l 1
 607 688 l 1
 615 701 l 1
 618 712 l 1
 629 712 l 1
 897 712 l 1
 916 712 l 1
 911 702 l 1
 903 686 l 1
 901 680 l 1
 889 680 l 1
 841 680 l 2
 814 680 779 654 763 597 c 2
 592 -7 l 1
 589 -18 l 1
 577 -18 l 1
 535 -18 l 1
 524 -18 l 1xa4
 520 -8 l 1
 340 546 l 1
 215 107 l 2
 211 93 209 79 209 68 c 0
 209 67 209 65 209 64 c 0
 209 42 215 32 241 32 c 2
 286 32 l 1
 304 32 l 1
 299 24 l 1
 291 11 l 1
 288 0 l 1
 277 0 l 1
 10 0 l 1
 -9 0 l 1x64
EndSplineSet
Validated: 5
Substitution2: "'c2sc' Capitales vers petites capitales lookup 1 subtable" ntilde.sc
EndChar

StartChar: Ograve
Encoding: 145 210 146
Width: 717
GlyphClass: 2
Flags: W
HStem: -18 62<255.905 389.866> 668 62<408.063 542.095>
VStem: 92 122<131.775 360.576> 584 122<349.532 578.649>
LayerCount: 2
Fore
SplineSet
383 895 m 0
 383 908 391 945 433 945 c 0
 457 945 479 929 489 898 c 2
 530 776 l 1
 534 764 l 1
 523 758 l 1
 508 749 l 1
 498 743 l 1
 490 752 l 1
 402 849 l 2
 390 862 383 879 383 895 c 0
263 454 m 0
 220 344 215 232 214 200 c 0
 214 196 214 192 214 188 c 0
 214 87 253 44 316 44 c 0
 428 44 499 167 535 258 c 0
 578 368 583 480 584 512 c 0
 584 516 584 520 584 524 c 0
 584 625 545 668 482 668 c 0
 370 668 298 545 263 454 c 0
306 -18 m 0
 170 -18 92 109 92 252 c 0
 92 518 300 730 492 730 c 0
 628 730 706 601 706 458 c 0
 706 192 498 -18 306 -18 c 0
EndSplineSet
Validated: 1
Substitution2: "'c2sc' Capitales vers petites capitales lookup 1 subtable" ograve.sc
EndChar

StartChar: Oacute
Encoding: 146 211 147
Width: 717
GlyphClass: 2
Flags: W
HStem: -18 62<255.905 389.866> 668 62<408.063 542.095>
VStem: 92 122<131.775 360.576> 584 122<349.532 578.649>
LayerCount: 2
Fore
SplineSet
468 784 m 1
 574 907 l 2
 594 930 613 939 633 939 c 0
 667 939 676 912 676 895 c 0
 676 860 647 842 637 836 c 2
 499 749 l 1
 489 743 l 1
 481 751 l 1
 469 763 l 1
 459 773 l 1
 468 784 l 1
263 454 m 0
 220 344 215 232 214 200 c 0
 214 196 214 192 214 188 c 0
 214 87 253 44 316 44 c 0
 428 44 499 167 535 258 c 0
 578 368 583 480 584 512 c 0
 584 516 584 520 584 524 c 0
 584 625 545 668 482 668 c 0
 370 668 298 545 263 454 c 0
306 -18 m 0
 170 -18 92 109 92 252 c 0
 92 518 300 730 492 730 c 0
 628 730 706 601 706 458 c 0
 706 192 498 -18 306 -18 c 0
EndSplineSet
Validated: 1
Substitution2: "'c2sc' Capitales vers petites capitales lookup 1 subtable" oacute.sc
EndChar

StartChar: Ocircumflex
Encoding: 147 212 148
Width: 717
GlyphClass: 2
Flags: W
HStem: -18 62<255.905 389.866> 668 62<408.063 542.095>
VStem: 92 122<131.775 360.576> 584 122<349.532 578.649>
LayerCount: 2
Fore
SplineSet
345 791 m 2
 424 830 478 881 514 929 c 2
 518 935 l 1
 524 935 l 1
 560 935 l 1
 571 935 l 1
 573 924 l 2
 583 876 609 828 664 790 c 2
 678 781 l 1
 667 768 l 1
 653 752 l 1
 646 744 l 1
 637 748 l 2
 604 761 552 801 523 838 c 1
 472 800 400 760 362 748 c 2
 349 743 l 1
 344 757 l 1
 338 773 l 1
 333 785 l 1
 345 791 l 2
263 454 m 0
 220 344 215 232 214 200 c 0
 214 196 214 192 214 188 c 0
 214 87 253 44 316 44 c 0
 428 44 499 167 535 258 c 0
 578 368 583 480 584 512 c 0
 584 516 584 520 584 524 c 0
 584 625 545 668 482 668 c 0
 370 668 298 545 263 454 c 0
306 -18 m 0
 170 -18 92 109 92 252 c 0
 92 518 300 730 492 730 c 0
 628 730 706 601 706 458 c 0
 706 192 498 -18 306 -18 c 0
EndSplineSet
Validated: 1
Substitution2: "'c2sc' Capitales vers petites capitales lookup 1 subtable" ocircumflex.sc
EndChar

StartChar: Otilde
Encoding: 148 213 149
Width: 717
GlyphClass: 2
Flags: W
HStem: -18 62<255.905 389.866> 668 62<408.063 542.095> 797 82<535.627 642.802> 835 82<412.529 519.403>
VStem: 92 122<131.775 360.576> 360 48<796 805> 584 122<349.532 578.649> 645 49<881.411 917.769>
LayerCount: 2
Fore
SplineSet
361 811 m 2xed
 365 862 397 917 462 917 c 0xdd
 493 917 525 905 551 895 c 0
 574 886 598 879 616 879 c 0xed
 631 879 641 887 645 909 c 2
 647 922 l 1
 661 921 l 1
 681 919 l 1
 696 917 l 1xdd
 694 903 l 2
 690 852 658 797 594 797 c 0xed
 562 797 530 809 504 819 c 0
 481 828 457 835 440 835 c 0xdd
 424 835 415 827 410 805 c 2
 408 792 l 1
 394 793 l 1
 374 795 l 1
 360 797 l 1
 361 811 l 2xed
263 454 m 0
 220 344 215 232 214 200 c 0
 214 196 214 192 214 188 c 0
 214 87 253 44 316 44 c 0
 428 44 499 167 535 258 c 0
 578 368 583 480 584 512 c 0
 584 516 584 520 584 524 c 0xce
 584 625 545 668 482 668 c 0
 370 668 298 545 263 454 c 0
306 -18 m 0
 170 -18 92 109 92 252 c 0
 92 518 300 730 492 730 c 0
 628 730 706 601 706 458 c 0
 706 192 498 -18 306 -18 c 0
EndSplineSet
Validated: 1
MultipleSubs2: "Substitution multiple lookup 29 subtable" O tildecomb
EndChar

StartChar: Odieresis
Encoding: 149 214 150
Width: 717
GlyphClass: 2
Flags: W
HStem: -18 62<255.905 389.866> 668 62<408.063 542.095> 783 134<381.056 478.451 576.549 673.944>
VStem: 92 122<131.775 360.576> 364 132<800.056 899.451> 559 132<800.549 899.944> 584 122<349.532 578.649>
LayerCount: 2
Fore
SplineSet
559 850 m 0xfc
 560 888 587 917 624 917 c 0
 662 917 691 888 691 850 c 0
 691 812 662 783 624 783 c 0
 587 783 559 811 559 848 c 0
 559 849 559 849 559 850 c 0xfc
364 850 m 0
 364 888 393 917 431 917 c 0
 468 917 496 889 496 852 c 0
 496 851 496 851 496 850 c 0
 495 812 468 783 431 783 c 0
 393 783 364 812 364 850 c 0
263 454 m 0
 220 344 215 232 214 200 c 0
 214 196 214 192 214 188 c 0
 214 87 253 44 316 44 c 0
 428 44 499 167 535 258 c 0
 578 368 583 480 584 512 c 0
 584 516 584 520 584 524 c 0xfa
 584 625 545 668 482 668 c 0
 370 668 298 545 263 454 c 0
306 -18 m 0
 170 -18 92 109 92 252 c 0
 92 518 300 730 492 730 c 0
 628 730 706 601 706 458 c 0
 706 192 498 -18 306 -18 c 0
EndSplineSet
Validated: 1
MultipleSubs2: "Substitution multiple lookup 29 subtable" O uni0308
Substitution2: "'c2sc' Capitales vers petites capitales lookup 1 subtable" odieresis.sc
EndChar

StartChar: multiply
Encoding: 150 215 151
Width: 925
GlyphClass: 2
Flags: W
LayerCount: 2
Fore
SplineSet
160 -3 m 1
 169 8 l 1
 432 279 l 1
 173 550 l 1
 163 561 l 1
 173 572 l 1
 205 604 l 1
 216 614 l 1
 227 604 l 1
 484 331 l 1
 749 604 l 1
 759 614 l 1
 768 604 l 1
 796 572 l 1
 805 561 l 1
 795 550 l 1
 533 279 l 1
 791 8 l 1
 802 -3 l 1
 791 -14 l 1
 759 -46 l 1
 749 -56 l 1
 738 -46 l 1
 481 227 l 1
 216 -46 l 1
 206 -56 l 1
 197 -46 l 1
 169 -14 l 1
 160 -3 l 1
EndSplineSet
Validated: 1
EndChar

StartChar: Oslash
Encoding: 151 216 152
Width: 718
GlyphClass: 2
Flags: W
HStem: -18 62<262.19 395.314> 668 62<412.686 546.271>
VStem: 97 125<186.401 349.58> 586 125<361.182 523.276>
AnchorPoint: "Anchor-2" 310 0 basechar 0
AnchorPoint: "Anchor-1" 500 782 basechar 0
AnchorPoint: "Anchor-0" 494 762 basechar 0
LayerCount: 2
Fore
SplineSet
43 20 m 1
 53 30 l 1
 129 109 l 1
 108 151 97 201 97 253 c 0
 97 518 307 730 495 730 c 0
 559 730 611 700 646 653 c 1
 711 725 l 1
 722 737 l 1
 733 726 l 1
 757 702 l 1
 767 692 l 1
 757 682 l 1
 680 601 l 1
 701 558 711 509 711 457 c 0
 711 192 501 -18 313 -18 c 0
 249 -18 198 11 162 58 c 1
 99 -13 l 1
 88 -25 l 1
 77 -14 l 1
 53 10 l 1
 43 20 l 1
586 525 m 1
 228 131 l 1
 242 71 274 44 322 44 c 0
 433 44 503 173 538 268 c 0
 577 374 584 482 586 525 c 1
270 444 m 0
 231 337 223 227 222 185 c 1
 580 579 l 1
 567 642 535 668 486 668 c 0
 375 668 305 539 270 444 c 0
EndSplineSet
Validated: 1
EndChar

StartChar: Ugrave
Encoding: 152 217 153
Width: 799
GlyphClass: 2
Flags: W
HStem: -18 62<297.537 464.769> 680 32<171 255.997 381.001 483 612 691.181 798.846 896>
VStem: 133 114<96.9213 263.438>
LayerCount: 2
Fore
SplineSet
435 895 m 0
 435 908 442 945 485 945 c 0
 509 945 530 929 541 898 c 2
 582 776 l 1
 586 764 l 1
 575 758 l 1
 560 749 l 1
 550 743 l 1
 541 752 l 1
 453 849 l 2
 442 862 435 879 435 895 c 0
367 -18 m 0
 211 -18 133 78 133 191 c 0
 133 212 138 235 143 257 c 2
 255 672 l 2
 256 675 256 678 256 679 c 0
 256 680 252 680 250 680 c 2
 174 680 l 1
 155 680 l 1
 160 688 l 1
 168 701 l 1
 171 712 l 1
 182 712 l 1
 481 712 l 1
 499 712 l 1
 494 702 l 1
 486 686 l 1
 483 680 l 1
 472 680 l 1
 400 680 l 2
 387 680 385 678 381 664 c 2
 256 222 l 2
 251 202 247 185 247 169 c 0
 247 167 247 166 247 164 c 0
 247 87 297 44 376 44 c 0
 492 44 551 130 575 217 c 2
 688 607 l 2
 690 617 694 638 694 645 c 1
 694 646 694 646 694 647 c 0
 694 664 689 680 660 680 c 2
 615 680 l 1
 596 680 l 1
 601 688 l 1
 609 701 l 1
 612 712 l 1
 623 712 l 1
 893 712 l 1
 912 712 l 1
 907 702 l 1
 899 686 l 1
 896 680 l 1
 885 680 l 1
 837 680 l 2
 805 680 772 647 758 597 c 2
 649 219 l 2
 612 91 535 -18 367 -18 c 0
EndSplineSet
Validated: 5
Substitution2: "'c2sc' Capitales vers petites capitales lookup 1 subtable" ugrave.sc
EndChar

StartChar: Uacute
Encoding: 153 218 154
Width: 799
GlyphClass: 2
Flags: W
HStem: -18 62<297.537 464.769> 680 32<171 255.997 381.001 483 612 691.181 798.846 896>
VStem: 133 114<96.9213 263.438>
LayerCount: 2
Fore
SplineSet
520 784 m 1
 626 907 l 2
 645 930 664 939 685 939 c 0
 719 939 728 912 728 895 c 0
 728 860 699 842 689 836 c 2
 551 749 l 1
 541 743 l 1
 533 751 l 1
 521 763 l 1
 511 773 l 1
 520 784 l 1
367 -18 m 0
 211 -18 133 78 133 191 c 0
 133 212 138 235 143 257 c 2
 255 672 l 2
 256 675 256 678 256 679 c 0
 256 680 252 680 250 680 c 2
 174 680 l 1
 155 680 l 1
 160 688 l 1
 168 701 l 1
 171 712 l 1
 182 712 l 1
 481 712 l 1
 499 712 l 1
 494 702 l 1
 486 686 l 1
 483 680 l 1
 472 680 l 1
 400 680 l 2
 387 680 385 678 381 664 c 2
 256 222 l 2
 251 202 247 185 247 169 c 0
 247 167 247 166 247 164 c 0
 247 87 297 44 376 44 c 0
 492 44 551 130 575 217 c 2
 688 607 l 2
 690 617 694 638 694 645 c 1
 694 646 694 646 694 647 c 0
 694 664 689 680 660 680 c 2
 615 680 l 1
 596 680 l 1
 601 688 l 1
 609 701 l 1
 612 712 l 1
 623 712 l 1
 893 712 l 1
 912 712 l 1
 907 702 l 1
 899 686 l 1
 896 680 l 1
 885 680 l 1
 837 680 l 2
 805 680 772 647 758 597 c 2
 649 219 l 2
 612 91 535 -18 367 -18 c 0
EndSplineSet
Validated: 5
Substitution2: "'c2sc' Capitales vers petites capitales lookup 1 subtable" uacute.sc
EndChar

StartChar: Ucircumflex
Encoding: 154 219 155
Width: 799
GlyphClass: 2
Flags: W
HStem: -18 62<297.537 464.769> 680 32<171 255.997 381.001 483 612 691.181 798.846 896>
VStem: 133 114<96.9213 263.438>
LayerCount: 2
Fore
SplineSet
397 791 m 2
 476 830 530 881 565 929 c 2
 570 935 l 1
 576 935 l 1
 612 935 l 1
 623 935 l 1
 625 924 l 2
 635 876 661 828 716 790 c 2
 730 781 l 1
 719 768 l 1
 705 752 l 1
 698 744 l 1
 688 748 l 2
 656 761 604 801 575 838 c 1
 524 800 452 760 414 748 c 2
 401 743 l 1
 396 757 l 1
 390 773 l 1
 385 785 l 1
 397 791 l 2
367 -18 m 0
 211 -18 133 78 133 191 c 0
 133 212 138 235 143 257 c 2
 255 672 l 2
 256 675 256 678 256 679 c 0
 256 680 252 680 250 680 c 2
 174 680 l 1
 155 680 l 1
 160 688 l 1
 168 701 l 1
 171 712 l 1
 182 712 l 1
 481 712 l 1
 499 712 l 1
 494 702 l 1
 486 686 l 1
 483 680 l 1
 472 680 l 1
 400 680 l 2
 387 680 385 678 381 664 c 2
 256 222 l 2
 251 202 247 185 247 169 c 0
 247 167 247 166 247 164 c 0
 247 87 297 44 376 44 c 0
 492 44 551 130 575 217 c 2
 688 607 l 2
 690 617 694 638 694 645 c 1
 694 646 694 646 694 647 c 0
 694 664 689 680 660 680 c 2
 615 680 l 1
 596 680 l 1
 601 688 l 1
 609 701 l 1
 612 712 l 1
 623 712 l 1
 893 712 l 1
 912 712 l 1
 907 702 l 1
 899 686 l 1
 896 680 l 1
 885 680 l 1
 837 680 l 2
 805 680 772 647 758 597 c 2
 649 219 l 2
 612 91 535 -18 367 -18 c 0
EndSplineSet
Validated: 5
Substitution2: "'c2sc' Capitales vers petites capitales lookup 1 subtable" ucircumflex.sc
EndChar

StartChar: Udieresis
Encoding: 155 220 156
Width: 799
GlyphClass: 2
Flags: W
HStem: -18 62<297.537 464.769> 680 32<171 255.997 381.001 483 612 691.181 798.846 896> 783 134<432.056 530.338 628.549 725.944>
VStem: 133 114<96.9213 263.438> 415 133<800.056 899.451> 611 132<800.549 899.944>
LayerCount: 2
Fore
SplineSet
611 850 m 0
 612 888 639 917 676 917 c 0
 714 917 743 888 743 850 c 0
 743 812 714 783 676 783 c 0
 639 783 611 811 611 848 c 0
 611 849 611 849 611 850 c 0
415 850 m 0
 415 888 444 917 482 917 c 0
 520 917 548 889 548 852 c 0
 548 851 548 851 548 850 c 0
 547 812 520 783 482 783 c 0
 444 783 415 812 415 850 c 0
367 -18 m 0
 211 -18 133 78 133 191 c 0
 133 212 138 235 143 257 c 2
 255 672 l 2
 256 675 256 678 256 679 c 0
 256 680 252 680 250 680 c 2
 174 680 l 1
 155 680 l 1
 160 688 l 1
 168 701 l 1
 171 712 l 1
 182 712 l 1
 481 712 l 1
 499 712 l 1
 494 702 l 1
 486 686 l 1
 483 680 l 1
 472 680 l 1
 400 680 l 2
 387 680 385 678 381 664 c 2
 256 222 l 2
 251 202 247 185 247 169 c 0
 247 167 247 166 247 164 c 0
 247 87 297 44 376 44 c 0
 492 44 551 130 575 217 c 2
 688 607 l 2
 690 617 694 638 694 645 c 1
 694 646 694 646 694 647 c 0
 694 664 689 680 660 680 c 2
 615 680 l 1
 596 680 l 1
 601 688 l 1
 609 701 l 1
 612 712 l 1
 623 712 l 1
 893 712 l 1
 912 712 l 1
 907 702 l 1
 899 686 l 1
 896 680 l 1
 885 680 l 1
 837 680 l 2
 805 680 772 647 758 597 c 2
 649 219 l 2
 612 91 535 -18 367 -18 c 0
EndSplineSet
Validated: 5
MultipleSubs2: "Substitution multiple lookup 29 subtable" U uni0308
Substitution2: "'c2sc' Capitales vers petites capitales lookup 1 subtable" udieresis.sc
EndChar

StartChar: Yacute
Encoding: 156 221 157
Width: 731
GlyphClass: 2
Flags: W
HStem: 0 32<122 240.999 366 469> 680 32<137 242.145 362.729 462 548 621.696 741.472 849>
LayerCount: 2
Fore
SplineSet
468 784 m 1
 574 907 l 2
 593 930 612 939 633 939 c 0
 667 939 676 912 676 895 c 0
 676 860 646 842 637 836 c 2
 499 749 l 1
 489 743 l 1
 480 751 l 1
 468 763 l 1
 458 773 l 1
 468 784 l 1
107 0 m 1
 112 10 l 1
 120 26 l 1
 122 32 l 1
 133 32 l 1
 223 32 l 2
 234 32 237 34 241 48 c 2
 314 316 l 1
 249 645 l 2
 240 677 234 680 214 680 c 2
 140 680 l 1
 121 680 l 1
 126 688 l 1
 134 701 l 1
 137 712 l 1
 148 712 l 1
 458 712 l 1
 479 712 l 1
 474 702 l 1
 465 686 l 1
 462 680 l 1
 450 680 l 1
 390 680 l 2
 370 680 362 667 362 660 c 0
 362 658 362 656 363 654 c 2
 363 653 l 1
 363 651 l 1
 421 402 l 1
 434 416 l 1
 576 578 l 2
 595 601 622 633 622 656 c 0
 622 657 622 658 622 659 c 0
 622 671 619 680 591 680 c 2
 551 680 l 1
 531 680 l 1
 536 688 l 1
 545 701 l 1
 548 712 l 1
 559 712 l 1
 846 712 l 1
 865 712 l 1
 860 702 l 1
 852 686 l 1
 849 680 l 1
 838 680 l 1
 791 680 l 2
 748 680 710 642 683 609 c 2
 479 362 l 1
 444 320 l 1
 368 39 l 1
 367 36 366 33 366 32 c 1
 368 32 369 32 371 32 c 2
 466 32 l 1
 485 32 l 1
 480 24 l 1
 472 11 l 1
 469 0 l 1
 458 0 l 1
 125 0 l 1
 107 0 l 1
EndSplineSet
Validated: 5
EndChar

StartChar: Thorn
Encoding: 157 222 158
Width: 699
GlyphClass: 2
Flags: W
HStem: 0 32<6 113.628 240.093 356> 170 71<296 474.018> 531 74<397 549.328> 680 32<197 286.907 413.367 551>
VStem: 569 124<343.685 510.472>
LayerCount: 2
Fore
SplineSet
-9 0 m 1
 -4 10 l 1
 4 26 l 1
 6 32 l 1
 18 32 l 1
 94 32 l 2
 107 32 110 35 114 49 c 2
 286 672 l 2
 287 676 287 678 287 679 c 0
 285 680 284 680 281 680 c 2
 200 680 l 1
 179 680 l 1
 184 688 l 1
 194 701 l 1
 197 712 l 1
 209 712 l 1
 548 712 l 1
 567 712 l 1
 562 702 l 1
 554 686 l 1
 551 680 l 1
 540 680 l 1
 432 680 l 2
 418 680 417 679 413 663 c 2
 397 605 l 1
 520 605 l 2
 526 605 528 605 533 605 c 0
 623 605 693 534 693 423 c 0
 693 288 570 170 384 170 c 2
 278 170 l 1
 242 40 l 2
 241 37 240 34 240 33 c 0
 242 32 243 32 246 32 c 2
 353 32 l 1
 372 32 l 1
 367 24 l 1
 359 11 l 1
 356 0 l 1
 345 0 l 1
 10 0 l 1
 -9 0 l 1
375 515 m 2
 296 241 l 1
 406 241 l 2
 450 241 498 266 528 307 c 0
 553 341 568 393 569 438 c 0
 569 440 569 442 569 443 c 0
 569 510 534 531 497 531 c 2
 394 531 l 2
 382 531 379 529 375 515 c 2
EndSplineSet
Validated: 1
EndChar

StartChar: germandbls
Encoding: 158 223 159
Width: 512
GlyphClass: 2
Flags: W
HStem: -12 54<218.231 293.786> 65 101<218.239 264.125> 388 58<278 354.599> 666 54<354.713 448.452>
VStem: 144 74<42.4531 70.0021> 372 107<153.717 353.571> 457 94<519.53 660.723>
LayerCount: 2
Fore
SplineSet
286 534 m 2xfa
 160 130 l 1
 172 149 195 166 227 166 c 0
 261 166 277 140 277 119 c 2
 277 119 277 119 277 118 c 0
 276 93 261 76 225 65 c 0
 217 63 218 63 218 57 c 1
 218 50 224 42 247 42 c 0
 306 42 372 151 372 266 c 0
 372 269 372 272 372 275 c 0xfc
 372 329 361 369 340 382 c 0
 334 386 327 388 317 388 c 2
 280 388 l 1
 260 388 l 1
 266 407 l 1
 275 435 l 1
 278 446 l 1
 289 446 l 1
 327 446 l 2
 345 446 362 450 377 458 c 0
 426 482 457 541 457 592 c 0
 457 595 457 598 457 601 c 0
 457 650 444 666 409 666 c 0
 405 666 401 666 396 665 c 0
 365 658 315 630 286 534 c 2xfa
144 81 m 0
 144 82 144 83 144 84 c 1
 64 -194 l 1
 61 -205 l 1
 49 -205 l 1
 -17 -205 l 1
 -36 -205 l 1
 -31 -186 l 1
 173 514 l 2
 212 642 308 702 384 717 c 0
 396 719 408 720 418 720 c 0
 518 720 551 654 551 596 c 0xfa
 551 511 479 446 400 422 c 1
 443 394 479 337 479 256 c 0
 479 202 456 124 406 66 c 0
 361 15 302 -12 238 -12 c 0
 184 -12 144 29 144 81 c 0
EndSplineSet
Validated: 1
Substitution2: "'smcp' Bas-de-casse vers petites capitales lookup 0 subtable" germandbls.sc
EndChar

StartChar: agrave
Encoding: 159 224 160
Width: 559
GlyphClass: 2
Flags: W
HStem: -12 64<392 426.24> -12 54<148.901 222.216> 402 54<257.732 338.903> 424 20G<404 498>
VStem: 43 101<44.5715 217.554> 246 95<635 671.99>
LayerCount: 2
Fore
SplineSet
347 496 m 1x0c
 262 593 l 2
 252 605 246 621 246 635 c 0
 246 647 254 681 292 681 c 0
 319 681 332 663 341 635 c 2
 381 516 l 1
 383 512 l 1
 384 508 l 1
 380 506 l 1
 377 504 l 1
 360 494 l 1
 356 492 l 1
 353 490 l 1
 350 493 l 1
 347 496 l 1x0c
164 -12 m 0x4c
 87 -12 43 50 43 131 c 0
 43 220 79 298 104 336 c 0
 150 405 225 456 301 456 c 0x6c
 336 456 372 437 392 395 c 1
 404 433 l 1
 407 444 l 1
 419 444 l 1
 479 444 l 1
 498 444 l 1
 493 426 l 1
 406 134 l 2
 402 120 391 82 391 63 c 0
 391 57 392 53 392 52 c 1
 393 52 393 52 394 52 c 0x9c
 419 52 461 109 492 202 c 2
 497 216 l 1
 510 211 l 1
 530 205 l 1
 545 201 l 1
 540 186 l 2
 513 106 462 -12 374 -12 c 0
 315 -12 305 47 303 82 c 1
 273 40 224 -12 164 -12 c 0x4c
203 307 m 0
 168 241 145 159 144 96 c 0
 144 94 144 93 144 91 c 0
 144 63 153 42 172 42 c 0
 212 42 258 87 296 161 c 0
 323 213 348 290 349 331 c 0
 349 333 349 334 349 336 c 0
 349 384 328 402 299 402 c 0
 266 402 226 350 203 307 c 0
EndSplineSet
Validated: 1
Substitution2: "'smcp' Bas-de-casse vers petites capitales lookup 0 subtable" agrave.sc
EndChar

StartChar: aacute
Encoding: 160 225 161
Width: 559
GlyphClass: 2
Flags: W
HStem: -12 64<392 426.24> -12 54<148.901 222.216> 402 54<257.732 338.903> 424 20G<404 498>
VStem: 43 101<44.5715 217.554>
LayerCount: 2
Fore
SplineSet
324 519 m 1x08
 327 523 l 1
 330 527 l 1
 436 650 l 2
 455 672 472 680 491 680 c 0
 521 680 529 657 529 641 c 0
 529 610 504 593 493 587 c 2
 355 500 l 1
 351 497 l 1
 348 495 l 1
 345 498 l 1
 342 501 l 1
 330 513 l 1
 327 516 l 1
 324 519 l 1x08
164 -12 m 0x48
 87 -12 43 50 43 131 c 0
 43 220 79 298 104 336 c 0
 150 405 225 456 301 456 c 0x68
 336 456 372 437 392 395 c 1
 404 433 l 1
 407 444 l 1
 419 444 l 1
 479 444 l 1
 498 444 l 1
 493 426 l 1
 406 134 l 2
 402 120 391 82 391 63 c 0
 391 57 392 53 392 52 c 1
 393 52 393 52 394 52 c 0x98
 419 52 461 109 492 202 c 2
 497 216 l 1
 510 211 l 1
 530 205 l 1
 545 201 l 1
 540 186 l 2
 513 106 462 -12 374 -12 c 0
 315 -12 305 47 303 82 c 1
 273 40 224 -12 164 -12 c 0x48
203 307 m 0
 168 241 145 159 144 96 c 0
 144 94 144 93 144 91 c 0
 144 63 153 42 172 42 c 0
 212 42 258 87 296 161 c 0
 323 213 348 290 349 331 c 0
 349 333 349 334 349 336 c 0
 349 384 328 402 299 402 c 0
 266 402 226 350 203 307 c 0
EndSplineSet
Validated: 1
Substitution2: "'smcp' Bas-de-casse vers petites capitales lookup 0 subtable" aacute.sc
EndChar

StartChar: acircumflex
Encoding: 161 226 162
Width: 559
GlyphClass: 2
Flags: W
HStem: -12 64<392 426.24> -12 54<148.901 222.216> 402 54<257.732 338.903> 424 20G<404 498> 667 20G<347 415>
VStem: 43 101<44.5715 217.554>
LayerCount: 2
Fore
SplineSet
201 534 m 2x0c
 275 573 320 635 347 680 c 1
 352 687 l 1
 360 687 l 1
 400 687 l 1
 414 687 l 1
 415 673 l 2
 419 628 432 570 479 533 c 2
 492 523 l 1
 481 511 l 1
 469 498 l 1
 461 489 l 1
 451 495 l 2
 416 516 383 545 358 578 c 1
 312 543 266 515 220 494 c 2
 207 488 l 1
 201 502 l 1
 195 515 l 1
 189 528 l 1
 201 534 l 2x0c
164 -12 m 0x4c
 87 -12 43 50 43 131 c 0
 43 220 79 298 104 336 c 0
 150 405 225 456 301 456 c 0x6c
 336 456 372 437 392 395 c 1
 404 433 l 1
 407 444 l 1
 419 444 l 1
 479 444 l 1
 498 444 l 1
 493 426 l 1
 406 134 l 2
 402 120 391 82 391 63 c 0
 391 57 392 53 392 52 c 1
 393 52 393 52 394 52 c 0x9c
 419 52 461 109 492 202 c 2
 497 216 l 1
 510 211 l 1
 530 205 l 1
 545 201 l 1
 540 186 l 2
 513 106 462 -12 374 -12 c 0
 315 -12 305 47 303 82 c 1
 273 40 224 -12 164 -12 c 0x4c
203 307 m 0
 168 241 145 159 144 96 c 0
 144 94 144 93 144 91 c 0
 144 63 153 42 172 42 c 0
 212 42 258 87 296 161 c 0
 323 213 348 290 349 331 c 0
 349 333 349 334 349 336 c 0
 349 384 328 402 299 402 c 0
 266 402 226 350 203 307 c 0
EndSplineSet
Validated: 1
Substitution2: "'smcp' Bas-de-casse vers petites capitales lookup 0 subtable" acircumflex.sc
EndChar

StartChar: atilde
Encoding: 162 227 163
Width: 559
GlyphClass: 2
Flags: W
HStem: -12 64<392 426.24> -12 54<148.901 222.216> 402 54<257.732 338.903> 424 20G<404 498> 541 84<384.202 463.946> 581 84<266.054 345.798>
VStem: 43 101<44.5715 217.554> 212 50<541 554> 468 50<652 665>
LayerCount: 2
Fore
SplineSet
212 556 m 2x0b80
 212 608 242 665 307 665 c 0x0780
 377 665 405 625 445 625 c 0x0b80
 459 625 462 630 466 652 c 2
 468 665 l 1
 481 665 l 1
 503 665 l 1
 518 665 l 1x0780
 518 650 l 2
 518 598 488 541 423 541 c 0x0b80
 353 541 325 581 285 581 c 0x0780
 271 581 268 576 264 554 c 2
 262 541 l 1
 249 541 l 1
 227 541 l 1
 212 541 l 1
 212 556 l 2x0b80
164 -12 m 0x4380
 87 -12 43 50 43 131 c 0
 43 220 79 298 104 336 c 0
 150 405 225 456 301 456 c 0x6380
 336 456 372 437 392 395 c 1
 404 433 l 1
 407 444 l 1
 419 444 l 1
 479 444 l 1
 498 444 l 1
 493 426 l 1
 406 134 l 2
 402 120 391 82 391 63 c 0
 391 57 392 53 392 52 c 1
 393 52 393 52 394 52 c 0x9380
 419 52 461 109 492 202 c 2
 497 216 l 1
 510 211 l 1
 530 205 l 1
 545 201 l 1
 540 186 l 2
 513 106 462 -12 374 -12 c 0
 315 -12 305 47 303 82 c 1
 273 40 224 -12 164 -12 c 0x4380
203 307 m 0
 168 241 145 159 144 96 c 0
 144 94 144 93 144 91 c 0
 144 63 153 42 172 42 c 0
 212 42 258 87 296 161 c 0
 323 213 348 290 349 331 c 0
 349 333 349 334 349 336 c 0
 349 384 328 402 299 402 c 0
 266 402 226 350 203 307 c 0
EndSplineSet
Validated: 1
MultipleSubs2: "Substitution multiple lookup 29 subtable" a tildecomb
EndChar

StartChar: adieresis
Encoding: 163 228 164
Width: 559
GlyphClass: 2
Flags: W
HStem: -12 64<392 426.24> -12 54<148.901 222.216> 402 54<257.732 338.903> 424 20G<404 498> 533 126<222.294 315.356 410.294 503.356>
VStem: 43 101<44.5715 217.554> 206 126<549.644 642.356> 394 126<549.644 642.356>
LayerCount: 2
Fore
SplineSet
394 596 m 0x0f
 394 630 422 659 457 659 c 0
 491 659 520 630 520 596 c 0
 520 562 491 533 457 533 c 0
 422 533 394 562 394 596 c 0x0f
206 596 m 0
 206 630 234 659 269 659 c 0
 303 659 332 630 332 596 c 0
 332 562 303 533 269 533 c 0
 234 533 206 562 206 596 c 0
164 -12 m 0x4f
 87 -12 43 50 43 131 c 0
 43 220 79 298 104 336 c 0
 150 405 225 456 301 456 c 0x6f
 336 456 372 437 392 395 c 1
 404 433 l 1
 407 444 l 1
 419 444 l 1
 479 444 l 1
 498 444 l 1
 493 426 l 1
 406 134 l 2
 402 120 391 82 391 63 c 0
 391 57 392 53 392 52 c 1
 393 52 393 52 394 52 c 0x9f
 419 52 461 109 492 202 c 2
 497 216 l 1
 510 211 l 1
 530 205 l 1
 545 201 l 1
 540 186 l 2
 513 106 462 -12 374 -12 c 0
 315 -12 305 47 303 82 c 1
 273 40 224 -12 164 -12 c 0x4f
203 307 m 0
 168 241 145 159 144 96 c 0
 144 94 144 93 144 91 c 0
 144 63 153 42 172 42 c 0
 212 42 258 87 296 161 c 0
 323 213 348 290 349 331 c 0
 349 333 349 334 349 336 c 0
 349 384 328 402 299 402 c 0
 266 402 226 350 203 307 c 0
EndSplineSet
Validated: 1
MultipleSubs2: "Substitution multiple lookup 29 subtable" a uni0308
Substitution2: "'smcp' Bas-de-casse vers petites capitales lookup 0 subtable" adieresis.sc
EndChar

StartChar: aring
Encoding: 164 229 165
Width: 559
GlyphClass: 2
Flags: W
HStem: -12 64<392 426.24> -12 54<148.901 222.216> 402 54<257.732 338.903> 424 20G<404 498> 485 54<312.843 402.792> 655 54<311.033 404.605>
VStem: 43 101<44.5715 217.554> 246 54<551.409 643.8> 416 54<551.409 643.8>
LayerCount: 2
Fore
SplineSet
246 598 m 0x0f80
 246 660 295 709 358 709 c 0
 420 709 470 660 470 598 c 0
 470 536 420 485 358 485 c 0
 295 485 246 536 246 598 c 0x0f80
300 598 m 0
 300 564 324 539 358 539 c 0
 391 539 416 564 416 598 c 0
 416 632 392 655 358 655 c 0
 323 655 300 632 300 598 c 0
164 -12 m 0x4f80
 87 -12 43 50 43 131 c 0
 43 220 79 298 104 336 c 0
 150 405 225 456 301 456 c 0x6f80
 336 456 372 437 392 395 c 1
 404 433 l 1
 407 444 l 1
 419 444 l 1
 479 444 l 1
 498 444 l 1
 493 426 l 1
 406 134 l 2
 402 120 391 82 391 63 c 0
 391 57 392 53 392 52 c 1
 393 52 393 52 394 52 c 0x9f80
 419 52 461 109 492 202 c 2
 497 216 l 1
 510 211 l 1
 530 205 l 1
 545 201 l 1
 540 186 l 2
 513 106 462 -12 374 -12 c 0
 315 -12 305 47 303 82 c 1
 273 40 224 -12 164 -12 c 0x4f80
203 307 m 0
 168 241 145 159 144 96 c 0
 144 94 144 93 144 91 c 0
 144 63 153 42 172 42 c 0
 212 42 258 87 296 161 c 0
 323 213 348 290 349 331 c 0
 349 333 349 334 349 336 c 0
 349 384 328 402 299 402 c 0
 266 402 226 350 203 307 c 0
EndSplineSet
Validated: 1
MultipleSubs2: "Substitution multiple lookup 29 subtable" a uni030A
EndChar

StartChar: ae
Encoding: 165 230 166
Width: 692
GlyphClass: 2
LigCaretCntFixed: 1
Flags: W
HStem: -12 54<148.901 219.711 409.379 518.541> 402 54<254.525 333.805 523.576 594.986> 424 20G<395 493>
VStem: 43 101<44.5715 217.554> 597 78<300.032 400.771>
AnchorPoint: "Anchor-2" 296 0 basechar 0
AnchorPoint: "Anchor-1" 444 528 basechar 0
AnchorPoint: "Anchor-0" 438 508 basechar 0
LayerCount: 2
Fore
SplineSet
202 307 m 0xd8
 167 241 145 159 144 96 c 0
 144 94 144 93 144 91 c 0
 144 63 153 42 172 42 c 0
 210 42 254 87 291 161 c 0
 317 213 342 290 343 331 c 0
 343 333 343 334 343 336 c 0
 343 384 323 402 294 402 c 0
 263 402 224 350 202 307 c 0xd8
458 288 m 0
 454 281 444 257 438 242 c 1
 468 244 507 250 536 264 c 0
 569 279 597 316 597 364 c 2
 597 364 597 364 597 365 c 0
 597 399 585 402 571 402 c 0
 526 402 481 335 458 288 c 0
164 -12 m 0
 87 -12 43 50 43 131 c 0
 43 220 79 298 104 336 c 0
 150 405 223 456 296 456 c 0xd8
 330 456 365 437 384 395 c 1
 395 433 l 1
 399 444 l 1
 410 444 l 1
 473 444 l 1
 493 444 l 1xb8
 487 425 l 1
 481 406 l 1
 515 440 548 456 582 456 c 0
 635 456 675 420 675 366 c 0
 675 304 626 261 566 235 c 0
 514 214 459 207 421 204 c 1
 411 179 401 145 400 111 c 0
 400 109 400 108 400 106 c 0
 400 46 432 42 459 42 c 0
 536 42 595 153 603 175 c 2
 608 189 l 1
 622 184 l 1
 643 177 l 1
 657 172 l 1
 652 158 l 2
 621 68 536 -12 452 -12 c 0
 352 -12 317 49 306 94 c 1
 277 48 227 -12 164 -12 c 0
EndSplineSet
Validated: 1
Ligature2: "'rlig' Ligatures requises  lookup 21 subtable" a afii301 e
Substitution2: "'smcp' Bas-de-casse vers petites capitales lookup 0 subtable" ae.sc
LCarets2: 1 352
EndChar

StartChar: ccedilla
Encoding: 166 231 167
Width: 459
GlyphClass: 2
Flags: W
HStem: -212 52<105.66 161.129> -12 54<207 279.125> 402 54<269.854 351.385>
VStem: 41 95<-147.888 -81.8129> 52 101<69.137 226.778> 144 60<-51.1194 -12.0312> 166 92<-156.005 -61.8292> 307 128<279.984 356.464>
LayerCount: 2
Fore
SplineSet
123 -212 m 0xe3
 89 -212 41 -189 41 -133 c 0
 41 -106 60 -67 98 -67 c 0
 123 -67 136 -89 136 -111 c 0
 136 -112 136 -112 136 -113 c 0xf3
 135 -134 121 -150 105 -153 c 1
 106 -154 106 -160 126 -160 c 0
 154 -160 165 -139 166 -121 c 0
 166 -120 166 -120 166 -119 c 0
 166 -103 160 -89 153 -74 c 0xeb
 148 -62 144 -49 144 -34 c 0
 144 -33 144 -33 144 -32 c 0xe5
 145 -23 146 -13 150 -3 c 1
 88 20 52 89 52 162 c 0xe9
 52 238 81 319 144 381 c 1xe5
 195 425 253 456 326 456 c 0
 372 456 435 427 435 341 c 0
 435 295 404 256 363 256 c 0
 326 256 307 286 307 309 c 0
 308 341 331 361 346 373 c 0
 351 377 351 380 352 387 c 0
 351 389 348 402 321 402 c 0
 258 402 209 309 184 251 c 0
 165 210 154 135 154 108 c 0
 153 106 153 105 153 104 c 0xe9
 153 54 182 42 208 42 c 0
 306 42 355 152 363 175 c 2
 368 189 l 1
 382 184 l 1
 403 177 l 1
 418 172 l 1
 413 158 l 2
 382 70 312 -8 207 -12 c 1
 206 -14 l 2
 204 -17 204 -18 204 -21 c 2
 204 -21 204 -21 204 -22 c 0xe5
 204 -27 206 -33 220 -46 c 0
 240 -64 258 -84 258 -111 c 0
 258 -170 190 -212 123 -212 c 0xe3
EndSplineSet
Validated: 1
Ligature2: "'ccmp' Composition et d+AOkA-composition de glyphe (CJC) lookup 3 subtable" c uni0327
Substitution2: "'smcp' Bas-de-casse vers petites capitales lookup 0 subtable" ccedilla.sc
EndChar

StartChar: egrave
Encoding: 167 232 168
Width: 446
GlyphClass: 2
Flags: W
HStem: -12 54<162.297 278.831> 402 54<269.466 347.009>
VStem: 52 101<70.9137 201.509> 243 95<635 671.99> 349 77<299.225 400.546>
LayerCount: 2
Fore
SplineSet
344 496 m 1
 259 593 l 2
 248 605 243 621 243 635 c 0
 243 647 250 681 289 681 c 0
 315 681 329 663 338 635 c 2
 378 516 l 1
 379 512 l 1
 381 508 l 1
 377 506 l 1
 374 504 l 1
 357 494 l 1
 353 492 l 1
 350 490 l 1
 347 493 l 1
 344 496 l 1
199 -12 m 0
 107 -12 52 72 52 162 c 0
 52 238 81 319 144 381 c 0
 193 425 260 456 326 456 c 0
 373 456 426 433 426 364 c 1
 426 304 379 261 317 234 c 0
 263 213 205 207 165 204 c 1
 160 180 154 141 154 108 c 0
 154 107 153 106 153 104 c 0
 153 54 180 42 206 42 c 0
 307 42 355 152 363 175 c 2
 368 189 l 1
 382 184 l 1
 403 177 l 1
 418 172 l 1
 413 158 l 2
 382 69 309 -12 199 -12 c 0
199 293 m 0
 195 285 186 258 181 242 c 1
 213 244 249 250 284 264 c 0
 321 279 348 315 349 363 c 0
 349 364 349 366 349 367 c 0
 349 398 337 402 325 402 c 0
 275 402 219 342 199 293 c 0
EndSplineSet
Validated: 5
Substitution2: "'smcp' Bas-de-casse vers petites capitales lookup 0 subtable" egrave.sc
EndChar

StartChar: eacute
Encoding: 168 233 169
Width: 446
GlyphClass: 2
Flags: W
HStem: -12 54<162.297 278.831> 402 54<269.466 347.009>
VStem: 52 101<70.9137 201.509> 349 77<299.225 400.546>
LayerCount: 2
Fore
SplineSet
321 519 m 1
 324 523 l 1
 327 527 l 1
 433 650 l 2
 452 672 469 680 488 680 c 0
 517 680 526 657 526 641 c 0
 526 610 500 593 490 587 c 2
 352 500 l 1
 348 497 l 1
 345 495 l 1
 342 498 l 1
 339 501 l 1
 327 513 l 1
 324 516 l 1
 321 519 l 1
199 -12 m 0
 107 -12 52 72 52 162 c 0
 52 238 81 319 144 381 c 0
 193 425 260 456 326 456 c 0
 373 456 426 433 426 364 c 1
 426 304 379 261 317 234 c 0
 263 213 205 207 165 204 c 1
 160 180 154 141 154 108 c 0
 154 107 153 106 153 104 c 0
 153 54 180 42 206 42 c 0
 307 42 355 152 363 175 c 2
 368 189 l 1
 382 184 l 1
 403 177 l 1
 418 172 l 1
 413 158 l 2
 382 69 309 -12 199 -12 c 0
199 293 m 0
 195 285 186 258 181 242 c 1
 213 244 249 250 284 264 c 0
 321 279 348 315 349 363 c 0
 349 364 349 366 349 367 c 0
 349 398 337 402 325 402 c 0
 275 402 219 342 199 293 c 0
EndSplineSet
Validated: 5
Substitution2: "'smcp' Bas-de-casse vers petites capitales lookup 0 subtable" eacute.sc
EndChar

StartChar: ecircumflex
Encoding: 169 234 170
Width: 446
GlyphClass: 2
Flags: W
HStem: -12 54<162.297 278.831> 402 54<269.466 347.009> 667 20G<344 412>
VStem: 52 101<70.9137 201.509> 349 77<299.225 400.546>
LayerCount: 2
Fore
SplineSet
198 534 m 2
 272 573 317 635 344 680 c 1
 349 687 l 1
 357 687 l 1
 397 687 l 1
 411 687 l 1
 412 673 l 2
 416 628 429 570 476 533 c 2
 489 523 l 1
 478 511 l 1
 466 498 l 1
 458 489 l 1
 447 495 l 2
 413 516 380 545 355 578 c 1
 309 543 263 515 217 494 c 2
 204 488 l 1
 197 502 l 1
 191 515 l 1
 186 528 l 1
 198 534 l 2
199 -12 m 0
 107 -12 52 72 52 162 c 0
 52 238 81 319 144 381 c 0
 193 425 260 456 326 456 c 0
 373 456 426 433 426 364 c 1
 426 304 379 261 317 234 c 0
 263 213 205 207 165 204 c 1
 160 180 154 141 154 108 c 0
 154 107 153 106 153 104 c 0
 153 54 180 42 206 42 c 0
 307 42 355 152 363 175 c 2
 368 189 l 1
 382 184 l 1
 403 177 l 1
 418 172 l 1
 413 158 l 2
 382 69 309 -12 199 -12 c 0
199 293 m 0
 195 285 186 258 181 242 c 1
 213 244 249 250 284 264 c 0
 321 279 348 315 349 363 c 0
 349 364 349 366 349 367 c 0
 349 398 337 402 325 402 c 0
 275 402 219 342 199 293 c 0
EndSplineSet
Validated: 5
Substitution2: "'smcp' Bas-de-casse vers petites capitales lookup 0 subtable" ecircumflex.sc
EndChar

StartChar: edieresis
Encoding: 170 235 171
Width: 446
GlyphClass: 2
Flags: W
HStem: -12 54<162.297 278.831> 402 54<269.466 347.009> 533 126<219.294 312.356 407.294 500.356>
VStem: 52 101<70.9137 201.509> 203 126<549.644 642.356> 349 77<299.225 400.546> 391 126<549.644 642.356>
LayerCount: 2
Fore
SplineSet
391 596 m 0xfa
 391 630 419 659 454 659 c 0
 488 659 517 630 517 596 c 0
 517 562 488 533 454 533 c 0
 419 533 391 562 391 596 c 0xfa
203 596 m 0
 203 630 231 659 266 659 c 0
 300 659 329 630 329 596 c 0
 329 562 300 533 266 533 c 0
 231 533 203 562 203 596 c 0
199 -12 m 0
 107 -12 52 72 52 162 c 0
 52 238 81 319 144 381 c 0
 193 425 260 456 326 456 c 0
 373 456 426 433 426 364 c 1xfc
 426 304 379 261 317 234 c 0
 263 213 205 207 165 204 c 1
 160 180 154 141 154 108 c 0
 154 107 153 106 153 104 c 0
 153 54 180 42 206 42 c 0
 307 42 355 152 363 175 c 2
 368 189 l 1
 382 184 l 1
 403 177 l 1
 418 172 l 1
 413 158 l 2
 382 69 309 -12 199 -12 c 0
199 293 m 0
 195 285 186 258 181 242 c 1
 213 244 249 250 284 264 c 0
 321 279 348 315 349 363 c 0
 349 364 349 366 349 367 c 0
 349 398 337 402 325 402 c 0
 275 402 219 342 199 293 c 0
EndSplineSet
Validated: 5
MultipleSubs2: "Substitution multiple lookup 29 subtable" e uni0308
Substitution2: "'smcp' Bas-de-casse vers petites capitales lookup 0 subtable" edieresis.sc
EndChar

StartChar: igrave
Encoding: 171 236 172
Width: 348
GlyphClass: 2
Flags: W
HStem: -12 60<155 217.224> 396 60<165.676 228.5>
VStem: 104 75<48.6148 128.203> 147 95<635 671.99> 203 75<315.797 393.737>
LayerCount: 2
Fore
SplineSet
248 496 m 1xc8
 164 593 l 2
 153 605 147 621 147 635 c 0
 147 647 155 681 193 681 c 0
 220 681 233 663 242 635 c 2xd0
 282 516 l 1
 284 512 l 1
 285 508 l 1
 282 506 l 1
 278 504 l 1
 261 494 l 1
 258 492 l 1
 254 490 l 1
 251 493 l 1
 248 496 l 1xc8
39 243 m 1
 44 258 l 2
 76 350 129 456 208 456 c 0
 249 456 278 416 278 354 c 0
 278 353 278 353 278 353 c 2
 278 323 268 276 257 252 c 2
 193 113 l 2
 189 104 179 76 179 64 c 0
 178 50 183 48 186 48 c 0
 221 48 269 146 290 202 c 2
 295 215 l 1
 308 211 l 1
 328 205 l 1
 343 201 l 1
 338 186 l 2
 307 94 254 -12 175 -12 c 0
 135 -12 104 24 104 90 c 2
 104 90 104 91 104 91 c 2
 104 121 113 165 125 192 c 2
 189 331 l 2
 193 340 203 368 203 380 c 0xe8
 204 395 200 396 197 396 c 0
 162 396 113 297 92 242 c 2
 87 229 l 1
 74 233 l 1
 54 239 l 1
 39 243 l 1
EndSplineSet
Validated: 1
Substitution2: "'smcp' Bas-de-casse vers petites capitales lookup 0 subtable" igrave.sc
EndChar

StartChar: iacute
Encoding: 172 237 173
Width: 348
GlyphClass: 2
Flags: W
HStem: -12 60<155 217.224> 396 60<165.676 228.5>
VStem: 104 75<48.6148 128.203> 203 75<315.797 393.737>
LayerCount: 2
Fore
SplineSet
225 519 m 1
 228 523 l 1
 231 527 l 1
 337 650 l 2
 356 672 373 680 393 680 c 0
 422 680 431 657 431 641 c 0
 431 610 405 593 394 587 c 2
 256 500 l 1
 253 497 l 1
 249 495 l 1
 246 498 l 1
 244 501 l 1
 232 513 l 1
 228 516 l 1
 225 519 l 1
39 243 m 1
 44 258 l 2
 76 350 129 456 208 456 c 0
 249 456 278 416 278 354 c 0
 278 353 278 353 278 353 c 2
 278 323 268 276 257 252 c 2
 193 113 l 2
 189 104 179 76 179 64 c 0
 178 50 183 48 186 48 c 0
 221 48 269 146 290 202 c 2
 295 215 l 1
 308 211 l 1
 328 205 l 1
 343 201 l 1
 338 186 l 2
 307 94 254 -12 175 -12 c 0
 135 -12 104 24 104 90 c 2
 104 90 104 91 104 91 c 2
 104 121 113 165 125 192 c 2
 189 331 l 2
 193 340 203 368 203 380 c 0
 204 395 200 396 197 396 c 0
 162 396 113 297 92 242 c 2
 87 229 l 1
 74 233 l 1
 54 239 l 1
 39 243 l 1
EndSplineSet
Validated: 1
Substitution2: "'smcp' Bas-de-casse vers petites capitales lookup 0 subtable" iacute.sc
EndChar

StartChar: icircumflex
Encoding: 173 238 174
Width: 348
GlyphClass: 2
Flags: W
HStem: -12 60<155 217.224> 396 60<165.676 228.5> 667 20G<249 316>
VStem: 104 75<48.6148 128.203> 203 75<315.797 393.737>
LayerCount: 2
Fore
SplineSet
102 534 m 2
 176 573 221 635 249 680 c 2
 253 687 l 1
 262 687 l 1
 302 687 l 1
 315 687 l 1
 316 673 l 2
 320 628 333 570 381 533 c 2
 394 523 l 1
 383 511 l 1
 371 498 l 1
 362 489 l 1
 352 495 l 2
 317 516 284 545 259 578 c 1
 213 543 167 515 122 494 c 2
 108 488 l 1
 102 502 l 1
 96 515 l 1
 90 528 l 1
 102 534 l 2
39 243 m 1
 44 258 l 2
 76 350 129 456 208 456 c 0
 249 456 278 416 278 354 c 0
 278 353 278 353 278 353 c 2
 278 323 268 276 257 252 c 2
 193 113 l 2
 189 104 179 76 179 64 c 0
 178 50 183 48 186 48 c 0
 221 48 269 146 290 202 c 2
 295 215 l 1
 308 211 l 1
 328 205 l 1
 343 201 l 1
 338 186 l 2
 307 94 254 -12 175 -12 c 0
 135 -12 104 24 104 90 c 2
 104 90 104 91 104 91 c 2
 104 121 113 165 125 192 c 2
 189 331 l 2
 193 340 203 368 203 380 c 0
 204 395 200 396 197 396 c 0
 162 396 113 297 92 242 c 2
 87 229 l 1
 74 233 l 1
 54 239 l 1
 39 243 l 1
EndSplineSet
Validated: 1
Substitution2: "'smcp' Bas-de-casse vers petites capitales lookup 0 subtable" icircumflex.sc
EndChar

StartChar: idieresis
Encoding: 174 239 175
Width: 348
GlyphClass: 2
Flags: W
HStem: -12 60<155 217.224> 396 60<165.676 228.5> 533 126<134.294 227.356 298.294 391.356>
VStem: 104 75<48.6148 128.203> 118 126<549.644 642.356> 203 75<315.797 393.737> 282 126<549.644 642.356>
LayerCount: 2
Fore
SplineSet
282 596 m 0xe2
 282 630 310 659 345 659 c 0
 379 659 408 630 408 596 c 0
 408 562 379 533 345 533 c 0
 310 533 282 562 282 596 c 0xe2
118 596 m 0xea
 118 630 146 659 181 659 c 0
 215 659 244 630 244 596 c 0
 244 562 215 533 181 533 c 0
 146 533 118 562 118 596 c 0xea
39 243 m 1
 44 258 l 2
 76 350 129 456 208 456 c 0
 249 456 278 416 278 354 c 0
 278 353 278 353 278 353 c 2
 278 323 268 276 257 252 c 2
 193 113 l 2
 189 104 179 76 179 64 c 0
 178 50 183 48 186 48 c 0
 221 48 269 146 290 202 c 2
 295 215 l 1
 308 211 l 1
 328 205 l 1
 343 201 l 1
 338 186 l 2
 307 94 254 -12 175 -12 c 0
 135 -12 104 24 104 90 c 2
 104 90 104 91 104 91 c 2
 104 121 113 165 125 192 c 2
 189 331 l 2
 193 340 203 368 203 380 c 0xf6
 204 395 200 396 197 396 c 0
 162 396 113 297 92 242 c 2
 87 229 l 1
 74 233 l 1
 54 239 l 1
 39 243 l 1
EndSplineSet
Validated: 1
MultipleSubs2: "Substitution multiple lookup 29 subtable" dotlessi uni0308
Substitution2: "'smcp' Bas-de-casse vers petites capitales lookup 0 subtable" idieresis.sc
EndChar

